<?xml version="1.0" encoding="utf-8"?>
<!-- Generator: Adobe Illustrator 15.0.1, SVG Export Plug-In  -->
<!DOCTYPE svg PUBLIC "-//W3C//DTD SVG 1.1//EN" "http://www.w3.org/Graphics/SVG/1.1/DTD/svg11.dtd" [
	<!ENTITY ns_flows "http://ns.adobe.com/Flows/1.0/">
]>
<svg version="1.1"
	 xmlns="http://www.w3.org/2000/svg" xmlns:xlink="http://www.w3.org/1999/xlink" xmlns:a="http://ns.adobe.com/AdobeSVGViewerExtensions/3.0/"
	 x="0px" y="0px" width="436px" height="341px" viewBox="-3.959 -4 436 341"
	 overflow="visible" enable-background="new -3.959 -4 436 341" xml:space="preserve">
<defs>
</defs>
<g id="California_1_">
	<radialGradient id="SVGID_1_" cx="47.1055" cy="118.5024" r="43.3485" gradientUnits="userSpaceOnUse">
		<stop  offset="0" style="stop-color:#A5B765;stop-opacity:0.75"/>
		<stop  offset="0.9447" style="stop-color:#A5B765;stop-opacity:0.9862"/>
		<stop  offset="1" style="stop-color:#A5B765"/>
	</radialGradient>
	<polygon fill="url(#SVGID_1_)" points="21.415,65.735 50.749,73.068 45.406,95.729 43.784,102.22 66.5,135.332 76.116,149.515 
		76.749,153.068 78.311,157.256 78.239,158.533 71.308,171.27 51.717,169.226 51.297,163.396 46.489,155.884 28.82,142.844 
		29.482,139.659 28.58,135.993 28.94,134.912 23.591,121.75 25.395,120.668 25.033,118.084 23.171,117.423 21.909,111.473 
		23.171,111.172 24.131,112.254 24.915,112.318 24.673,110.031 23.831,107.928 24.313,105.764 23.651,106.004 22.749,108.152 
		22.15,108.168 20.286,104.862 16.681,95.608 18.183,89.72 18.243,87.075 15.9,82.086 16.622,79.142 19.385,75.716 	"/>
</g>
<g id="Oregon_1_">
	<radialGradient id="SVGID_2_" cx="51.855" cy="50.5972" r="28.4174" gradientUnits="userSpaceOnUse">
		<stop  offset="0" style="stop-color:#D5D6C3;stop-opacity:0.6"/>
		<stop  offset="0.9447" style="stop-color:#D5D6C3;stop-opacity:0.9779"/>
		<stop  offset="1" style="stop-color:#D5D6C3"/>
	</radialGradient>
	<polygon fill="url(#SVGID_2_)" points="21.749,64.568 21.026,60.151 22.166,57.447 21.867,54.924 24.27,50.838 25.533,50.898 
		25.112,50.356 29.5,41.282 34.968,24.816 40.999,27.486 41.28,32.206 44.104,33.891 66.82,35.212 80.822,38.278 82.684,41.282 
		82.561,43.145 75.712,52.16 75.294,54.082 77.094,55.645 75.472,59.071 71.867,76.378 	"/>
</g>
<g id="Washington_1_">
	<radialGradient id="SVGID_3_" cx="60.4468" cy="18.6597" r="22.4091" gradientUnits="userSpaceOnUse">
		<stop  offset="0" style="stop-color:#D5D6C3;stop-opacity:0.6"/>
		<stop  offset="0.9447" style="stop-color:#D5D6C3;stop-opacity:0.9779"/>
		<stop  offset="1" style="stop-color:#D5D6C3"/>
	</radialGradient>
	<polygon fill="url(#SVGID_3_)" points="34.831,22.818 36.075,17.568 38.166,17.068 36.142,15.155 36.301,9.434 35.342,6.19 
		36.062,2.044 45.618,6.911 47.249,10.402 44.166,14.318 43.331,17.068 45.916,18.152 48.742,15.445 50.665,10.395 49.499,2.318 
		49.945,0 58.658,2.344 68.513,4.808 79.932,7.451 86.062,8.712 86.001,9.075 81.315,30.95 81.074,37.319 67.072,34.255 
		44.356,32.934 41.916,31.568 41.592,26.801 	"/>
</g>
<g id="Nevada_1_">
	<radialGradient id="SVGID_4_" cx="69.4331" cy="110.9434" r="31.385" gradientUnits="userSpaceOnUse">
		<stop  offset="0" style="stop-color:#75AFA5;stop-opacity:0.75"/>
		<stop  offset="0.9447" style="stop-color:#75AFA5;stop-opacity:0.9862"/>
		<stop  offset="1" style="stop-color:#75AFA5"/>
	</radialGradient>
	<polygon fill="url(#SVGID_4_)" points="51.999,73.568 93.374,82.068 84.756,130.664 83.375,138.296 81.749,139.568 80.499,138.318 
		77.977,140.065 76.749,148.318 45.493,101.937 	"/>
</g>
<g id="Arizona_1_">
	<radialGradient id="SVGID_5_" cx="97.6973" cy="162.6724" r="28.333" gradientUnits="userSpaceOnUse">
		<stop  offset="0" style="stop-color:#75AFA5;stop-opacity:0.6"/>
		<stop  offset="0.9447" style="stop-color:#75AFA5;stop-opacity:0.9779"/>
		<stop  offset="1" style="stop-color:#75AFA5"/>
	</radialGradient>
	<polygon fill="url(#SVGID_5_)" points="79.789,158.708 79.909,157.504 77.505,152.096 79.249,140.943 80.809,140.018 
		82.252,141.339 84.238,139.836 85.619,132.203 123.719,138.032 116.748,193.142 100.345,190.917 71.675,174.512 	"/>
</g>
<g id="Idaho_1_">
	<radialGradient id="SVGID_6_" cx="96.1021" cy="46.6235" r="31.1412" gradientUnits="userSpaceOnUse">
		<stop  offset="0" style="stop-color:#D5D6C3;stop-opacity:0.6"/>
		<stop  offset="0.9447" style="stop-color:#D5D6C3;stop-opacity:0.9779"/>
		<stop  offset="1" style="stop-color:#D5D6C3"/>
	</radialGradient>
	<polygon fill="url(#SVGID_6_)" points="73.124,76.568 76.796,58.955 78.584,55.446 76.785,53.881 77.248,52.318 83.999,43.402 
		84.165,41.068 82.249,37.735 82.387,31.791 87.26,9.053 93.57,10.376 91.521,20.432 93.083,23.858 92.602,25.899 96.929,32.932 
		100.355,35.275 96.929,45.434 98.251,46.515 100.914,45.818 102.098,46.152 105.642,57.69 106.003,58.354 117.164,58.07 
		119.081,59.735 115.374,84.193 	"/>
</g>
<g id="Utah_1_">
	<radialGradient id="SVGID_7_" cx="107.4253" cy="109.3286" r="24.469" gradientUnits="userSpaceOnUse">
		<stop  offset="0" style="stop-color:#75AFA5;stop-opacity:0.6"/>
		<stop  offset="0.9447" style="stop-color:#75AFA5;stop-opacity:0.9779"/>
		<stop  offset="1" style="stop-color:#75AFA5"/>
	</radialGradient>
	<polygon fill="url(#SVGID_7_)" points="85.911,130.602 94.565,82.226 115.006,85.712 113.564,95.863 128.94,97.85 124.011,136.432 
		113.494,135.052 103.339,133.548 92.942,131.867 	"/>
</g>
<g id="Montana_1_">
	<radialGradient id="SVGID_8_" cx="132.2065" cy="35.1396" r="32.9703" gradientUnits="userSpaceOnUse">
		<stop  offset="0" style="stop-color:#D5D6C3;stop-opacity:0.6"/>
		<stop  offset="0.9447" style="stop-color:#D5D6C3;stop-opacity:0.9779"/>
		<stop  offset="1" style="stop-color:#D5D6C3"/>
	</radialGradient>
	<polygon fill="url(#SVGID_8_)" points="94.167,23.512 92.603,20.086 94.528,10.53 103.961,12.392 120.547,15.219 135.092,17.322 
		144.525,18.462 154.562,19.605 167.122,20.748 171.81,21.106 169.332,59.75 119.914,54.486 119.249,58.569 117.331,56.819 
		106.725,57.344 102.914,45.235 101.914,44.735 98.734,45.325 98.192,44.424 99.334,40.577 101.438,34.928 98.012,32.584 
		93.685,25.552 	"/>
</g>
<g id="Wyoming_2_">
	<radialGradient id="SVGID_9_" cx="142.1499" cy="78.2495" r="24.6033" gradientUnits="userSpaceOnUse">
		<stop  offset="0" style="stop-color:#D5D6C3;stop-opacity:0.6"/>
		<stop  offset="0.9447" style="stop-color:#D5D6C3;stop-opacity:0.9779"/>
		<stop  offset="1" style="stop-color:#D5D6C3"/>
	</radialGradient>
	<polygon fill="url(#SVGID_9_)" points="120.874,56.402 169.23,61.034 166.525,100.096 155.107,99.193 148.796,98.593 
		136.957,97.332 129.987,96.491 115.07,95.005 	"/>
</g>
<g>
	<radialGradient id="SVGID_10_" cx="144.7476" cy="166.0806" r="27.2728" gradientUnits="userSpaceOnUse">
		<stop  offset="0" style="stop-color:#D5D6C3;stop-opacity:0.6"/>
		<stop  offset="0.9447" style="stop-color:#D5D6C3;stop-opacity:0.9779"/>
		<stop  offset="1" style="stop-color:#D5D6C3"/>
	</radialGradient>
	<polygon fill="url(#SVGID_10_)" points="118.163,193.243 125.134,138.136 137.875,139.637 149.234,140.78 162.935,141.922 
		171.332,142.568 167.984,190.78 137.999,188.152 138.582,191.152 125.856,189.756 124.534,194.025 	"/>
</g>
<g id="Colorado_1_">
	<radialGradient id="SVGID_11_" cx="153.4023" cy="119.8472" r="25.0577" gradientUnits="userSpaceOnUse">
		<stop  offset="0" style="stop-color:#D5D6C3;stop-opacity:0.6"/>
		<stop  offset="0.9447" style="stop-color:#D5D6C3;stop-opacity:0.9779"/>
		<stop  offset="1" style="stop-color:#D5D6C3"/>
	</radialGradient>
	<polygon fill="url(#SVGID_11_)" points="125.389,136.742 130.318,98.144 137.288,98.985 149.126,100.248 155.438,100.848 
		166.856,101.749 173.526,102.229 181.416,102.72 180.856,112.042 179.414,141.551 171.844,141.07 163.19,140.529 149.489,139.387 
		138.13,138.244 	"/>
</g>
<g id="Texas_1_">
	<radialGradient id="SVGID_12_" cx="194.0679" cy="201.2056" r="53.3846" gradientUnits="userSpaceOnUse">
		<stop  offset="0" style="stop-color:#A5B765;stop-opacity:0.75"/>
		<stop  offset="0.9447" style="stop-color:#A5B765;stop-opacity:0.9862"/>
		<stop  offset="1" style="stop-color:#A5B765"/>
	</radialGradient>
	<polygon fill="url(#SVGID_12_)" points="139.953,190.029 169.249,192.652 172.404,148.562 195.999,149.486 195.42,168.394 
		211.767,175.068 224.868,177.35 227.812,175.424 233.958,175.441 243.136,178.491 243.618,193.694 248.183,202.708 
		247.103,211.723 245.156,216.44 238.989,218.874 238.999,216.568 238.029,215.569 235.866,216.412 237.368,219.295 
		237.066,220.076 234.904,222.779 232.2,224.823 227.572,226.747 224.568,226.446 223.545,227.828 224.447,228.608 222.464,229.871 
		220.42,231.434 219.096,232.455 217.536,234.796 216.876,236.422 215.612,239.546 212.608,238.345 213.148,240.027 
		215.431,240.689 215.074,242.611 215.491,247.779 217.956,251.987 215.612,253.85 213.629,252.168 204.795,249.943 200.83,248.14 
		197.945,241.228 198.065,239.967 197.404,239.486 197.764,238.165 197.583,236.962 196.803,236.181 195.783,235.88 
		191.452,230.232 188.151,221.94 180.937,214.487 171.261,215.027 167.174,221.639 164.89,221.217 155.938,214.668 151.909,203.911 
			"/>
</g>
<g id="Nebraska_1_">
	<radialGradient id="SVGID_13_" cx="199.9839" cy="96.7632" r="25.1618" gradientUnits="userSpaceOnUse">
		<stop  offset="0" style="stop-color:#D5D6C3;stop-opacity:0.6"/>
		<stop  offset="0.9447" style="stop-color:#D5D6C3;stop-opacity:0.9779"/>
		<stop  offset="1" style="stop-color:#D5D6C3"/>
	</radialGradient>
	<polygon fill="url(#SVGID_13_)" points="168.008,100.243 169.33,81.15 176.913,81.608 189.173,82.268 201.011,82.689 
		208.416,82.901 213.45,84.191 217.476,84.071 223.666,88.151 226.658,97.42 227.999,99.651 228.083,105.401 231.96,112.256 
		219.52,112.376 209.964,112.317 191.697,111.836 182.259,111.356 182.832,101.152 	"/>
</g>
<g id="South_Dakota_1_">
	<radialGradient id="SVGID_14_" cx="196.2788" cy="69.2866" r="22.8129" gradientUnits="userSpaceOnUse">
		<stop  offset="0" style="stop-color:#75AFA5;stop-opacity:0.75"/>
		<stop  offset="0.9447" style="stop-color:#75AFA5;stop-opacity:0.9862"/>
		<stop  offset="1" style="stop-color:#75AFA5"/>
	</radialGradient>
	<polygon fill="url(#SVGID_14_)" points="169.218,80.327 171.227,51.72 183.77,52.419 197.231,53.021 209.732,53.319 
		222.413,53.379 221.165,55.735 221.332,57.818 223.301,59.631 223.339,76.76 222.088,76.76 222.416,84.318 223.074,86.854 
		220.91,85.232 217.364,83.248 213.337,83.367 208.77,81.985 200.898,81.863 189.06,81.444 176.8,80.783 	"/>
</g>
<g id="North_Dakota_1_">
	<radialGradient id="SVGID_15_" cx="196.8413" cy="36.8228" r="21.1879" gradientUnits="userSpaceOnUse">
		<stop  offset="0" style="stop-color:#D5D6C3;stop-opacity:0.6"/>
		<stop  offset="0.9447" style="stop-color:#D5D6C3;stop-opacity:0.9779"/>
		<stop  offset="1" style="stop-color:#D5D6C3"/>
	</radialGradient>
	<polygon fill="url(#SVGID_15_)" points="171.249,50.747 173.291,21.48 173.291,21.239 183.913,21.817 199.177,22.478 
		212.219,22.78 217.988,22.78 221.11,46.998 222.193,49.22 222.434,52.407 209.754,52.345 197.253,52.046 183.792,51.444 	"/>
</g>
<g id="Oklahoma_1_">
	<radialGradient id="SVGID_16_" cx="206.3604" cy="159.3696" r="26.5027" gradientUnits="userSpaceOnUse">
		<stop  offset="0" style="stop-color:#D5D6C3;stop-opacity:0.6"/>
		<stop  offset="0.9447" style="stop-color:#D5D6C3;stop-opacity:0.9779"/>
		<stop  offset="1" style="stop-color:#D5D6C3"/>
	</radialGradient>
	<polygon fill="url(#SVGID_16_)" points="172.805,147.187 173.106,142.671 181.01,143.151 193.331,143.691 210.819,144.112 
		228.427,144.112 238.043,143.932 238.163,148.389 239.545,156.624 239.845,159.327 239.916,175.985 233.666,174.151 
		227.416,174.318 224.666,176.068 212.249,173.985 197.044,167.637 197.645,148.068 	"/>
</g>
<g id="Kansas_1_">
	<radialGradient id="SVGID_17_" cx="209.4937" cy="127.5127" r="22.9392" gradientUnits="userSpaceOnUse">
		<stop  offset="0" style="stop-color:#D5D6C3;stop-opacity:0.6"/>
		<stop  offset="0.9447" style="stop-color:#D5D6C3;stop-opacity:0.9779"/>
		<stop  offset="1" style="stop-color:#D5D6C3"/>
	</radialGradient>
	<polygon fill="url(#SVGID_17_)" points="180.852,141.787 182.294,112.279 191.982,112.76 210.25,113.242 219.805,113.3 
		232.245,113.181 235.49,114.923 233.929,117.328 237.654,121.712 238.135,142.567 228.519,142.747 210.911,142.747 
		193.423,142.327 	"/>
</g>
<g id="Minnesota_1_">
	<radialGradient id="SVGID_18_" cx="244.5625" cy="48.3867" r="26.8238" gradientUnits="userSpaceOnUse">
		<stop  offset="0" style="stop-color:#75AFA5;stop-opacity:0.6"/>
		<stop  offset="0.9447" style="stop-color:#75AFA5;stop-opacity:0.9779"/>
		<stop  offset="1" style="stop-color:#75AFA5"/>
	</radialGradient>
	<polygon fill="url(#SVGID_18_)" points="219.415,22.901 227.904,22.94 232.832,22.818 232.915,19.985 234.913,20.291 
		236.295,25.518 242.249,27.235 246.993,26.179 256.749,31.402 260.165,29.402 261.357,29.244 261.838,30.447 266.285,30.025 
		269.71,30.806 265.864,33.27 259.733,37.417 257.451,40.3 252.521,44.928 252.28,51.18 249.817,52.681 248.688,54.818 
		250.431,57.463 249.342,64.096 259.978,71.729 261.332,75.568 254.205,76.008 244.109,76.429 231.969,76.73 224.7,76.788 
		224.579,58.992 222.762,57.136 222.665,55.486 223.857,52.742 223.495,48.955 222.295,46.071 	"/>
</g>
<g id="Iowa_1_">
	<radialGradient id="SVGID_19_" cx="246.7192" cy="91.4727" r="19.5254" gradientUnits="userSpaceOnUse">
		<stop  offset="0" style="stop-color:#D5D6C3;stop-opacity:0.6"/>
		<stop  offset="0.9447" style="stop-color:#D5D6C3;stop-opacity:0.9779"/>
		<stop  offset="1" style="stop-color:#D5D6C3"/>
	</radialGradient>
	<polygon fill="url(#SVGID_19_)" points="223.416,84.568 223.416,77.901 232.041,77.801 244.181,77.5 254.277,77.079 
		261.609,76.659 264.249,84.193 270.022,89.879 269.06,94.928 265.749,98.193 263.892,104.242 261.624,105.318 259.832,104.963 
		254.636,105.503 243.339,106.166 238.171,106.286 229.997,106.226 229.218,105.204 228.977,99.194 227.534,96.969 	"/>
</g>
<g id="Missouri_1_">
	<radialGradient id="SVGID_20_" cx="256.1177" cy="128.5054" r="24.2038" gradientUnits="userSpaceOnUse">
		<stop  offset="0" style="stop-color:#D5D6C3;stop-opacity:0.6"/>
		<stop  offset="0.9447" style="stop-color:#D5D6C3;stop-opacity:0.9779"/>
		<stop  offset="1" style="stop-color:#D5D6C3"/>
	</radialGradient>
	<polygon fill="url(#SVGID_20_)" points="230.275,107.32 238.449,107.38 243.617,107.261 254.913,106.6 259.784,106.059 
		262.126,108.402 268.617,122.044 272.883,123.125 271.321,128.295 281.959,141.035 281.716,143.68 280.095,144.642 
		277.931,150.469 273.424,150.952 274.868,146.804 273.784,145.841 259.721,146.743 247.403,147.286 239.65,147.464 
		239.249,121.206 235.624,117.443 237.374,114.568 233.129,112.46 	"/>
</g>
<g id="Arkansas_1_">
	<radialGradient id="SVGID_21_" cx="258.8784" cy="164.8101" r="18.5201" gradientUnits="userSpaceOnUse">
		<stop  offset="0" style="stop-color:#D5D6C3;stop-opacity:0.6"/>
		<stop  offset="0.9447" style="stop-color:#D5D6C3;stop-opacity:0.9779"/>
		<stop  offset="1" style="stop-color:#D5D6C3"/>
	</radialGradient>
	<polygon fill="url(#SVGID_21_)" points="239.738,148.555 247.49,148.374 259.808,147.833 273.871,146.932 271.999,152.193 
		278.019,151.559 276.878,154.204 276.577,155.645 275.736,160.394 267.743,174.937 267.624,176.018 267.683,177.28 
		268.463,180.224 268.523,181.606 255.303,182.328 244.749,182.689 244.606,177.568 241.542,176.559 241.42,159.492 
		241.121,156.788 	"/>
</g>
<g id="Louisiana_1_">
	<radialGradient id="SVGID_22_" cx="266.6196" cy="201.5063" r="20.3176" gradientUnits="userSpaceOnUse">
		<stop  offset="0" style="stop-color:#A5B765;stop-opacity:0.75"/>
		<stop  offset="0.9447" style="stop-color:#A5B765;stop-opacity:0.9862"/>
		<stop  offset="1" style="stop-color:#A5B765"/>
	</radialGradient>
	<polygon fill="url(#SVGID_22_)" points="244.874,183.808 255.554,183.447 268.774,182.726 269.075,185.128 271.299,189.216 
		266.972,196.668 265.374,202.568 281.996,201.535 281.276,204.66 284.041,209.168 283.618,209.648 281.454,208.928 278.15,208.025 
		276.767,209.948 277.612,210.911 280.372,210.73 284.879,213.075 283.499,215.897 288.366,217.881 287.043,220.287 
		281.249,217.318 280.732,218.304 279.653,220.165 271.299,219.562 269.617,217.1 266.732,214.816 262.765,215.056 263.126,216.558 
		261.024,217.1 252.009,215.238 247.053,215.978 248.555,212.25 249.874,202.693 245.175,193.723 	"/>
</g>
<g id="Wisconsin_1_">
	<radialGradient id="SVGID_23_" cx="268.9702" cy="63.5454" r="20.5386" gradientUnits="userSpaceOnUse">
		<stop  offset="0" style="stop-color:#A5B765;stop-opacity:0.75"/>
		<stop  offset="0.9447" style="stop-color:#A5B765;stop-opacity:0.9862"/>
		<stop  offset="1" style="stop-color:#A5B765"/>
	</radialGradient>
	<polygon fill="url(#SVGID_23_)" points="254.398,44.481 255.249,45.235 262.631,41.911 263.292,42.392 262.33,45.278 
		263.593,44.917 268.22,47.681 281.381,50.264 286.249,58.195 284.807,59.879 283.725,63.184 284.747,63.246 285.888,61.502 
		287.51,60.18 288.351,61.441 287.571,63.845 287.75,66.972 286.791,68.414 285.947,75.503 286.068,78.689 286.608,79.952 
		287.271,83.739 267.019,85.18 265.374,83.694 262.499,75.902 261.086,71.31 250.582,63.818 251.666,57.568 249.589,54.952 
		250.551,53.232 253.166,51.901 253.255,45.562 	"/>
</g>
<g id="Illinois_1_">
	<radialGradient id="SVGID_24_" cx="277.1235" cy="112.0957" r="22.0901" gradientUnits="userSpaceOnUse">
		<stop  offset="0" style="stop-color:#D5D6C3;stop-opacity:0.6"/>
		<stop  offset="0.9447" style="stop-color:#D5D6C3;stop-opacity:0.9779"/>
		<stop  offset="1" style="stop-color:#D5D6C3"/>
	</radialGradient>
	<polygon fill="url(#SVGID_24_)" points="261.749,106.193 264.818,104.86 266.874,98.443 269.999,95.652 271.166,89.652 
		267.999,86.235 287.249,84.901 287.657,87.675 288.314,88.876 289.749,92.541 292.499,122.041 289.874,126.791 289.997,134.007 
		284.374,138.694 282.124,139.291 272.749,128.041 274.374,122.166 269.374,121.041 262.999,107.694 	"/>
</g>
<g id="Mississippi_1_">
	<radialGradient id="SVGID_25_" cx="280.0903" cy="184.6167" r="19.3291" gradientUnits="userSpaceOnUse">
		<stop  offset="0" style="stop-color:#75AFA5;stop-opacity:0.75"/>
		<stop  offset="0.9447" style="stop-color:#75AFA5;stop-opacity:0.9862"/>
		<stop  offset="1" style="stop-color:#75AFA5"/>
	</radialGradient>
	<polygon fill="url(#SVGID_25_)" points="269.374,180.068 268.504,176.62 269.163,174.518 275.749,162.568 292.124,160.818 
		291.557,191.283 293.539,206.066 289.828,206.428 284.874,208.415 282.531,204.143 283.251,200.518 266.642,201.602 
		268.083,196.452 272.665,189.652 270.124,184.943 	"/>
</g>
<g id="Tennessee_1_">
	<radialGradient id="SVGID_26_" cx="308.6235" cy="149.6309" r="24.2628" gradientUnits="userSpaceOnUse">
		<stop  offset="0" style="stop-color:#D5D6C3;stop-opacity:0.6"/>
		<stop  offset="0.9447" style="stop-color:#D5D6C3;stop-opacity:0.9779"/>
		<stop  offset="1" style="stop-color:#D5D6C3"/>
	</radialGradient>
	<polygon fill="url(#SVGID_26_)" points="276.332,161.235 277.997,154.106 280.749,146.541 293.499,145.541 293.249,143.666 
		328.918,139.679 340.915,138.027 336.249,143.915 334.342,144.068 322.749,153.415 322.828,156.628 	"/>
</g>
<g id="Kentucky_1_">
	<radialGradient id="SVGID_27_" cx="309.2944" cy="130.8867" r="22.4357" gradientUnits="userSpaceOnUse">
		<stop  offset="0" style="stop-color:#D5D6C3;stop-opacity:0.6"/>
		<stop  offset="0.9447" style="stop-color:#D5D6C3;stop-opacity:0.9779"/>
		<stop  offset="1" style="stop-color:#D5D6C3"/>
	</radialGradient>
	<polygon fill="url(#SVGID_27_)" points="281.124,145.486 282.874,144.068 283.245,140.368 285.54,139.526 291.207,134.651 
		291.374,131.694 295.457,130.526 297.79,131.694 307.207,128.318 307.717,125.287 314.874,119.226 314.53,116.287 317.812,116.764 
		319.137,118.747 326.946,119.468 328.691,117.904 331.455,120.791 331.515,123.374 337.465,128.603 330.249,137.041 
		327.73,138.637 291.793,142.726 292.153,144.587 	"/>
</g>
<g id="Indiana_1_">
	<radialGradient id="SVGID_28_" cx="302.3066" cy="110.271" r="16.4391" gradientUnits="userSpaceOnUse">
		<stop  offset="0" style="stop-color:#D5D6C3;stop-opacity:0.6"/>
		<stop  offset="0.9447" style="stop-color:#D5D6C3;stop-opacity:0.9779"/>
		<stop  offset="1" style="stop-color:#D5D6C3"/>
	</radialGradient>
	<polygon fill="url(#SVGID_28_)" points="291.124,130.443 290.999,127.068 293.795,122.17 291.034,92.541 294.639,92.482 
		295.901,91.58 299.746,91.219 309.528,89.958 310.25,90.498 313.615,118.863 306.579,124.879 306.097,127.463 297.945,130.584 
		295.417,129.38 	"/>
</g>
<g id="Ohio_3_">
	<radialGradient id="SVGID_29_" cx="307.5317" cy="182.8154" r="19.9546" gradientUnits="userSpaceOnUse">
		<stop  offset="0" style="stop-color:#D5D6C3;stop-opacity:0.6"/>
		<stop  offset="0.9447" style="stop-color:#D5D6C3;stop-opacity:0.9779"/>
		<stop  offset="1" style="stop-color:#D5D6C3"/>
	</radialGradient>
	<polygon fill="url(#SVGID_29_)" points="312.579,158.777 320.749,184.818 320.212,189.186 322.315,197.059 301.522,199.401 
		300.741,200.664 302.905,202.827 302.664,205.472 299.899,206.854 298.217,202.946 297.375,203.248 297.135,206.134 
		294.732,206.012 292.749,191.229 293.499,160.818 	"/>
</g>
<g>
	<radialGradient id="SVGID_30_" cx="280.6802" cy="37.0903" r="2.7474" gradientUnits="userSpaceOnUse">
		<stop  offset="0" style="stop-color:#D5D6C3;stop-opacity:0.6"/>
		<stop  offset="0.9447" style="stop-color:#D5D6C3;stop-opacity:0.9779"/>
		<stop  offset="1" style="stop-color:#D5D6C3"/>
	</radialGradient>
	<polygon fill="url(#SVGID_30_)" points="281.392,36.596 283.622,34.922 281.705,34.552 279.039,35.791 277.738,37.71 
		279.349,39.628 	"/>
</g>
<g>
	<radialGradient id="SVGID_31_" cx="288.5488" cy="47.4077" r="17.4757" gradientUnits="userSpaceOnUse">
		<stop  offset="0" style="stop-color:#D5D6C3;stop-opacity:0.6"/>
		<stop  offset="0.9447" style="stop-color:#D5D6C3;stop-opacity:0.9779"/>
		<stop  offset="1" style="stop-color:#D5D6C3"/>
	</radialGradient>
	<polygon fill="url(#SVGID_31_)" points="300.103,46.569 303.945,46.942 305.927,48.305 307.352,46.695 311.007,46.508 
		311.255,45.703 309.086,44.031 307.908,41.427 305.927,41.86 303.076,41.615 303.016,39.322 294.342,41.985 292.05,44.092 
		289.57,43.226 286.783,43.535 282.941,40.128 280.835,39.879 279.163,41.738 279.101,39.817 277.18,37.65 265.842,44.898 
		268.749,46.791 281.999,49.166 287.124,57.166 289.074,52.456 293.413,49.792 292.421,51.774 293.039,51.836 294.775,50.04 
		298.927,47.934 	"/>
</g>
<g>
	<radialGradient id="SVGID_32_" cx="311.0386" cy="69.896" r="17.9126" gradientUnits="userSpaceOnUse">
		<stop  offset="0" style="stop-color:#D5D6C3;stop-opacity:0.6"/>
		<stop  offset="0.9447" style="stop-color:#D5D6C3;stop-opacity:0.9779"/>
		<stop  offset="1" style="stop-color:#D5D6C3"/>
	</radialGradient>
	<polygon fill="url(#SVGID_32_)" points="324.351,69.805 322.608,65.478 320.746,64.518 317.92,66.32 317.741,68.003 
		316.358,69.747 314.315,68.726 314.375,66.5 315.696,65.898 317.741,62.113 317.561,58.867 316.958,57.004 315.937,55.984 
		316.177,55.201 316.778,55.082 316.778,54.482 315.096,52.619 310.288,50.874 306.082,49.434 304.939,50.212 303.978,51.596 
		302.416,55.201 302.716,57.128 302.416,59.108 301.634,59.168 301.031,57.907 300.793,56.226 298.932,58.447 297.067,61.271 
		297.428,62.476 297.369,64.816 296.647,66.681 296.105,67.342 296.344,72.27 298.33,75.935 299.17,77.858 299.531,82.247 
		298.27,86.451 296.166,90.358 310.168,88.737 310.89,89.276 320.383,87.595 321.886,84.468 321.947,82.606 322.369,81.584 
		323.568,80.442 323.509,79.12 324.051,77.978 324.71,77.618 325.073,78.82 325.854,78.038 325.972,74.134 	"/>
</g>
<g id="Florida_1_">
	<radialGradient id="SVGID_33_" cx="336.9731" cy="222.6021" r="31.0984" gradientUnits="userSpaceOnUse">
		<stop  offset="0" style="stop-color:#75AFA5;stop-opacity:0.75"/>
		<stop  offset="0.9447" style="stop-color:#75AFA5;stop-opacity:0.9862"/>
		<stop  offset="1" style="stop-color:#75AFA5"/>
	</radialGradient>
	<polygon fill="url(#SVGID_33_)" points="304.166,202.735 301.825,200.354 322.619,198.008 324.332,201.068 345.972,199.468 
		347.124,200.915 349.003,200.102 349.062,198.78 348.704,196.316 349.499,196.166 352.124,196.915 354.992,202.885 
		361.542,215.806 370.437,230.348 370.857,231.31 371.698,236.539 372.121,241.106 370.798,248.136 368.033,249.038 366.77,248.92 
		363.224,246.334 361.365,243.509 357.876,242.729 354.153,237.62 353.85,234.675 353.429,234.075 352.829,234.136 353.008,235.276 
		351.566,235.035 347.361,229.687 349.403,226.022 348.744,224.88 347.842,225.541 347.12,227.404 345.438,226.022 346.279,219.292 
		342.433,213.584 332.698,205.951 330.474,206.191 326.386,210.038 321.519,211.059 321.158,209.014 315.33,206.13 310.702,205.469 
		307.336,205.892 303.49,207.273 	"/>
</g>
<g id="Ohio_2_">
	<radialGradient id="SVGID_34_" cx="327.4414" cy="101.1812" r="17.2098" gradientUnits="userSpaceOnUse">
		<stop  offset="0" style="stop-color:#D5D6C3;stop-opacity:0.6"/>
		<stop  offset="0.9447" style="stop-color:#D5D6C3;stop-opacity:0.9779"/>
		<stop  offset="1" style="stop-color:#D5D6C3"/>
	</radialGradient>
	<polygon fill="url(#SVGID_34_)" points="311.384,90.222 320.878,88.54 328.512,90.884 333.56,89.08 341.492,82.891 343.499,95.041 
		342.319,105.768 336.75,113.812 334.816,113.271 334.451,117.247 332.057,119.471 329.233,116.524 326.287,118.389 
		319.679,117.366 318.354,115.384 314.389,115.144 	"/>
</g>
<g id="Georgia_1_">
	<radialGradient id="SVGID_35_" cx="334.7368" cy="177.9712" r="21.3869" gradientUnits="userSpaceOnUse">
		<stop  offset="0" style="stop-color:#D5D6C3;stop-opacity:0.6"/>
		<stop  offset="0.9447" style="stop-color:#D5D6C3;stop-opacity:0.9779"/>
		<stop  offset="1" style="stop-color:#D5D6C3"/>
	</radialGradient>
	<polygon fill="url(#SVGID_35_)" points="313.648,158.62 332.374,156.291 331.249,159.415 349.036,174.065 350.237,176.95 
		351.739,177.73 353.482,181.516 355.826,182.058 354.384,184.521 351.8,195.64 348.915,194.978 347.579,196.12 348.06,199.246 
		347.232,199.605 346.091,197.922 324.916,199.652 323.384,196.901 321.281,189.027 322.082,184.818 	"/>
</g>
<g id="North_Carolina_1_">
	<radialGradient id="SVGID_36_" cx="357.0801" cy="145.105" r="25.4088" gradientUnits="userSpaceOnUse">
		<stop  offset="0" style="stop-color:#75AFA5;stop-opacity:0.75"/>
		<stop  offset="0.9447" style="stop-color:#75AFA5;stop-opacity:0.9862"/>
		<stop  offset="1" style="stop-color:#75AFA5"/>
	</radialGradient>
	<polygon fill="url(#SVGID_36_)" points="324.499,156.291 324.287,153.967 334.987,145.012 336.85,144.954 342.624,137.666 
		386.249,130.415 387.449,133.535 382.34,135.879 381.801,136.36 381.92,137.021 389.13,135.938 389.874,138.568 388.71,139.364 
		387.869,141.287 385.949,141.828 384.111,140.608 382.788,142.168 384.745,143.81 384.504,144.894 382.461,146.334 
		382.811,147.131 386.607,145.434 387.124,146.255 385.526,148.379 381.68,149.64 381.021,149.399 376.392,156.191 376.392,158.053 
		371.344,159.795 361.065,152.464 352.353,153.848 352.172,153.666 349.649,151.082 338.772,152.584 333.905,154.988 	"/>
</g>
<g id="Virginia_1_">
	<radialGradient id="SVGID_37_" cx="357.8765" cy="121.9097" r="23.163" gradientUnits="userSpaceOnUse">
		<stop  offset="0" style="stop-color:#75AFA5;stop-opacity:0.75"/>
		<stop  offset="0.9447" style="stop-color:#75AFA5;stop-opacity:0.9862"/>
		<stop  offset="1" style="stop-color:#75AFA5"/>
	</radialGradient>
	<polygon fill="url(#SVGID_37_)" points="329.624,138.486 331.262,137.304 338.252,129.534 340.715,132.018 352.249,127.318 
		354.916,116.318 357.499,116.985 362.416,109.152 362.957,106.278 363.484,105.938 366.582,107.652 367.261,105.333 
		372.009,107.976 373.089,108.396 373.45,109.42 373.03,110.681 372.368,111.041 372.247,114.168 374.653,113.505 381.323,116.81 
		381.142,118.614 380.06,119.096 374.712,115.608 374.653,115.728 379.219,119.394 381.44,120.716 382.044,120.655 382.343,121.798 
		382.224,122.398 381.624,121.92 381.023,121.798 380.782,121.978 381.323,122.579 381.023,123.24 378.558,121.619 377.897,121.498 
		379.76,123.122 381.023,123.602 381.682,123.42 382.525,124.263 382.764,124.863 382.163,125.644 381.262,125.344 380.601,125.104 
		380,124.562 378.318,124.022 377.717,123.481 376.696,123.602 374.832,123.72 374.653,124.022 377.775,124.503 380.241,125.644 
		380.902,126.006 381.984,126.606 383.005,125.884 385.348,125.945 385.889,127.987 386.13,129.249 	"/>
</g>
<g id="West_Virginia_1_">
	<radialGradient id="SVGID_38_" cx="349.6235" cy="113.4541" r="17.0881" gradientUnits="userSpaceOnUse">
		<stop  offset="0" style="stop-color:#D5D6C3;stop-opacity:0.6"/>
		<stop  offset="0.9447" style="stop-color:#D5D6C3;stop-opacity:0.9779"/>
		<stop  offset="1" style="stop-color:#D5D6C3"/>
	</radialGradient>
	<polygon fill="url(#SVGID_38_)" points="332.666,120.273 332.726,120.333 335.37,118.109 335.61,114.383 337.294,114.924 
		343.363,106.631 344.387,96.237 345.948,105.128 353.58,103.748 354.499,109.694 359.499,105.041 361.249,104.874 363.166,103.291 
		365.839,102.666 366.582,104.958 365.916,106.625 363.082,104.874 362.166,105.458 361.499,108.625 357.124,115.943 
		354.24,115.166 351.294,126.344 341.08,130.671 332.726,122.858 	"/>
</g>
<g id="South_Carolina_1_">
	<radialGradient id="SVGID_39_" cx="351.645" cy="166.6992" r="16.89" gradientUnits="userSpaceOnUse">
		<stop  offset="0" style="stop-color:#D5D6C3;stop-opacity:0.6"/>
		<stop  offset="0.9447" style="stop-color:#D5D6C3;stop-opacity:0.9779"/>
		<stop  offset="1" style="stop-color:#D5D6C3"/>
	</radialGradient>
	<polygon fill="url(#SVGID_39_)" points="338.612,153.863 349.488,152.36 352.192,155.125 360.905,153.744 370.749,160.666 
		370.583,161.171 367.098,167.602 365.595,170.305 360.007,176.136 358.802,176.495 358.561,177.096 358.684,178.419 
		358.023,178.899 356.939,178.659 356.64,179.26 357.241,179.74 356.233,181.038 354.371,180.556 352.627,177.022 351.125,176.241 
		349.749,173.166 332.542,159.128 333.999,156.415 	"/>
</g>
<g id="Pennsylvania_1_">
	<radialGradient id="SVGID_40_" cx="364.938" cy="89.5024" r="18.8114" gradientUnits="userSpaceOnUse">
		<stop  offset="0" style="stop-color:#75AFA5;stop-opacity:0.75"/>
		<stop  offset="0.9447" style="stop-color:#75AFA5;stop-opacity:0.9862"/>
		<stop  offset="1" style="stop-color:#75AFA5"/>
	</radialGradient>
	<polygon fill="url(#SVGID_40_)" points="342.618,82.54 347.485,78.874 347.966,81.397 379.156,75.027 379.936,75.791 
		380.999,76.291 382.249,78.854 385.104,80.136 382.882,84.344 383.663,85.544 383.001,86.746 383.686,88.729 387.258,91.743 
		385.226,94.137 385.226,94.739 383.422,96.122 381.624,95.791 380.749,97.229 366.624,100.291 354.061,102.729 346.811,103.978 
		344.811,94.978 	"/>
</g>
<g id="Washington_DC_1_">
	<radialGradient id="SVGID_41_" cx="373.8052" cy="108.2173" r="0.9006" gradientUnits="userSpaceOnUse">
		<stop  offset="0" style="stop-color:#D5D6C3;stop-opacity:0.6"/>
		<stop  offset="0.9447" style="stop-color:#D5D6C3;stop-opacity:0.9779"/>
		<stop  offset="1" style="stop-color:#D5D6C3"/>
	</radialGradient>
	<polygon fill="url(#SVGID_41_)" points="373.031,107.64 373.835,107.206 374.58,107.703 373.999,109.229 373.916,108.541 
		373.587,107.948 	"/>
</g>
<g id="Delaware_1_">
	<radialGradient id="SVGID_42_" cx="385.5615" cy="102.9761" r="5.2959" gradientUnits="userSpaceOnUse">
		<stop  offset="0" style="stop-color:#D5D6C3;stop-opacity:0.6"/>
		<stop  offset="0.9447" style="stop-color:#D5D6C3;stop-opacity:0.9779"/>
		<stop  offset="1" style="stop-color:#D5D6C3"/>
	</radialGradient>
	<polygon fill="url(#SVGID_42_)" points="381.686,97.854 382.007,96.567 383.249,96.978 382.812,98.303 383.495,99.602 
		385.475,101.958 386.592,104.186 388.079,105.796 388.757,106.108 389.437,108.268 384.732,109.385 	"/>
</g>
<g id="New_Jersey_1_">
	<radialGradient id="SVGID_43_" cx="388.6987" cy="91.9517" r="9.0585" gradientUnits="userSpaceOnUse">
		<stop  offset="0" style="stop-color:#A5B765;stop-opacity:0.75"/>
		<stop  offset="0.9447" style="stop-color:#A5B765;stop-opacity:0.9862"/>
		<stop  offset="1" style="stop-color:#A5B765"/>
	</radialGradient>
	<polygon fill="url(#SVGID_43_)" points="384.252,96.248 386.117,94.927 386.117,94.327 388.217,91.559 384.432,88.496 
		383.71,86.812 384.371,85.611 383.591,84.411 385.813,80.203 392.304,82.307 392.125,84.95 390.984,86.212 390.984,87.955 
		393.327,88.076 393.505,88.857 393.688,91.379 393.806,93.244 393.747,93.906 393.505,94.987 393.265,95.588 392.726,96.968 
		392.244,98.952 391.404,100.035 391.103,100.635 390.442,102.558 389.96,103.64 389.36,103.7 389.54,102.018 389.301,101.357 
		387.437,101.658 385.093,100.336 383.591,98.351 	"/>
</g>
<g id="Maryland_4_">
	<radialGradient id="SVGID_44_" cx="371.7231" cy="106.978" r="13.8468" gradientUnits="userSpaceOnUse">
		<stop  offset="0" style="stop-color:#A5B765;stop-opacity:0.75"/>
		<stop  offset="0.9447" style="stop-color:#A5B765;stop-opacity:0.9862"/>
		<stop  offset="1" style="stop-color:#A5B765"/>
	</radialGradient>
	<polygon fill="url(#SVGID_44_)" points="389.031,109.067 384.186,110.166 380.936,98.166 366.857,101.136 354.236,103.54 
		354.957,108.027 359.124,104.027 360.916,104.068 362.832,102.708 366.332,101.874 367.416,104.541 372.166,107.208 
		373.749,106.458 375.249,107.478 374.374,109.666 373.999,110.729 373.105,111.472 373.061,113.291 374.749,112.854 
		380.999,115.791 380.617,114.235 379.596,111.832 378.395,110.63 377.673,108.646 377.612,107.443 377.673,106.304 
		377.612,105.522 377.734,104.862 377.673,103.899 377.673,103.478 378.635,101.916 379.716,101.136 380.138,101.436 
		379.776,101.916 379.236,102.518 378.935,104.38 379.356,105.041 378.755,106.003 378.755,107.265 379.596,108.226 
		380.799,108.948 380.678,109.668 380.378,110.871 380.799,111.591 381.4,111.892 382.601,111.352 383.863,112.373 383.323,113.035 
		383.442,113.635 384.224,115.136 385.965,114.716 387.83,113.035 388.91,111.352 389.21,110.088 	"/>
</g>
<g id="Maryland_3_">
	<radialGradient id="SVGID_45_" cx="386.7456" cy="118.6846" r="3.5004" gradientUnits="userSpaceOnUse">
		<stop  offset="0" style="stop-color:#A5B765;stop-opacity:0.75"/>
		<stop  offset="0.9447" style="stop-color:#A5B765;stop-opacity:0.9862"/>
		<stop  offset="1" style="stop-color:#A5B765"/>
	</radialGradient>
	<polygon fill="url(#SVGID_45_)" points="385.875,115.68 385.754,116.761 385.153,120.367 385.153,122.469 385.814,123.372 
		387.618,118.863 388.219,115.5 388.338,113.998 387.017,114.478 	"/>
</g>
<g id="Vermont_1_">
	<radialGradient id="SVGID_46_" cx="393.3145" cy="50.9077" r="9.819" gradientUnits="userSpaceOnUse">
		<stop  offset="0" style="stop-color:#75AFA5;stop-opacity:0.75"/>
		<stop  offset="0.9447" style="stop-color:#75AFA5;stop-opacity:0.9862"/>
		<stop  offset="1" style="stop-color:#75AFA5"/>
	</radialGradient>
	<polygon fill="url(#SVGID_46_)" points="386.794,41.952 399.111,38.648 399.835,42.974 397.059,46.339 397.48,48.263 
		396.999,56.255 398.02,62.025 392.865,63.168 	"/>
</g>
<g id="Massachusettes_1_">
	<radialGradient id="SVGID_47_" cx="405.7402" cy="64.6099" r="10.1919" gradientUnits="userSpaceOnUse">
		<stop  offset="0" style="stop-color:#D5D6C3;stop-opacity:0.6"/>
		<stop  offset="0.9447" style="stop-color:#D5D6C3;stop-opacity:0.9779"/>
		<stop  offset="1" style="stop-color:#D5D6C3"/>
	</radialGradient>
	<polygon fill="url(#SVGID_47_)" points="393.061,63.791 398.712,62.438 406.705,60.575 408.029,59.075 409.11,57.992 
		411.874,59.556 410.55,61.059 409.47,63.162 410.492,64.122 411.812,63.879 413.016,65.024 412.954,65.983 414.158,66.406 
		415.78,67.787 417.643,67.006 417.882,65.383 418.544,65.924 418.544,67.787 414.278,70.252 413.977,68.388 411.374,71.229 
		407.874,66.729 404.686,67.666 392.936,70.104 	"/>
</g>
<g id="Connecticut_1_">
	<radialGradient id="SVGID_48_" cx="399.5718" cy="74.7881" r="6.4268" gradientUnits="userSpaceOnUse">
		<stop  offset="0" style="stop-color:#D5D6C3;stop-opacity:0.6"/>
		<stop  offset="0.9447" style="stop-color:#D5D6C3;stop-opacity:0.9779"/>
		<stop  offset="1" style="stop-color:#D5D6C3"/>
	</radialGradient>
	<polygon fill="url(#SVGID_48_)" points="393.118,70.912 404.645,68.389 406.026,73.318 405.726,74.88 404.777,75.239 
		403.513,76.021 402.795,76.38 400.871,76.86 399.305,77.522 397.684,78.905 394.441,81.187 393.778,80.288 394.8,79.265 
		394.379,77.942 	"/>
</g>
<g id="New_Hampshire_1_">
	<radialGradient id="SVGID_49_" cx="403.8394" cy="48.5786" r="10.2734" gradientUnits="userSpaceOnUse">
		<stop  offset="0" style="stop-color:#D5D6C3;stop-opacity:0.6"/>
		<stop  offset="0.9447" style="stop-color:#D5D6C3;stop-opacity:0.9779"/>
		<stop  offset="1" style="stop-color:#D5D6C3"/>
	</radialGradient>
	<polygon fill="url(#SVGID_49_)" points="398.701,61.766 397.742,56.184 398.223,48.191 397.936,46.415 400.624,43.041 
		399.499,36.166 401.58,35.392 407.113,52.577 408.673,54.021 408.735,54.622 409.937,55.584 409.574,57.258 408.723,57.318 
		406.319,59.901 	"/>
</g>
<g id="Maine_1_">
	<radialGradient id="SVGID_50_" cx="415.9897" cy="32.5376" r="18.7273" gradientUnits="userSpaceOnUse">
		<stop  offset="0" style="stop-color:#D5D6C3;stop-opacity:0.6"/>
		<stop  offset="0.9447" style="stop-color:#D5D6C3;stop-opacity:0.9779"/>
		<stop  offset="1" style="stop-color:#D5D6C3"/>
	</radialGradient>
	<polygon fill="url(#SVGID_50_)" points="401.836,34.61 402.92,34.31 403.402,33.468 404.242,30.404 405.624,22.11 405.204,19.526 
		408.087,10.993 409.29,10.934 409.652,12.194 411.092,12.917 412.836,11.414 413.918,10.452 414.638,10.152 415.3,10.333 
		416.562,10.872 418.365,11.894 421.068,20.128 422.33,24.574 422.932,24.516 424.855,24.695 425.276,24.996 425.755,26.858 
		426.117,28.181 426.778,28.72 427.257,28.181 429.423,29.624 428.642,30.645 430.143,31.486 426.417,35.452 426.117,35.392 
		425.215,35.452 424.794,36.114 424.434,36.414 422.39,36.534 421.43,37.676 421.25,38.336 421.37,38.937 420.829,39.239 
		419.568,39.239 419.325,38.276 418.245,38.636 418.544,39.9 418.425,41.16 417.221,43.503 415,45.788 413.616,46.569 
		411.934,47.35 411.392,50.055 411.212,51.798 410.793,53.66 410.011,54.923 409.249,54.229 409.174,53.541 407.488,52.097 
		407.308,50.836 	"/>
</g>
<g id="Rhode_Island_1_">
	<radialGradient id="SVGID_51_" cx="407.4111" cy="71.1655" r="2.9237" gradientUnits="userSpaceOnUse">
		<stop  offset="0" style="stop-color:#D5D6C3;stop-opacity:0.6"/>
		<stop  offset="0.9447" style="stop-color:#D5D6C3;stop-opacity:0.9779"/>
		<stop  offset="1" style="stop-color:#D5D6C3"/>
	</radialGradient>
	<polygon fill="url(#SVGID_51_)" points="405.499,68.229 407.585,67.5 409.324,69.664 408.487,70.565 409.148,72.668 409.027,73.33 
		406.622,74.832 406.811,73.229 	"/>
</g>
<g id="New_York_4_">
	<radialGradient id="SVGID_52_" cx="370.7935" cy="62.0225" r="21.49" gradientUnits="userSpaceOnUse">
		<stop  offset="0" style="stop-color:#D5D6C3;stop-opacity:0.6"/>
		<stop  offset="0.9447" style="stop-color:#D5D6C3;stop-opacity:0.9779"/>
		<stop  offset="1" style="stop-color:#D5D6C3"/>
	</radialGradient>
	<polygon fill="url(#SVGID_52_)" points="347.657,78.074 352.946,72.003 352.946,71.344 352.166,69.96 350.782,67.437 
		350.782,67.376 352.044,66.655 353.306,66.115 354.628,65.574 357.031,65.093 359.554,64.973 361.178,65.633 365.446,64.732 
		369.472,61.186 369.892,60.587 369.833,59.926 369.592,59.323 369.531,58.902 369.531,57.4 369.652,56.8 369.11,55.718 
		367.97,55.238 370.915,50.971 372.897,47.666 375.121,45.263 386.118,42.316 392.249,63.915 392.132,70.639 393.635,78.03 
		393.93,78.914 392.908,80.176 393.811,81.354 392.811,81.729 385.276,79.336 382.813,78.254 381.491,75.668 380.29,75.249 
		379.388,74.348 379.328,74.228 348.138,80.597 	"/>
</g>
<g id="New_York_3_">
	<radialGradient id="SVGID_53_" cx="398.8799" cy="82.3022" r="5.0585" gradientUnits="userSpaceOnUse">
		<stop  offset="0" style="stop-color:#D5D6C3;stop-opacity:0.6"/>
		<stop  offset="0.9447" style="stop-color:#D5D6C3;stop-opacity:0.9779"/>
		<stop  offset="1" style="stop-color:#D5D6C3"/>
	</radialGradient>
	<polygon fill="url(#SVGID_53_)" points="394.67,85.486 393.409,86.088 392.81,85.848 392.869,84.345 394.192,82.963 398.036,80.92 
		401.764,79.718 403.746,78.876 404.347,78.516 404.95,79.237 403.746,80.318 402.963,80.92 401.703,81.82 398.459,83.383 	"/>
</g>
<g id="Hawaii_14_">
	<radialGradient id="SVGID_54_" cx="278.1069" cy="271.1567" r="0.7713" gradientUnits="userSpaceOnUse">
		<stop  offset="0" style="stop-color:#D5D6C3;stop-opacity:0.6"/>
		<stop  offset="0.9447" style="stop-color:#D5D6C3;stop-opacity:0.9779"/>
		<stop  offset="1" style="stop-color:#D5D6C3"/>
	</radialGradient>
	<polygon fill="url(#SVGID_54_)" points="277.797,272.055 278.667,270.878 278.725,270.258 277.489,271.372 	"/>
</g>
<g id="Hawaii_13_">
	<radialGradient id="SVGID_55_" cx="282.5688" cy="269.9175" r="1.6348" gradientUnits="userSpaceOnUse">
		<stop  offset="0" style="stop-color:#D5D6C3;stop-opacity:0.6"/>
		<stop  offset="0.9447" style="stop-color:#D5D6C3;stop-opacity:0.9779"/>
		<stop  offset="1" style="stop-color:#D5D6C3"/>
	</radialGradient>
	<polygon fill="url(#SVGID_55_)" points="280.772,269.948 283.25,271.372 284.366,269.391 282.506,268.462 	"/>
</g>
<g id="Hawaii_12_">
	<radialGradient id="SVGID_56_" cx="294.2778" cy="274.4399" r="1.9159" gradientUnits="userSpaceOnUse">
		<stop  offset="0" style="stop-color:#D5D6C3;stop-opacity:0.6"/>
		<stop  offset="0.9447" style="stop-color:#D5D6C3;stop-opacity:0.9779"/>
		<stop  offset="1" style="stop-color:#D5D6C3"/>
	</radialGradient>
	<polygon fill="url(#SVGID_56_)" points="294.094,272.737 292.17,273.541 292.17,274.533 293.348,275.772 295.145,276.143 
		296.385,275.772 295.826,274.533 	"/>
</g>
<g id="Hawaii_11_">
	<radialGradient id="SVGID_57_" cx="300.8755" cy="277.1353" r="1.4884" gradientUnits="userSpaceOnUse">
		<stop  offset="0" style="stop-color:#D5D6C3;stop-opacity:0.6"/>
		<stop  offset="0.9447" style="stop-color:#D5D6C3;stop-opacity:0.9779"/>
		<stop  offset="1" style="stop-color:#D5D6C3"/>
	</radialGradient>
	<polygon fill="url(#SVGID_57_)" points="298.864,277.383 302.27,277.754 302.887,276.824 299.297,276.516 	"/>
</g>
<g id="Hawaii_10_">
	<radialGradient id="SVGID_58_" cx="301.5874" cy="279.582" r="0.8029" gradientUnits="userSpaceOnUse">
		<stop  offset="0" style="stop-color:#D5D6C3;stop-opacity:0.6"/>
		<stop  offset="0.9447" style="stop-color:#D5D6C3;stop-opacity:0.9779"/>
		<stop  offset="1" style="stop-color:#D5D6C3"/>
	</radialGradient>
	<polygon fill="url(#SVGID_58_)" points="300.657,278.932 301.776,280.232 302.518,279.551 301.958,278.932 	"/>
</g>
<g id="Hawaii_9_">
	<radialGradient id="SVGID_59_" cx="305.8623" cy="279.7368" r="2.1513" gradientUnits="userSpaceOnUse">
		<stop  offset="0" style="stop-color:#D5D6C3;stop-opacity:0.6"/>
		<stop  offset="0.9447" style="stop-color:#D5D6C3;stop-opacity:0.9779"/>
		<stop  offset="1" style="stop-color:#D5D6C3"/>
	</radialGradient>
	<polygon fill="url(#SVGID_59_)" points="305.43,278.807 304.377,278.064 303.321,278.869 304.996,280.108 305.059,280.108 
		305.678,281.409 307.785,280.852 308.404,280.232 306.732,278.684 	"/>
</g>
<g id="Hawaii_8_">
	<radialGradient id="SVGID_60_" cx="312.9888" cy="288.936" r="4.7969" gradientUnits="userSpaceOnUse">
		<stop  offset="0" style="stop-color:#D5D6C3;stop-opacity:0.6"/>
		<stop  offset="0.9447" style="stop-color:#D5D6C3;stop-opacity:0.9779"/>
		<stop  offset="1" style="stop-color:#D5D6C3"/>
	</radialGradient>
	<polygon fill="url(#SVGID_60_)" points="314.786,286.117 311.625,284.816 310.015,283.825 309.642,284.444 310.263,285.746 
		308.528,288.102 309.705,290.825 309.518,292.748 311.564,294.047 314.042,291.569 317.45,290.021 	"/>
</g>
<g id="Alaska_30_">
	<radialGradient id="SVGID_61_" cx="2.9429" cy="330.646" r="2.6242" gradientUnits="userSpaceOnUse">
		<stop  offset="0" style="stop-color:#D5D6C3;stop-opacity:0.6"/>
		<stop  offset="0.9447" style="stop-color:#D5D6C3;stop-opacity:0.9779"/>
		<stop  offset="1" style="stop-color:#D5D6C3"/>
	</radialGradient>
	<polygon fill="url(#SVGID_61_)" points="5.886,328.942 4.523,328.385 1.178,331.049 0,332.907 2.541,331.791 5.576,329.622 	"/>
</g>
<g id="Alaska_29_">
	<radialGradient id="SVGID_62_" cx="9.2012" cy="328.2302" r="3.1173" gradientUnits="userSpaceOnUse">
		<stop  offset="0" style="stop-color:#D5D6C3;stop-opacity:0.6"/>
		<stop  offset="0.9447" style="stop-color:#D5D6C3;stop-opacity:0.9779"/>
		<stop  offset="1" style="stop-color:#D5D6C3"/>
	</radialGradient>
	<polygon fill="url(#SVGID_62_)" points="8.922,326.774 9.355,327.827 5.576,330.368 6.26,330.739 12.639,328.323 12.826,326.589 
		10.781,325.721 	"/>
</g>
<g id="Alaska_28_">
	<radialGradient id="SVGID_63_" cx="16.3242" cy="281.145" r="2.6673" gradientUnits="userSpaceOnUse">
		<stop  offset="0" style="stop-color:#D5D6C3;stop-opacity:0.6"/>
		<stop  offset="0.9447" style="stop-color:#D5D6C3;stop-opacity:0.9779"/>
		<stop  offset="1" style="stop-color:#D5D6C3"/>
	</radialGradient>
	<polygon fill="url(#SVGID_63_)" points="19.331,279.937 16.791,279.131 15.055,280.184 13.753,279.937 13.135,280.371 
		13.879,281.672 15.613,282.848 17.658,283.159 19.514,282.788 	"/>
</g>
<g id="Alaska_27_">
	<radialGradient id="SVGID_64_" cx="22.2739" cy="321.2905" r="2.7158" gradientUnits="userSpaceOnUse">
		<stop  offset="0" style="stop-color:#D5D6C3;stop-opacity:0.6"/>
		<stop  offset="0.9447" style="stop-color:#D5D6C3;stop-opacity:0.9779"/>
		<stop  offset="1" style="stop-color:#D5D6C3"/>
	</radialGradient>
	<polygon fill="url(#SVGID_64_)" points="21.313,319.834 19.083,322.065 19.145,323.305 21.127,323.428 22.118,322.313 
		25.341,322.065 25.465,320.081 24.473,319.153 	"/>
</g>
<g id="Alaska_26_">
	<radialGradient id="SVGID_65_" cx="65.5479" cy="300.9702" r="4.6477" gradientUnits="userSpaceOnUse">
		<stop  offset="0" style="stop-color:#D5D6C3;stop-opacity:0.6"/>
		<stop  offset="0.9447" style="stop-color:#D5D6C3;stop-opacity:0.9779"/>
		<stop  offset="1" style="stop-color:#D5D6C3"/>
	</radialGradient>
	<polygon fill="url(#SVGID_65_)" points="65.054,298.276 64.619,297.592 64,297.655 60.964,300.692 60.529,301.932 62.699,305.215 
		65.61,303.419 67.408,302.116 69.762,300.259 70.566,299.018 68.584,296.726 	"/>
</g>
<g id="Alaska_25_">
	<radialGradient id="SVGID_66_" cx="88.2549" cy="260.0181" r="66.9809" gradientUnits="userSpaceOnUse">
		<stop  offset="0" style="stop-color:#D5D6C3;stop-opacity:0.6"/>
		<stop  offset="0.9447" style="stop-color:#D5D6C3;stop-opacity:0.9779"/>
		<stop  offset="1" style="stop-color:#D5D6C3"/>
	</radialGradient>
	<polygon fill="url(#SVGID_66_)" points="158.11,284.581 150.24,284.336 128.557,268.229 125.954,270.087 125.954,273.494 
		123.598,276.655 113.81,268.787 108.113,271.016 88.348,204.973 82.584,203.361 58.361,204.104 58.548,202.061 51.361,201.07 
		50.615,200.697 47.83,199.521 46.217,202.061 41.51,203.672 36.059,207.575 32.527,210.672 28.314,216.868 23.977,216.868 
		22.18,220.399 29.615,230.374 34.758,230.993 35.006,231.612 33.828,238.117 28.5,237.498 28.624,234.092 27.322,233.905 
		15.365,239.851 19.95,247.781 23.729,249.454 31.285,250.569 36.244,246.544 37.421,248.712 35.314,250.263 37.484,254.909 
		29.801,260.175 26.395,258.564 18.896,268.724 18.404,270.272 21.746,274.92 26.642,275.6 26.702,278.326 22.057,276.777 
		20.569,278.449 24.845,283.84 31.846,281.672 32.775,293.071 33.456,293.567 38.289,290.099 43.615,294.558 51.485,290.284 
		49.503,294.122 48.386,301.25 38.349,310.729 37.732,312.648 38.102,313.268 36.244,314.073 34.633,312.648 29.678,315.932 
		26.021,319.03 25.898,320.331 26.517,320.516 30.357,319.649 32.961,315.87 34.014,315.87 34.014,317.171 41.758,315.128 
		54.336,303.788 65.363,290.159 61.706,289.042 61.955,286.69 65.549,283.592 69.017,274.92 72.859,271.203 75.956,273.059 
		74.842,273.617 73.541,273.059 70.566,275.662 71.062,279.256 69.762,282.848 69.762,286.319 71.434,287.184 77.445,281.858 
		78.559,279.937 81.348,280.061 83.142,275.91 80.849,271.573 81.47,271.14 97.395,275.91 111.209,274.671 113.006,272.872 
		114.246,273.432 114.801,275.476 122.238,278.264 128.062,280.558 129.857,278.636 127.256,276.777 128.122,274.671 
		129.425,274.732 131.22,277.706 133.017,278.512 133.575,277.645 129.301,271.449 129.797,271.326 132.831,274.486 
		134.566,276.777 137.541,277.396 141.629,281.239 142.188,283.22 144.726,283.284 145.596,283.284 145.596,283.9 151.11,286.937 
		151.168,290.84 152.41,291.83 153.029,291.521 153.4,287.931 154.889,287.683 159.039,294.683 160.154,294.62 161.145,289.973 	"/>
</g>
<g id="Alaska_24_">
	<radialGradient id="SVGID_67_" cx="68.4912" cy="294.7124" r="1.941" gradientUnits="userSpaceOnUse">
		<stop  offset="0" style="stop-color:#D5D6C3;stop-opacity:0.6"/>
		<stop  offset="0.9447" style="stop-color:#D5D6C3;stop-opacity:0.9779"/>
		<stop  offset="1" style="stop-color:#D5D6C3"/>
	</radialGradient>
	<polygon fill="url(#SVGID_67_)" points="66.291,295.612 67.656,296.354 68.461,295.301 70.195,294.868 70.691,293.507 
		67.656,293.071 	"/>
</g>
<g id="Alaska_23_">
	<radialGradient id="SVGID_68_" cx="132.9253" cy="281.8892" r="3.2056" gradientUnits="userSpaceOnUse">
		<stop  offset="0" style="stop-color:#D5D6C3;stop-opacity:0.6"/>
		<stop  offset="0.9447" style="stop-color:#D5D6C3;stop-opacity:0.9779"/>
		<stop  offset="1" style="stop-color:#D5D6C3"/>
	</radialGradient>
	<polygon fill="url(#SVGID_68_)" points="133.947,279.256 132.646,279.504 131.158,279.008 129.425,279.998 129.919,282.414 
		131.531,283.9 133.327,284.77 136.426,282.662 	"/>
</g>
<g id="Alaska_22_">
	<radialGradient id="SVGID_69_" cx="137.2617" cy="281.2061" r="3.6494" gradientUnits="userSpaceOnUse">
		<stop  offset="0" style="stop-color:#D5D6C3;stop-opacity:0.6"/>
		<stop  offset="0.9447" style="stop-color:#D5D6C3;stop-opacity:0.9779"/>
		<stop  offset="1" style="stop-color:#D5D6C3"/>
	</radialGradient>
	<polygon fill="url(#SVGID_69_)" points="138.47,285.016 139.338,285.264 140.451,282.354 139.832,281.361 136.859,278.142 
		134.133,277.148 134.072,277.768 137.789,282.539 	"/>
</g>
<g id="Alaska_21_">
	<radialGradient id="SVGID_70_" cx="137.355" cy="287.4033" r="3.5567" gradientUnits="userSpaceOnUse">
		<stop  offset="0" style="stop-color:#D5D6C3;stop-opacity:0.6"/>
		<stop  offset="0.9447" style="stop-color:#D5D6C3;stop-opacity:0.9779"/>
		<stop  offset="1" style="stop-color:#D5D6C3"/>
	</radialGradient>
	<polygon fill="url(#SVGID_70_)" points="136.549,284.026 135.31,283.592 134.072,284.706 134.133,285.326 136.734,288.487 
		140.017,291.214 140.638,290.78 139.274,287.558 	"/>
</g>
<g id="Alaska_20_">
	<radialGradient id="SVGID_71_" cx="141.9385" cy="288.9824" r="2.4684" gradientUnits="userSpaceOnUse">
		<stop  offset="0" style="stop-color:#D5D6C3;stop-opacity:0.6"/>
		<stop  offset="0.9447" style="stop-color:#D5D6C3;stop-opacity:0.9779"/>
		<stop  offset="1" style="stop-color:#D5D6C3"/>
	</radialGradient>
	<polygon fill="url(#SVGID_71_)" points="142.062,286.193 140.39,285.885 140.328,287.496 143.301,292.08 143.549,290.347 
		143.054,287.122 	"/>
</g>
<g id="Alaska_19_">
	<radialGradient id="SVGID_72_" cx="143.3027" cy="286.2261" r="2.2857" gradientUnits="userSpaceOnUse">
		<stop  offset="0" style="stop-color:#D5D6C3;stop-opacity:0.6"/>
		<stop  offset="0.9447" style="stop-color:#D5D6C3;stop-opacity:0.9779"/>
		<stop  offset="1" style="stop-color:#D5D6C3"/>
	</radialGradient>
	<polygon fill="url(#SVGID_72_)" points="145.283,284.274 143.363,284.151 140.824,284.706 142.125,285.452 144.23,288.301 
		145.781,286.874 	"/>
</g>
<g id="Alaska_18_">
	<radialGradient id="SVGID_73_" cx="149.7764" cy="293.1021" r="5.0056" gradientUnits="userSpaceOnUse">
		<stop  offset="0" style="stop-color:#D5D6C3;stop-opacity:0.6"/>
		<stop  offset="0.9447" style="stop-color:#D5D6C3;stop-opacity:0.9779"/>
		<stop  offset="1" style="stop-color:#D5D6C3"/>
	</radialGradient>
	<polygon fill="url(#SVGID_73_)" points="151.48,292.08 148.631,289.91 146.275,288.55 144.355,288.92 147.33,293.507 
		148.691,293.567 149.497,295.364 152.162,296.604 154.08,297.655 155.197,297.038 153.957,294.496 	"/>
</g>
<g id="Alaska_17_">
	<radialGradient id="SVGID_74_" cx="148.668" cy="288.2461" r="1.6052" gradientUnits="userSpaceOnUse">
		<stop  offset="0" style="stop-color:#D5D6C3;stop-opacity:0.6"/>
		<stop  offset="0.9447" style="stop-color:#D5D6C3;stop-opacity:0.9779"/>
		<stop  offset="1" style="stop-color:#D5D6C3"/>
	</radialGradient>
	<polygon fill="url(#SVGID_74_)" points="150.506,289.148 149.884,287.845 148.335,286.914 146.953,287.041 146.83,288.284 
		146.848,288.312 149.884,289.579 	"/>
</g>
<g id="Alaska_16_">
	<radialGradient id="SVGID_75_" cx="155.6089" cy="291.1704" r="2.0443" gradientUnits="userSpaceOnUse">
		<stop  offset="0" style="stop-color:#D5D6C3;stop-opacity:0.6"/>
		<stop  offset="0.9447" style="stop-color:#D5D6C3;stop-opacity:0.9779"/>
		<stop  offset="1" style="stop-color:#D5D6C3"/>
	</radialGradient>
	<polygon fill="url(#SVGID_75_)" points="153.976,289.206 154.145,293.122 157.243,293.556 154.828,288.785 	"/>
</g>
</svg>
