<svg
   xmlns="http://www.w3.org/2000/svg"
   version="1.1"
   id="Isolation_Mode"
   x="0px"
   y="0px"
   width="570px"
   height="440.667px"
   viewBox="0 0 570 440.667"
   enable-background="new 0 0 570 440.667">
<g
   id="ca">
	<radialGradient
   id="SVGID_1_"
   cx="62.9834"
   cy="156.8887"
   r="57.0396"
   gradientUnits="userSpaceOnUse">
		<stop
   offset="0"
   style="stop-color:#A5B765;stop-opacity:0.75"
   id="stop5" />
		<stop
   offset="0.9447"
   style="stop-color:#A5B765;stop-opacity:0.9862"
   id="stop7" />
		<stop
   offset="1"
   style="stop-color:#A5B765"
   id="stop9" />
	</radialGradient>
	<polygon
   fill="url(#SVGID_1_)"
   points="29.179,87.456 67.777,97.105 60.747,126.923 58.612,135.464 88.504,179.034    101.156,197.698 101.989,202.373 104.045,207.883 103.951,209.563 94.83,226.322 69.052,223.633 68.499,215.962 62.172,206.078    38.922,188.919 39.793,184.729 38.606,179.904 39.081,178.481 32.042,161.162 34.416,159.739 33.939,156.339 31.49,155.469    29.829,147.64 31.49,147.244 32.753,148.668 33.784,148.752 33.465,145.742 32.358,142.976 32.992,140.128 32.121,140.444    30.934,143.271 30.146,143.291 27.693,138.94 22.95,126.764 24.926,119.016 25.004,115.536 21.922,108.971 22.872,105.097    26.508,100.589  "
   id="polygon11" />
</g>
<g
   id="or">
	<radialGradient
   id="SVGID_2_"
   cx="69.2329"
   cy="67.5371"
   r="37.3929"
   gradientUnits="userSpaceOnUse">
		<stop
   offset="0"
   style="stop-color:#A5B765;stop-opacity:0.75"
   id="stop15" />
		<stop
   offset="0.9447"
   style="stop-color:#A5B765;stop-opacity:0.9862"
   id="stop17" />
		<stop
   offset="1"
   style="stop-color:#A5B765"
   id="stop19" />
	</radialGradient>
	<polygon
   fill="url(#SVGID_2_)"
   points="29.618,85.921 28.667,80.108 30.167,76.55 29.774,73.23 32.935,67.854 34.598,67.933    34.043,67.22 39.817,55.279 47.013,33.613 54.948,37.127 55.318,43.337 59.034,45.554 88.924,47.293 107.349,51.327    109.799,55.279 109.637,57.731 100.625,69.594 100.075,72.123 102.443,74.179 100.31,78.687 95.565,101.461  "
   id="polygon21" />
</g>
<g
   id="wa">
	<radialGradient
   id="SVGID_3_"
   cx="80.5386"
   cy="25.5117"
   r="29.4867"
   gradientUnits="userSpaceOnUse">
		<stop
   offset="0"
   style="stop-color:#A5B765;stop-opacity:0.75"
   id="stop25" />
		<stop
   offset="0.9447"
   style="stop-color:#A5B765;stop-opacity:0.9862"
   id="stop27" />
		<stop
   offset="1"
   style="stop-color:#A5B765"
   id="stop29" />
	</radialGradient>
	<polygon
   fill="url(#SVGID_3_)"
   points="46.832,30.984 48.469,24.076 51.22,23.418 48.557,20.9 48.766,13.373 47.505,9.104    48.452,3.648 61.025,10.053 63.171,14.646 59.115,19.8 58.017,23.418 61.417,24.845 65.137,21.282 67.667,14.637 66.132,4.01    66.719,0.959 78.184,4.043 91.152,7.286 106.177,10.764 114.245,12.423 114.164,12.9 107.998,41.684 107.681,50.064 89.256,46.033    59.365,44.294 56.154,42.498 55.729,36.225  "
   id="polygon31" />
</g>
<g
   id="nv">
	<radialGradient
   id="SVGID_4_"
   cx="92.3633"
   cy="146.9434"
   r="41.2973"
   gradientUnits="userSpaceOnUse">
		<stop
   offset="0"
   style="stop-color:#A5B765;stop-opacity:0.75"
   id="stop35" />
		<stop
   offset="0.9447"
   style="stop-color:#A5B765;stop-opacity:0.9862"
   id="stop37" />
		<stop
   offset="1"
   style="stop-color:#A5B765"
   id="stop39" />
	</radialGradient>
	<polygon
   fill="url(#SVGID_4_)"
   points="69.422,97.764 123.865,108.948 112.525,172.892 110.708,182.935 108.568,184.608    106.923,182.964 103.605,185.262 101.989,196.123 60.862,135.092  "
   id="polygon41" />
</g>
<g
   id="pr"
   transform="translate(2.310583,-9.5724154)">
    <radialGradient
   id="SVGID_80_"
   cx="442.832"
   cy="391.39651"
   r="7.0662999"
   gradientUnits="userSpaceOnUse">
        <stop
   offset="0"
   style="stop-color:#A5B765;stop-opacity:0.75"
   id="stop45" />
        <stop
   offset="0.9447"
   style="stop-color:#A5B765;stop-opacity:0.9862"
   id="stop47" />
        <stop
   offset="1"
   style="stop-color:#A5B765"
   id="stop49" />
    </radialGradient>
<polygon
   points="434.613,388.112 435.689,387.825 438.454,388.077 440.535,388.041 443.049,388.077 445.884,388.4 448.576,388.58 451.483,389.477 451.771,390.661 452.165,390.877 452.058,391.415 450.729,391.882 449.76,393.21 448.252,394.251 445.273,394.825 444.483,394.969 442.187,394.036 437.197,394.718 434.075,394.574 434.505,391.451 433.5,389.62 "
   id="pr-polygon"
   style="fill:url(#SVGID_80_)" />
</g>
<g
   id="az">
	<radialGradient
   id="SVGID_5_"
   cx="129.5542"
   cy="215.0098"
   r="37.2817"
   gradientUnits="userSpaceOnUse">
		<stop
   offset="0"
   style="stop-color:#A5B765;stop-opacity:0.75"
   id="stop54" />
		<stop
   offset="0.9447"
   style="stop-color:#A5B765;stop-opacity:0.9862"
   id="stop56" />
		<stop
   offset="1"
   style="stop-color:#A5B765"
   id="stop58" />
	</radialGradient>
	<polygon
   fill="url(#SVGID_5_)"
   points="105.99,209.793 106.147,208.21 102.984,201.094 105.278,186.417 107.332,185.2    109.231,186.939 111.844,184.961 113.661,174.917 163.795,182.587 154.622,255.103 133.039,252.175 95.313,230.589  "
   id="polygon60" />
</g>
<g
   id="id">
	<radialGradient
   id="SVGID_6_"
   cx="127.4556"
   cy="62.3076"
   r="40.9769"
   gradientUnits="userSpaceOnUse">
		<stop
   offset="0"
   style="stop-color:#A5B765;stop-opacity:0.75"
   id="stop64" />
		<stop
   offset="0.9447"
   style="stop-color:#A5B765;stop-opacity:0.9862"
   id="stop66" />
		<stop
   offset="1"
   style="stop-color:#A5B765"
   id="stop68" />
	</radialGradient>
	<polygon
   fill="url(#SVGID_6_)"
   points="97.219,101.711 102.052,78.534 104.405,73.917 102.037,71.859 102.646,69.802    111.529,58.069 111.748,54.998 109.226,50.612 109.409,42.79 115.82,12.871 124.124,14.612 121.426,27.844 123.483,32.353    122.85,35.038 128.543,44.292 133.051,47.375 128.543,60.742 130.283,62.165 133.787,61.249 135.344,61.688 140.008,76.87    140.484,77.744 155.169,77.37 157.692,79.561 152.813,111.744  "
   id="polygon70" />
</g>
<g
   id="ut">
	<radialGradient
   id="SVGID_7_"
   cx="142.355"
   cy="144.8184"
   r="32.1972"
   gradientUnits="userSpaceOnUse">
		<stop
   offset="0"
   style="stop-color:#A5B765;stop-opacity:0.75"
   id="stop74" />
		<stop
   offset="0.9447"
   style="stop-color:#A5B765;stop-opacity:0.9862"
   id="stop76" />
		<stop
   offset="1"
   style="stop-color:#A5B765"
   id="stop78" />
	</radialGradient>
	<polygon
   fill="url(#SVGID_7_)"
   points="114.045,172.811 125.433,109.155 152.33,113.742 150.432,127.1 170.665,129.713    164.179,180.482 150.34,178.666 136.978,176.688 123.297,174.475  "
   id="polygon80" />
</g>
<g
   id="mt">
	<radialGradient
   id="SVGID_8_"
   cx="174.9629"
   cy="47.1973"
   r="43.3836"
   gradientUnits="userSpaceOnUse">
		<stop
   offset="0"
   style="stop-color:#A5B765;stop-opacity:0.75"
   id="stop84" />
		<stop
   offset="0.9447"
   style="stop-color:#A5B765;stop-opacity:0.9862"
   id="stop86" />
		<stop
   offset="1"
   style="stop-color:#A5B765"
   id="stop88" />
	</radialGradient>
	<polygon
   fill="url(#SVGID_8_)"
   points="124.908,31.896 122.851,27.389 125.384,14.815 137.796,17.264 159.621,20.984    178.76,23.751 191.172,25.252 204.379,26.756 220.906,28.259 227.075,28.731 223.813,79.58 158.788,72.654 157.912,78.027    155.389,75.724 141.433,76.415 136.418,60.481 135.103,59.823 130.918,60.6 130.205,59.415 131.708,54.352 134.476,46.919    129.968,43.835 124.275,34.582  "
   id="polygon90" />
</g>
<g
   id="wy">
	<radialGradient
   id="SVGID_9_"
   cx="188.0474"
   cy="103.9224"
   r="32.3738"
   gradientUnits="userSpaceOnUse">
		<stop
   offset="0"
   style="stop-color:#A5B765;stop-opacity:0.75"
   id="stop94" />
		<stop
   offset="0.9447"
   style="stop-color:#A5B765;stop-opacity:0.9862"
   id="stop96" />
		<stop
   offset="1"
   style="stop-color:#A5B765"
   id="stop98" />
	</radialGradient>
	<polygon
   fill="url(#SVGID_9_)"
   points="160.05,75.175 223.681,81.27 220.12,132.669 205.096,131.481 196.792,130.692    181.214,129.032 172.042,127.926 152.414,125.97  "
   id="polygon100" />
</g>
<g
   id="nm">
	<radialGradient
   id="SVGID_10_"
   cx="191.4644"
   cy="219.4941"
   r="35.8869"
   gradientUnits="userSpaceOnUse">
		<stop
   offset="0"
   style="stop-color:#A5B765;stop-opacity:0.75"
   id="stop104" />
		<stop
   offset="0.9447"
   style="stop-color:#A5B765;stop-opacity:0.9862"
   id="stop106" />
		<stop
   offset="1"
   style="stop-color:#A5B765"
   id="stop108" />
	</radialGradient>
	<polygon
   fill="url(#SVGID_10_)"
   points="156.484,255.236 165.657,182.724 182.422,184.7 197.368,186.203 215.396,187.706    226.445,188.556 222.04,251.995 182.584,248.538 183.351,252.485 166.607,250.648 164.867,256.265  "
   id="polygon110" />
</g>
<g
   id="co">
	<radialGradient
   id="SVGID_11_"
   cx="202.853"
   cy="158.6592"
   r="32.972"
   gradientUnits="userSpaceOnUse">
		<stop
   offset="0"
   style="stop-color:#A5B765;stop-opacity:0.75"
   id="stop114" />
		<stop
   offset="0.9447"
   style="stop-color:#A5B765;stop-opacity:0.9862"
   id="stop116" />
		<stop
   offset="1"
   style="stop-color:#A5B765"
   id="stop118" />
	</radialGradient>
	<polygon
   fill="url(#SVGID_11_)"
   points="165.992,180.889 172.478,130.101 181.649,131.208 197.227,132.869 205.531,133.658    220.556,134.844 229.333,135.476 239.714,136.123 238.979,148.389 237.081,187.217 227.12,186.585 215.732,185.873 197.704,184.37    182.757,182.865  "
   id="polygon120" />
</g>
<g
   id="tx">
	<radialGradient
   id="SVGID_12_"
   cx="256.3628"
   cy="265.7139"
   r="70.2454"
   gradientUnits="userSpaceOnUse">
		<stop
   offset="0"
   style="stop-color:#A5B765;stop-opacity:0.75"
   id="stop124" />
		<stop
   offset="0.9447"
   style="stop-color:#A5B765;stop-opacity:0.9862"
   id="stop126" />
		<stop
   offset="1"
   style="stop-color:#A5B765"
   id="stop128" />
	</radialGradient>
	<polygon
   fill="url(#SVGID_12_)"
   points="185.155,251.007 223.704,254.459 227.856,196.443 258.903,197.66 258.142,222.538    279.651,231.321 296.891,234.323 300.765,231.789 308.852,231.812 320.929,235.825 321.562,255.83 327.57,267.691 326.148,279.553    323.586,285.76 315.471,288.963 315.484,285.929 314.208,284.614 311.362,285.722 313.338,289.517 312.941,290.544    310.096,294.101 306.538,296.79 300.448,299.321 296.496,298.926 295.15,300.744 296.336,301.771 293.727,303.432 291.038,305.489    289.296,306.832 287.242,309.915 286.375,312.053 284.711,316.165 280.758,314.583 281.469,316.796 284.473,317.667    284.003,320.196 284.552,326.997 287.795,332.533 284.711,334.984 282.102,332.772 270.478,329.844 265.26,327.472    261.464,318.377 261.622,316.717 260.752,316.085 261.226,314.346 260.988,312.764 259.962,311.736 258.619,311.34 252.92,303.908    248.577,292.997 239.084,283.189 226.353,283.9 220.975,292.601 217.969,292.046 206.189,283.428 200.888,269.273  "
   id="polygon130" />
</g>
<g
   id="ne">
	<radialGradient
   id="SVGID_13_"
   cx="264.1475"
   cy="128.2842"
   r="33.1087"
   gradientUnits="userSpaceOnUse">
		<stop
   offset="0"
   style="stop-color:#A5B765;stop-opacity:0.75"
   id="stop134" />
		<stop
   offset="0.9447"
   style="stop-color:#A5B765;stop-opacity:0.9862"
   id="stop136" />
		<stop
   offset="1"
   style="stop-color:#A5B765"
   id="stop138" />
	</radialGradient>
	<polygon
   fill="url(#SVGID_13_)"
   points="222.072,132.863 223.812,107.74 233.789,108.342 249.921,109.211 265.498,109.765    275.242,110.043 281.867,111.741 287.164,111.583 295.308,116.952 299.246,129.148 301.01,132.083 301.121,139.649    306.223,148.671 289.854,148.828 277.28,148.75 253.243,148.117 240.824,147.485 241.577,134.06  "
   id="polygon140" />
</g>
<g
   id="sd">
	<radialGradient
   id="SVGID_14_"
   cx="259.272"
   cy="92.1294"
   r="30.0182"
   gradientUnits="userSpaceOnUse">
		<stop
   offset="0"
   style="stop-color:#A5B765;stop-opacity:0.75"
   id="stop144" />
		<stop
   offset="0.9447"
   style="stop-color:#A5B765;stop-opacity:0.9862"
   id="stop146" />
		<stop
   offset="1"
   style="stop-color:#A5B765"
   id="stop148" />
	</radialGradient>
	<polygon
   fill="url(#SVGID_14_)"
   points="223.665,106.657 226.308,69.015 242.812,69.934 260.525,70.727 276.975,71.118    293.66,71.198 292.018,74.297 292.237,77.039 294.829,79.424 294.879,101.963 293.233,101.963 293.664,111.908 294.53,115.244    291.683,113.11 287.016,110.5 281.718,110.657 275.708,108.839 265.35,108.678 249.773,108.127 233.641,107.257  "
   id="polygon150" />
</g>
<g
   id="nd">
	<radialGradient
   id="SVGID_15_"
   cx="260.0122"
   cy="49.4121"
   r="27.8797"
   gradientUnits="userSpaceOnUse">
		<stop
   offset="0"
   style="stop-color:#A5B765;stop-opacity:0.75"
   id="stop154" />
		<stop
   offset="0.9447"
   style="stop-color:#A5B765;stop-opacity:0.9862"
   id="stop156" />
		<stop
   offset="1"
   style="stop-color:#A5B765"
   id="stop158" />
	</radialGradient>
	<polygon
   fill="url(#SVGID_15_)"
   points="226.336,67.733 229.023,29.224 229.023,28.906 243,29.667 263.085,30.536 280.246,30.934    287.837,30.934 291.945,62.8 293.371,65.725 293.688,69.918 277.003,69.837 260.554,69.443 242.84,68.651  "
   id="polygon160" />
</g>
<g
   id="ok">
	<radialGradient
   id="SVGID_16_"
   cx="272.5376"
   cy="210.6641"
   r="34.8734"
   gradientUnits="userSpaceOnUse">
		<stop
   offset="0"
   style="stop-color:#A5B765;stop-opacity:0.75"
   id="stop164" />
		<stop
   offset="0.9447"
   style="stop-color:#A5B765;stop-opacity:0.9862"
   id="stop166" />
		<stop
   offset="1"
   style="stop-color:#A5B765"
   id="stop168" />
	</radialGradient>
	<polygon
   fill="url(#SVGID_16_)"
   points="228.384,194.634 228.781,188.691 239.181,189.324 255.393,190.033 278.404,190.588    301.574,190.588 314.227,190.351 314.384,196.215 316.204,207.051 316.598,210.608 316.691,232.527 308.467,230.114    300.243,230.334 296.624,232.637 280.286,229.896 260.279,221.543 261.069,195.793  "
   id="polygon170" />
</g>
<g
   id="ks">
	<radialGradient
   id="SVGID_17_"
   cx="276.6606"
   cy="168.7456"
   r="30.1842"
   gradientUnits="userSpaceOnUse">
		<stop
   offset="0"
   style="stop-color:#A5B765;stop-opacity:0.75"
   id="stop174" />
		<stop
   offset="0.9447"
   style="stop-color:#A5B765;stop-opacity:0.9862"
   id="stop176" />
		<stop
   offset="1"
   style="stop-color:#A5B765"
   id="stop178" />
	</radialGradient>
	<polygon
   fill="url(#SVGID_17_)"
   points="238.973,187.528 240.87,148.7 253.619,149.333 277.655,149.967 290.229,150.044    306.598,149.888 310.868,152.18 308.814,155.344 313.715,161.113 314.348,188.555 301.695,188.791 278.525,188.791    255.515,188.239  "
   id="polygon180" />
</g>
<g
   id="mn">
	<radialGradient
   id="SVGID_18_"
   cx="322.8052"
   cy="64.6279"
   r="35.2961"
   gradientUnits="userSpaceOnUse">
		<stop
   offset="0"
   style="stop-color:#A5B765;stop-opacity:0.75"
   id="stop184" />
		<stop
   offset="0.9447"
   style="stop-color:#A5B765;stop-opacity:0.9862"
   id="stop186" />
		<stop
   offset="1"
   style="stop-color:#A5B765"
   id="stop188" />
	</radialGradient>
	<polygon
   fill="url(#SVGID_18_)"
   points="289.715,31.094 300.885,31.145 307.37,30.984 307.479,27.256 310.108,27.658    311.927,34.536 319.761,36.796 326.003,35.406 338.84,42.279 343.336,39.647 344.904,39.439 345.538,41.022 351.388,40.467    355.896,41.495 350.834,44.737 342.768,50.193 339.764,53.987 333.278,60.077 332.961,68.304 329.72,70.279 328.234,73.091    330.528,76.571 329.095,85.299 343.09,95.343 344.871,100.395 335.494,100.974 322.208,101.527 306.235,101.923 296.669,102    296.51,78.583 294.119,76.141 293.992,73.97 295.56,70.359 295.083,65.375 293.505,61.581  "
   id="polygon190" />
</g>
<g
   id="ia">
	<radialGradient
   id="SVGID_19_"
   cx="325.6431"
   cy="121.3223"
   r="25.6925"
   gradientUnits="userSpaceOnUse">
		<stop
   offset="0"
   style="stop-color:#A5B765;stop-opacity:0.75"
   id="stop194" />
		<stop
   offset="0.9447"
   style="stop-color:#A5B765;stop-opacity:0.9862"
   id="stop196" />
		<stop
   offset="1"
   style="stop-color:#A5B765"
   id="stop198" />
	</radialGradient>
	<polygon
   fill="url(#SVGID_19_)"
   points="294.979,112.237 294.979,103.464 306.329,103.333 322.304,102.937 335.588,102.382    345.236,101.83 348.709,111.744 356.307,119.226 355.041,125.869 350.683,130.166 348.24,138.125 345.255,139.541 342.897,139.073    336.061,139.785 321.195,140.656 314.396,140.815 303.64,140.735 302.615,139.39 302.297,131.483 300.398,128.555  "
   id="polygon200" />
</g>
<g
   id="mo">
	<radialGradient
   id="SVGID_20_"
   cx="338.0103"
   cy="170.0513"
   r="31.8485"
   gradientUnits="userSpaceOnUse">
		<stop
   offset="0"
   style="stop-color:#A5B765;stop-opacity:0.75"
   id="stop204" />
		<stop
   offset="0.9447"
   style="stop-color:#A5B765;stop-opacity:0.9862"
   id="stop206" />
		<stop
   offset="1"
   style="stop-color:#A5B765"
   id="stop208" />
	</radialGradient>
	<polygon
   fill="url(#SVGID_20_)"
   points="304.006,142.175 314.761,142.255 321.561,142.098 336.425,141.227 342.834,140.515    345.917,143.599 354.457,161.55 360.071,162.972 358.016,169.775 372.014,186.539 371.694,190.019 369.561,191.284    366.713,198.952 360.783,199.587 362.682,194.13 361.256,192.863 342.752,194.05 326.543,194.764 316.342,194.999 315.813,160.447    311.043,155.495 313.346,151.713 307.761,148.939  "
   id="polygon210" />
</g>
<g
   id="ar">
	<radialGradient
   id="SVGID_21_"
   cx="341.6426"
   cy="217.8232"
   r="24.3696"
   gradientUnits="userSpaceOnUse">
		<stop
   offset="0"
   style="stop-color:#A5B765;stop-opacity:0.75"
   id="stop214" />
		<stop
   offset="0.9447"
   style="stop-color:#A5B765;stop-opacity:0.9862"
   id="stop216" />
		<stop
   offset="1"
   style="stop-color:#A5B765"
   id="stop218" />
	</radialGradient>
	<polygon
   fill="url(#SVGID_21_)"
   points="316.457,196.434 326.657,196.195 342.866,195.483 361.371,194.298 358.907,201.221    366.828,200.387 365.328,203.866 364.931,205.763 363.825,212.012 353.307,231.148 353.15,232.571 353.229,234.231    354.255,238.105 354.333,239.923 336.938,240.873 323.05,241.349 322.863,234.61 318.83,233.282 318.67,210.825 318.276,207.267     "
   id="polygon220" />
</g>
<g
   id="la">
	<radialGradient
   id="SVGID_22_"
   cx="351.8291"
   cy="266.1094"
   r="26.7347"
   gradientUnits="userSpaceOnUse">
		<stop
   offset="0"
   style="stop-color:#A5B765;stop-opacity:0.75"
   id="stop224" />
		<stop
   offset="0.9447"
   style="stop-color:#A5B765;stop-opacity:0.9862"
   id="stop226" />
		<stop
   offset="1"
   style="stop-color:#A5B765"
   id="stop228" />
	</radialGradient>
	<polygon
   fill="url(#SVGID_22_)"
   points="323.215,242.82 337.269,242.346 354.664,241.396 355.06,244.559 357.987,249.938    352.293,259.743 350.189,267.507 372.062,266.147 371.114,270.259 374.752,276.191 374.196,276.824 371.349,275.875    367.001,274.687 365.182,277.218 366.293,278.484 369.925,278.246 375.856,281.332 374.039,285.045 380.443,287.656    378.703,290.822 371.079,286.915 370.399,288.212 368.979,290.66 357.987,289.868 355.773,286.628 351.977,283.623    346.756,283.938 347.233,285.915 344.466,286.628 332.604,284.178 326.082,285.151 328.059,280.247 329.794,267.671    323.611,255.868  "
   id="polygon230" />
</g>
<g
   id="wi">
	<radialGradient
   id="SVGID_23_"
   cx="354.9224"
   cy="84.5752"
   r="27.0254"
   gradientUnits="userSpaceOnUse">
		<stop
   offset="0"
   style="stop-color:#A5B765;stop-opacity:0.75"
   id="stop234" />
		<stop
   offset="0.9447"
   style="stop-color:#A5B765;stop-opacity:0.9862"
   id="stop236" />
		<stop
   offset="1"
   style="stop-color:#A5B765"
   id="stop238" />
	</radialGradient>
	<polygon
   fill="url(#SVGID_23_)"
   points="335.748,59.489 336.867,60.481 346.581,56.107 347.451,56.74 346.185,60.538    347.847,60.062 353.935,63.7 371.253,67.098 377.658,77.534 375.76,79.751 374.337,84.099 375.682,84.18 377.184,81.886    379.318,80.146 380.424,81.806 379.397,84.969 379.634,89.083 378.372,90.981 377.261,100.311 377.42,104.501 378.13,106.163    379.003,111.146 352.354,113.042 350.189,111.087 346.406,100.834 344.548,94.791 330.726,84.934 332.152,76.71 329.42,73.267    330.686,71.004 334.125,69.252 334.244,60.911  "
   id="polygon240" />
</g>
<g
   id="il">
	<radialGradient
   id="SVGID_24_"
   cx="365.6509"
   cy="148.459"
   r="29.0673"
   gradientUnits="userSpaceOnUse">
		<stop
   offset="0"
   style="stop-color:#A5B765;stop-opacity:0.75"
   id="stop244" />
		<stop
   offset="0.9447"
   style="stop-color:#A5B765;stop-opacity:0.9862"
   id="stop246" />
		<stop
   offset="1"
   style="stop-color:#A5B765"
   id="stop248" />
	</radialGradient>
	<polygon
   fill="url(#SVGID_24_)"
   points="345.419,140.692 349.458,138.938 352.163,130.494 356.275,126.822 357.811,118.927    353.644,114.43 378.974,112.675 379.511,116.325 380.375,117.906 382.263,122.728 385.882,161.545 382.428,167.795 382.59,177.291    375.19,183.458 372.23,184.244 359.894,169.44 362.032,161.709 355.453,160.229 347.064,142.667  "
   id="polygon250" />
</g>
<g
   id="ms">
	<radialGradient
   id="SVGID_25_"
   cx="369.5552"
   cy="243.8853"
   r="25.4339"
   gradientUnits="userSpaceOnUse">
		<stop
   offset="0"
   style="stop-color:#A5B765;stop-opacity:0.75"
   id="stop254" />
		<stop
   offset="0.9447"
   style="stop-color:#A5B765;stop-opacity:0.9862"
   id="stop256" />
		<stop
   offset="1"
   style="stop-color:#A5B765"
   id="stop258" />
	</radialGradient>
	<polygon
   fill="url(#SVGID_25_)"
   points="355.453,237.9 354.309,233.362 355.176,230.596 363.841,214.873 385.388,212.57    384.643,252.657 387.251,272.109 382.367,272.586 375.848,275.2 372.766,269.579 373.714,264.808 351.859,266.235 353.755,259.458    359.784,250.512 356.44,244.315  "
   id="polygon260" />
</g>
<g
   id="tn">
	<radialGradient
   id="SVGID_26_"
   cx="407.0991"
   cy="197.8491"
   r="31.9262"
   gradientUnits="userSpaceOnUse">
		<stop
   offset="0"
   style="stop-color:#A5B765;stop-opacity:0.75"
   id="stop264" />
		<stop
   offset="0.9447"
   style="stop-color:#A5B765;stop-opacity:0.9862"
   id="stop266" />
		<stop
   offset="1"
   style="stop-color:#A5B765"
   id="stop268" />
	</radialGradient>
	<polygon
   fill="url(#SVGID_26_)"
   points="364.609,213.118 366.8,203.738 370.42,193.784 387.198,192.467 386.869,190    433.804,184.755 449.589,182.58 443.45,190.328 440.941,190.53 425.686,202.829 425.79,207.057  "
   id="polygon270" />
</g>
<g
   id="ky">
	<radialGradient
   id="SVGID_27_"
   cx="407.9819"
   cy="173.1846"
   r="29.5221"
   gradientUnits="userSpaceOnUse">
		<stop
   offset="0"
   style="stop-color:#A5B765;stop-opacity:0.75"
   id="stop274" />
		<stop
   offset="0.9447"
   style="stop-color:#A5B765;stop-opacity:0.9862"
   id="stop276" />
		<stop
   offset="1"
   style="stop-color:#A5B765"
   id="stop278" />
	</radialGradient>
	<polygon
   fill="url(#SVGID_27_)"
   points="370.914,192.396 373.217,190.53 373.705,185.66 376.726,184.554 384.182,178.138    384.401,174.248 389.774,172.711 392.844,174.248 405.235,169.806 405.907,165.817 415.324,157.841 414.871,153.974    419.19,154.602 420.933,157.211 431.209,158.16 433.505,156.103 437.142,159.9 437.221,163.3 445.05,170.18 435.555,181.282    432.241,183.383 384.953,188.764 385.427,191.212  "
   id="polygon280" />
</g>
<g
   id="in">
	<radialGradient
   id="SVGID_28_"
   cx="398.7876"
   cy="146.0576"
   r="21.6314"
   gradientUnits="userSpaceOnUse">
		<stop
   offset="0"
   style="stop-color:#A5B765;stop-opacity:0.75"
   id="stop284" />
		<stop
   offset="0.9447"
   style="stop-color:#A5B765;stop-opacity:0.9862"
   id="stop286" />
		<stop
   offset="1"
   style="stop-color:#A5B765"
   id="stop288" />
	</radialGradient>
	<polygon
   fill="url(#SVGID_28_)"
   points="384.072,172.601 383.908,168.161 387.588,161.716 383.954,122.728 388.698,122.651    390.358,121.463 395.418,120.988 408.29,119.329 409.239,120.04 413.667,157.363 404.409,165.28 403.775,168.681 393.048,172.787    389.723,171.203  "
   id="polygon290" />
</g>
<g
   id="al">
	<radialGradient
   id="SVGID_29_"
   cx="405.6636"
   cy="241.5156"
   r="26.2567"
   gradientUnits="userSpaceOnUse">
		<stop
   offset="0"
   style="stop-color:#A5B765;stop-opacity:0.75"
   id="stop294" />
		<stop
   offset="0.9447"
   style="stop-color:#A5B765;stop-opacity:0.9862"
   id="stop296" />
		<stop
   offset="1"
   style="stop-color:#A5B765"
   id="stop298" />
	</radialGradient>
	<polygon
   fill="url(#SVGID_29_)"
   points="412.305,209.885 423.054,244.151 422.349,249.897 425.115,260.257 397.755,263.339    396.728,265 399.575,267.848 399.258,271.328 395.62,273.146 393.406,268.003 392.299,268.4 391.983,272.198 388.82,272.038    386.211,252.586 387.198,212.57  "
   id="polygon300" />
</g>
<g
   id="mi">
	<g
   id="g303">
		<radialGradient
   id="SVGID_30_"
   cx="370.3306"
   cy="49.7637"
   r="3.6152"
   gradientUnits="userSpaceOnUse">
			<stop
   offset="0"
   style="stop-color:#A5B765;stop-opacity:0.75"
   id="stop306" />
			<stop
   offset="0.9447"
   style="stop-color:#A5B765;stop-opacity:0.9862"
   id="stop308" />
			<stop
   offset="1"
   style="stop-color:#A5B765"
   id="stop310" />
		</radialGradient>
		<polygon
   fill="url(#SVGID_30_)"
   points="371.268,49.113 374.202,46.911 371.679,46.424 368.17,48.054 366.459,50.579     368.579,53.104   "
   id="polygon312" />
	</g>
	<g
   id="g314">
		<radialGradient
   id="SVGID_31_"
   cx="380.6841"
   cy="63.3403"
   r="22.9953"
   gradientUnits="userSpaceOnUse">
			<stop
   offset="0"
   style="stop-color:#A5B765;stop-opacity:0.75"
   id="stop317" />
			<stop
   offset="0.9447"
   style="stop-color:#A5B765;stop-opacity:0.9862"
   id="stop319" />
			<stop
   offset="1"
   style="stop-color:#A5B765"
   id="stop321" />
		</radialGradient>
		<polygon
   fill="url(#SVGID_31_)"
   points="395.888,62.237 400.943,62.728 403.552,64.521 405.427,62.402 410.236,62.156     410.562,61.097 407.708,58.896 406.158,55.47 403.552,56.041 399.799,55.717 399.721,52.7 388.308,56.205 385.292,58.978     382.028,57.837 378.36,58.244 373.305,53.762 370.535,53.434 368.333,55.879 368.253,53.352 365.725,50.501 350.806,60.037     354.63,62.528 372.065,65.653 378.809,76.18 381.375,69.982 387.085,66.478 385.78,69.086 386.592,69.167 388.877,66.803     394.341,64.032   "
   id="polygon323" />
	</g>
	<g
   id="g325">
		<radialGradient
   id="SVGID_32_"
   cx="410.2773"
   cy="92.9312"
   r="23.5702"
   gradientUnits="userSpaceOnUse">
			<stop
   offset="0"
   style="stop-color:#A5B765;stop-opacity:0.75"
   id="stop328" />
			<stop
   offset="0.9447"
   style="stop-color:#A5B765;stop-opacity:0.9862"
   id="stop330" />
			<stop
   offset="1"
   style="stop-color:#A5B765"
   id="stop332" />
		</radialGradient>
		<polygon
   fill="url(#SVGID_32_)"
   points="427.794,92.812 425.501,87.117 423.05,85.854 419.333,88.225 419.096,90.44     417.277,92.735 414.588,91.391 414.667,88.463 416.406,87.67 419.096,82.691 418.859,78.419 418.067,75.968 416.723,74.625     417.039,73.595 417.83,73.438 417.83,72.649 415.617,70.198 409.289,67.901 403.755,66.006 402.251,67.03 400.987,68.852     398.931,73.595 399.327,76.13 398.931,78.736 397.903,78.815 397.109,77.156 396.796,74.943 394.347,77.865 391.894,81.582     392.368,83.167 392.29,86.247 391.34,88.701 390.627,89.57 390.941,96.054 393.554,100.877 394.661,103.408 395.136,109.183     393.476,114.715 390.707,119.856 409.132,117.723 410.082,118.433 422.574,116.22 424.551,112.105 424.631,109.656     425.186,108.311 426.764,106.809 426.687,105.067 427.4,103.565 428.268,103.091 428.744,104.673 429.772,103.645 429.928,98.507       "
   id="polygon334" />
	</g>
</g>
<g
   id="fl">
	<radialGradient
   id="SVGID_33_"
   cx="444.4028"
   cy="293.8672"
   r="40.9208"
   gradientUnits="userSpaceOnUse">
		<stop
   offset="0"
   style="stop-color:#A5B765;stop-opacity:0.75"
   id="stop338" />
		<stop
   offset="0.9447"
   style="stop-color:#A5B765;stop-opacity:0.9862"
   id="stop340" />
		<stop
   offset="1"
   style="stop-color:#A5B765"
   id="stop342" />
	</radialGradient>
	<polygon
   fill="url(#SVGID_33_)"
   points="401.233,267.726 398.154,264.592 425.515,261.506 427.769,265.533 456.245,263.428    457.759,265.331 460.233,264.262 460.31,262.523 459.838,259.279 460.885,259.082 464.339,260.068 468.113,267.924    476.731,284.926 488.437,304.061 488.989,305.326 490.095,312.206 490.652,318.216 488.911,327.467 485.273,328.653    483.611,328.498 478.945,325.096 476.499,321.379 471.909,320.352 467.009,313.629 466.611,309.755 466.057,308.965    465.267,309.045 465.503,310.545 463.605,310.228 458.072,303.191 460.759,298.368 459.891,296.866 458.705,297.735    457.755,300.187 455.542,298.368 456.648,289.512 451.587,282.001 438.777,271.958 435.851,272.274 430.473,277.335    424.068,278.679 423.593,275.988 415.924,272.193 409.834,271.324 405.406,271.88 400.344,273.698  "
   id="polygon344" />
</g>
<g
   id="oh">
	<radialGradient
   id="SVGID_34_"
   cx="431.8608"
   cy="134.0977"
   r="22.6457"
   gradientUnits="userSpaceOnUse">
		<stop
   offset="0"
   style="stop-color:#A5B765;stop-opacity:0.75"
   id="stop348" />
		<stop
   offset="0.9447"
   style="stop-color:#A5B765;stop-opacity:0.9862"
   id="stop350" />
		<stop
   offset="1"
   style="stop-color:#A5B765"
   id="stop352" />
	</radialGradient>
	<polygon
   fill="url(#SVGID_34_)"
   points="410.732,119.676 423.225,117.463 433.27,120.548 439.912,118.173 450.35,110.03    452.99,126.017 451.438,140.133 444.11,150.717 441.564,150.005 441.084,155.237 437.935,158.165 434.218,154.286 430.341,156.74    421.646,155.394 419.903,152.786 414.686,152.47  "
   id="polygon354" />
</g>
<g
   id="ga">
	<radialGradient
   id="SVGID_35_"
   cx="441.4604"
   cy="235.1411"
   r="28.1419"
   gradientUnits="userSpaceOnUse">
		<stop
   offset="0"
   style="stop-color:#A5B765;stop-opacity:0.75"
   id="stop358" />
		<stop
   offset="0.9447"
   style="stop-color:#A5B765;stop-opacity:0.9862"
   id="stop360" />
		<stop
   offset="1"
   style="stop-color:#A5B765"
   id="stop362" />
	</radialGradient>
	<polygon
   fill="url(#SVGID_35_)"
   points="413.711,209.677 438.351,206.612 436.871,210.724 460.275,230.001 461.856,233.797    463.833,234.824 466.126,239.805 469.21,240.519 467.313,243.759 463.913,258.39 460.116,257.519 458.358,259.021 458.992,263.135    457.902,263.607 456.401,261.394 428.537,263.67 426.522,260.049 423.754,249.688 424.808,244.151  "
   id="polygon364" />
</g>
<g
   id="nc">
	<radialGradient
   id="SVGID_36_"
   cx="470.8608"
   cy="191.8945"
   r="33.4338"
   gradientUnits="userSpaceOnUse">
		<stop
   offset="0"
   style="stop-color:#A5B765;stop-opacity:0.75"
   id="stop368" />
		<stop
   offset="0.9447"
   style="stop-color:#A5B765;stop-opacity:0.9862"
   id="stop370" />
		<stop
   offset="1"
   style="stop-color:#A5B765"
   id="stop372" />
	</radialGradient>
	<polygon
   fill="url(#SVGID_36_)"
   points="427.989,206.612 427.71,203.556 441.79,191.772 444.241,191.695 451.838,182.104    509.242,172.564 510.821,176.67 504.099,179.755 503.39,180.388 503.547,181.257 513.034,179.832 514.012,183.293 512.481,184.34    511.374,186.87 508.848,187.582 506.429,185.977 504.688,188.03 507.264,190.19 506.947,191.616 504.258,193.512 504.719,194.56    509.714,192.326 510.393,193.408 508.291,196.202 503.23,197.861 502.363,197.545 496.272,206.482 496.272,208.932 489.63,211.224    476.105,201.578 464.64,203.399 464.403,203.16 461.083,199.759 446.771,201.735 440.366,204.899  "
   id="polygon374" />
</g>
<g
   id="va">
	<radialGradient
   id="SVGID_37_"
   cx="471.9087"
   cy="161.3721"
   r="30.4787"
   gradientUnits="userSpaceOnUse">
		<stop
   offset="0"
   style="stop-color:#A5B765;stop-opacity:0.75"
   id="stop378" />
		<stop
   offset="0.9447"
   style="stop-color:#A5B765;stop-opacity:0.9862"
   id="stop380" />
		<stop
   offset="1"
   style="stop-color:#A5B765"
   id="stop382" />
	</radialGradient>
	<polygon
   fill="url(#SVGID_37_)"
   points="434.732,183.185 436.889,181.629 446.086,171.404 449.327,174.673 464.503,168.489    468.013,154.016 471.411,154.893 477.881,144.586 478.594,140.804 479.287,140.357 483.363,142.612 484.257,139.56    490.505,143.038 491.926,143.591 492.4,144.938 491.849,146.598 490.977,147.07 490.818,151.186 493.984,150.313 502.76,154.662    502.522,157.036 501.099,157.67 494.062,153.081 493.984,153.238 499.992,158.062 502.915,159.802 503.71,159.722 504.103,161.226    503.946,162.015 503.156,161.386 502.366,161.226 502.048,161.463 502.76,162.253 502.366,163.123 499.123,160.99 498.252,160.83    500.704,162.967 502.366,163.599 503.233,163.36 504.342,164.47 504.657,165.259 503.866,166.286 502.681,165.892 501.81,165.576    501.021,164.862 498.806,164.152 498.016,163.44 496.672,163.599 494.219,163.755 493.984,164.152 498.092,164.786    501.336,166.286 502.207,166.764 503.63,167.552 504.974,166.603 508.057,166.682 508.769,169.369 509.085,171.029  "
   id="polygon384" />
</g>
<g
   id="wv">
	<radialGradient
   id="SVGID_38_"
   cx="461.0493"
   cy="150.2461"
   r="22.4851"
   gradientUnits="userSpaceOnUse">
		<stop
   offset="0"
   style="stop-color:#A5B765;stop-opacity:0.75"
   id="stop388" />
		<stop
   offset="0.9447"
   style="stop-color:#A5B765;stop-opacity:0.9862"
   id="stop390" />
		<stop
   offset="1"
   style="stop-color:#A5B765"
   id="stop392" />
	</radialGradient>
	<polygon
   fill="url(#SVGID_38_)"
   points="438.735,159.219 438.815,159.298 442.293,156.371 442.609,151.469 444.826,152.181    452.812,141.269 454.159,127.591 456.213,139.291 466.254,137.474 467.464,145.299 474.043,139.176 476.346,138.957    478.868,136.873 482.387,136.051 483.363,139.067 482.487,141.26 478.758,138.957 477.552,139.724 476.675,143.892    470.918,153.521 467.124,152.499 463.248,167.207 449.807,172.901 438.815,162.621  "
   id="polygon394" />
</g>
<g
   id="sc">
	<radialGradient
   id="SVGID_39_"
   cx="463.709"
   cy="220.3086"
   r="22.2246"
   gradientUnits="userSpaceOnUse">
		<stop
   offset="0"
   style="stop-color:#A5B765;stop-opacity:0.75"
   id="stop398" />
		<stop
   offset="0.9447"
   style="stop-color:#A5B765;stop-opacity:0.9862"
   id="stop400" />
		<stop
   offset="1"
   style="stop-color:#A5B765"
   id="stop402" />
	</radialGradient>
	<polygon
   fill="url(#SVGID_39_)"
   points="446.56,203.418 460.871,201.441 464.429,205.079 475.894,203.261 488.846,212.369    488.628,213.034 484.043,221.496 482.064,225.054 474.712,232.726 473.126,233.198 472.81,233.989 472.971,235.73 472.102,236.361    470.676,236.046 470.282,236.837 471.072,237.469 469.746,239.176 467.295,238.542 465.002,233.892 463.025,232.864    461.213,228.817 438.572,210.346 440.489,206.776  "
   id="polygon404" />
</g>
<g
   id="pa">
	<radialGradient
   id="SVGID_40_"
   cx="481.2007"
   cy="118.73"
   r="24.7525"
   gradientUnits="userSpaceOnUse">
		<stop
   offset="0"
   style="stop-color:#A5B765;stop-opacity:0.75"
   id="stop408" />
		<stop
   offset="0.9447"
   style="stop-color:#A5B765;stop-opacity:0.9862"
   id="stop410" />
		<stop
   offset="1"
   style="stop-color:#A5B765"
   id="stop412" />
	</radialGradient>
	<polygon
   fill="url(#SVGID_40_)"
   points="451.831,109.568 458.235,104.744 458.868,108.064 499.91,99.683 500.936,100.688    502.333,101.345 503.979,104.718 507.736,106.406 504.812,111.942 505.839,113.521 504.969,115.103 505.87,117.711 510.57,121.678    507.896,124.828 507.896,125.62 505.522,127.439 503.156,127.004 502.005,128.896 483.418,132.925 466.888,136.133    457.348,137.777 454.717,125.935  "
   id="polygon414" />
</g>
<g
   id="dc">
	<radialGradient
   id="SVGID_41_"
   cx="492.8682"
   cy="143.3555"
   r="1.1852"
   gradientUnits="userSpaceOnUse">
		<stop
   offset="0"
   style="stop-color:#D5D6C3;stop-opacity:0.6"
   id="stop418" />
		<stop
   offset="0.9447"
   style="stop-color:#D5D6C3;stop-opacity:0.9779"
   id="stop420" />
		<stop
   offset="1"
   style="stop-color:#D5D6C3"
   id="stop422" />
	</radialGradient>
	<polygon
   fill="url(#SVGID_41_)"
   points="491.849,142.596 492.908,142.025 493.887,142.679 493.123,144.687 493.014,143.781    492.582,143.002  "
   id="polygon424" />
</g>
<g
   id="de">
	<radialGradient
   id="SVGID_42_"
   cx="508.3379"
   cy="136.46"
   r="6.9685"
   gradientUnits="userSpaceOnUse">
		<stop
   offset="0"
   style="stop-color:#A5B765;stop-opacity:0.75"
   id="stop428" />
		<stop
   offset="0.9447"
   style="stop-color:#A5B765;stop-opacity:0.9862"
   id="stop430" />
		<stop
   offset="1"
   style="stop-color:#A5B765"
   id="stop432" />
	</radialGradient>
	<polygon
   fill="url(#SVGID_42_)"
   points="503.238,129.719 503.661,128.027 505.294,128.567 504.72,130.311 505.618,132.02    508.224,135.119 509.694,138.051 511.65,140.17 512.543,140.581 513.438,143.423 507.246,144.893  "
   id="polygon434" />
</g>
<g
   id="nj">
	<radialGradient
   id="SVGID_43_"
   cx="512.4658"
   cy="121.9526"
   r="11.9198"
   gradientUnits="userSpaceOnUse">
		<stop
   offset="0"
   style="stop-color:#A5B765;stop-opacity:0.75"
   id="stop438" />
		<stop
   offset="0.9447"
   style="stop-color:#A5B765;stop-opacity:0.9862"
   id="stop440" />
		<stop
   offset="1"
   style="stop-color:#A5B765"
   id="stop442" />
	</radialGradient>
	<polygon
   fill="url(#SVGID_43_)"
   points="506.615,127.605 509.068,125.868 509.068,125.078 511.833,121.436 506.852,117.406    505.902,115.189 506.771,113.609 505.745,112.03 508.669,106.493 517.21,109.262 516.974,112.74 515.473,114.4 515.473,116.693    518.556,116.853 518.791,117.88 519.031,121.2 519.187,123.652 519.109,124.524 518.791,125.946 518.474,126.738 517.765,128.554    517.13,131.164 516.026,132.589 515.629,133.378 514.76,135.908 514.126,137.333 513.336,137.412 513.573,135.198 513.259,134.329    510.806,134.725 507.722,132.985 505.745,130.373  "
   id="polygon444" />
</g>
<g
   id="md">
	<g
   id="md_1">
		<radialGradient
   id="SVGID_44_"
   cx="490.1284"
   cy="141.7251"
   r="18.2204"
   gradientUnits="userSpaceOnUse">
			<stop
   offset="0"
   style="stop-color:#A5B765;stop-opacity:0.75"
   id="stop449" />
			<stop
   offset="0.9447"
   style="stop-color:#A5B765;stop-opacity:0.9862"
   id="stop451" />
			<stop
   offset="1"
   style="stop-color:#A5B765"
   id="stop453" />
		</radialGradient>
		<polygon
   fill="url(#SVGID_44_)"
   points="512.903,144.474 506.528,145.919 502.251,130.129 483.726,134.037 467.118,137.2     468.067,143.105 473.55,137.842 475.908,137.896 478.429,136.107 483.034,135.009 484.46,138.519 490.711,142.027 492.794,141.04     494.768,142.383 493.616,145.261 493.123,146.66 491.947,147.639 491.889,150.032 494.11,149.456 502.333,153.321     501.832,151.274 500.488,148.111 498.908,146.531 497.958,143.92 497.878,142.337 497.958,140.838 497.878,139.809     498.038,138.94 497.958,137.673 497.958,137.12 499.224,135.064 500.646,134.037 501.201,134.433 500.725,135.064     500.014,135.855 499.619,138.307 500.172,139.176 499.381,140.442 499.381,142.103 500.488,143.368 502.071,144.317     501.912,145.265 501.518,146.847 502.071,147.795 502.862,148.191 504.442,147.481 506.103,148.824 505.392,149.695     505.549,150.484 506.578,152.46 508.869,151.908 511.322,149.695 512.744,147.481 513.139,145.817   "
   id="polygon455" />
	</g>
	<g
   id="md_2">
		<radialGradient
   id="SVGID_45_"
   cx="509.896"
   cy="157.1289"
   r="4.606"
   gradientUnits="userSpaceOnUse">
			<stop
   offset="0"
   style="stop-color:#A5B765;stop-opacity:0.75"
   id="stop459" />
			<stop
   offset="0.9447"
   style="stop-color:#A5B765;stop-opacity:0.9862"
   id="stop461" />
			<stop
   offset="1"
   style="stop-color:#A5B765"
   id="stop463" />
		</radialGradient>
		<polygon
   fill="url(#SVGID_45_)"
   points="508.751,153.176 508.591,154.598 507.801,159.343 507.801,162.109 508.67,163.296     511.044,157.364 511.834,152.938 511.992,150.961 510.252,151.594   "
   id="polygon465" />
	</g>
</g>
<g
   id="vt">
	<radialGradient
   id="SVGID_46_"
   cx="518.5396"
   cy="67.9458"
   r="12.9202"
   gradientUnits="userSpaceOnUse">
		<stop
   offset="0"
   style="stop-color:#A5B765;stop-opacity:0.75"
   id="stop469" />
		<stop
   offset="0.9447"
   style="stop-color:#A5B765;stop-opacity:0.9862"
   id="stop471" />
		<stop
   offset="1"
   style="stop-color:#A5B765"
   id="stop473" />
	</radialGradient>
	<polygon
   fill="url(#SVGID_46_)"
   points="509.959,56.161 526.167,51.813 527.119,57.506 523.466,61.934 524.021,64.466    523.388,74.982 524.731,82.574 517.948,84.078  "
   id="polygon475" />
</g>
<g
   id="ma">
	<radialGradient
   id="SVGID_47_"
   cx="534.8896"
   cy="85.9756"
   r="13.4109"
   gradientUnits="userSpaceOnUse">
		<stop
   offset="0"
   style="stop-color:#A5B765;stop-opacity:0.75"
   id="stop479" />
		<stop
   offset="0.9447"
   style="stop-color:#A5B765;stop-opacity:0.9862"
   id="stop481" />
		<stop
   offset="1"
   style="stop-color:#A5B765"
   id="stop483" />
	</radialGradient>
	<polygon
   fill="url(#SVGID_47_)"
   points="518.206,84.897 525.642,83.117 536.159,80.666 537.901,78.692 539.324,77.267    542.96,79.325 541.219,81.302 539.797,84.069 541.142,85.333 542.879,85.014 544.463,86.52 544.381,87.782 545.966,88.339    548.101,90.156 550.552,89.129 550.867,86.993 551.738,87.704 551.738,90.156 546.124,93.399 545.728,90.947 542.302,94.685    537.697,88.763 533.502,89.996 518.042,93.205  "
   id="polygon485" />
</g>
<g
   id="ct">
	<radialGradient
   id="SVGID_48_"
   cx="526.7729"
   cy="99.3682"
   r="8.4566"
   gradientUnits="userSpaceOnUse">
		<stop
   offset="0"
   style="stop-color:#A5B765;stop-opacity:0.75"
   id="stop489" />
		<stop
   offset="0.9447"
   style="stop-color:#A5B765;stop-opacity:0.9862"
   id="stop491" />
		<stop
   offset="1"
   style="stop-color:#A5B765"
   id="stop493" />
	</radialGradient>
	<polygon
   fill="url(#SVGID_48_)"
   points="518.28,94.268 533.449,90.948 535.266,97.434 534.871,99.489 533.622,99.961    531.959,100.99 531.015,101.463 528.482,102.095 526.422,102.966 524.289,104.786 520.021,107.788 519.149,106.604    520.495,105.259 519.941,103.519  "
   id="polygon495" />
</g>
<g
   id="nh">
	<radialGradient
   id="SVGID_49_"
   cx="532.3892"
   cy="64.8809"
   r="13.5181"
   gradientUnits="userSpaceOnUse">
		<stop
   offset="0"
   style="stop-color:#A5B765;stop-opacity:0.75"
   id="stop499" />
		<stop
   offset="0.9447"
   style="stop-color:#A5B765;stop-opacity:0.9862"
   id="stop501" />
		<stop
   offset="1"
   style="stop-color:#A5B765"
   id="stop503" />
	</radialGradient>
	<polygon
   fill="url(#SVGID_49_)"
   points="525.627,82.233 524.366,74.888 524.999,64.371 524.621,62.034 528.157,57.594    526.677,48.547 529.416,47.528 536.696,70.142 538.75,72.042 538.831,72.832 540.412,74.099 539.934,76.302 538.815,76.381    535.651,79.779  "
   id="polygon505" />
</g>
<g
   id="me">
	<radialGradient
   id="SVGID_50_"
   cx="548.3765"
   cy="43.7734"
   r="24.6424"
   gradientUnits="userSpaceOnUse">
		<stop
   offset="0"
   style="stop-color:#A5B765;stop-opacity:0.75"
   id="stop509" />
		<stop
   offset="0.9447"
   style="stop-color:#A5B765;stop-opacity:0.9862"
   id="stop511" />
		<stop
   offset="1"
   style="stop-color:#A5B765"
   id="stop513" />
	</radialGradient>
	<polygon
   fill="url(#SVGID_50_)"
   points="529.753,46.5 531.179,46.104 531.813,44.998 532.918,40.966 534.736,30.053    534.184,26.652 537.978,15.424 539.56,15.346 540.037,17.005 541.932,17.955 544.227,15.978 545.651,14.712 546.598,14.317    547.469,14.555 549.129,15.264 551.501,16.609 555.059,27.444 556.719,33.294 557.512,33.218 560.042,33.453 560.596,33.849    561.227,36.3 561.702,38.041 562.572,38.75 563.203,38.041 566.052,39.939 565.025,41.283 567,42.39 562.096,47.607    561.702,47.528 560.516,47.607 559.962,48.479 559.488,48.873 556.798,49.032 555.535,50.535 555.298,51.403 555.456,52.194    554.744,52.591 553.084,52.591 552.765,51.324 551.344,51.798 551.738,53.461 551.582,55.118 549.997,58.202 547.074,61.208    545.252,62.237 543.04,63.264 542.327,66.824 542.09,69.117 541.539,71.567 540.51,73.229 539.506,72.315 539.409,71.41    537.189,69.511 536.953,67.852  "
   id="polygon515" />
</g>
<g
   id="ri">
	<radialGradient
   id="SVGID_51_"
   cx="537.0884"
   cy="94.6016"
   r="3.847"
   gradientUnits="userSpaceOnUse">
		<stop
   offset="0"
   style="stop-color:#A5B765;stop-opacity:0.75"
   id="stop519" />
		<stop
   offset="0.9447"
   style="stop-color:#A5B765;stop-opacity:0.9862"
   id="stop521" />
		<stop
   offset="1"
   style="stop-color:#A5B765"
   id="stop523" />
	</radialGradient>
	<polygon
   fill="url(#SVGID_51_)"
   points="534.572,90.737 537.318,89.778 539.605,92.625 538.504,93.811 539.374,96.578    539.214,97.449 536.05,99.425 536.299,97.316  "
   id="polygon525" />
</g>
<g
   id="ny">
	<g
   id="ny_1">
		<radialGradient
   id="SVGID_52_"
   cx="488.9053"
   cy="82.5703"
   r="28.2774"
   gradientUnits="userSpaceOnUse">
			<stop
   offset="0"
   style="stop-color:#A5B765;stop-opacity:0.75"
   id="stop530" />
			<stop
   offset="0.9447"
   style="stop-color:#A5B765;stop-opacity:0.9862"
   id="stop532" />
			<stop
   offset="1"
   style="stop-color:#A5B765"
   id="stop534" />
		</radialGradient>
		<polygon
   fill="url(#SVGID_52_)"
   points="458.461,103.691 465.421,95.704 465.421,94.836 464.394,93.016 462.573,89.695     462.573,89.616 464.235,88.666 465.895,87.955 467.635,87.244 470.796,86.611 474.116,86.453 476.252,87.322 481.869,86.137     487.167,81.47 487.719,80.682 487.642,79.812 487.325,79.019 487.244,78.465 487.244,76.489 487.403,75.7 486.69,74.275     485.19,73.643 489.065,68.029 491.673,63.68 494.6,60.519 509.07,56.641 517.137,85.061 516.983,93.909 518.961,103.634     519.35,104.797 518.005,106.458 519.193,108.007 517.877,108.5 507.962,105.353 504.721,103.929 502.981,100.527 501.401,99.974     500.215,98.789 500.136,98.631 459.094,107.012   "
   id="polygon536" />
	</g>
	<g
   id="ny_2">
		<radialGradient
   id="SVGID_53_"
   cx="525.8628"
   cy="109.2554"
   r="6.6562"
   gradientUnits="userSpaceOnUse">
			<stop
   offset="0"
   style="stop-color:#A5B765;stop-opacity:0.75"
   id="stop540" />
			<stop
   offset="0.9447"
   style="stop-color:#A5B765;stop-opacity:0.9862"
   id="stop542" />
			<stop
   offset="1"
   style="stop-color:#A5B765"
   id="stop544" />
		</radialGradient>
		<polygon
   fill="url(#SVGID_53_)"
   points="520.324,113.445 518.664,114.237 517.875,113.921 517.953,111.944 519.695,110.125     524.751,107.438 529.657,105.854 532.266,104.747 533.057,104.273 533.85,105.222 532.266,106.645 531.236,107.438     529.578,108.621 525.31,110.678   "
   id="polygon546" />
	</g>
</g>
<g
   id="hi"
   transform="translate(-66.346741,-0.33008329)">
	<g
   id="hi_7">
		<radialGradient
   id="SVGID_54_"
   cx="366.94479"
   cy="357.75781"
   r="1.0146"
   gradientUnits="userSpaceOnUse">
			<stop
   offset="0"
   style="stop-color:#A5B765;stop-opacity:0.75"
   id="stop551" />
			<stop
   offset="0.9447"
   style="stop-color:#A5B765;stop-opacity:0.9862"
   id="stop553" />
			<stop
   offset="1"
   style="stop-color:#A5B765"
   id="stop555" />
		</radialGradient>
		<polygon
   points="367.681,357.392 367.758,356.576 366.131,358.042 366.537,358.94 "
   id="polygon557"
   style="fill:url(#SVGID_54_)" />
	</g>
	<g
   id="hi_6">
		<radialGradient
   id="SVGID_55_"
   cx="372.81589"
   cy="356.12701"
   r="2.1510999"
   gradientUnits="userSpaceOnUse">
			<stop
   offset="0"
   style="stop-color:#A5B765;stop-opacity:0.75"
   id="stop561" />
			<stop
   offset="0.9447"
   style="stop-color:#A5B765;stop-opacity:0.9862"
   id="stop563" />
			<stop
   offset="1"
   style="stop-color:#A5B765"
   id="stop565" />
		</radialGradient>
		<polygon
   points="373.713,358.042 375.18,355.435 372.733,354.213 370.451,356.168 "
   id="polygon567"
   style="fill:url(#SVGID_55_)" />
	</g>
	<g
   id="hi_5">
		<radialGradient
   id="SVGID_56_"
   cx="388.22311"
   cy="362.07809"
   r="2.5209999"
   gradientUnits="userSpaceOnUse">
			<stop
   offset="0"
   style="stop-color:#A5B765;stop-opacity:0.75"
   id="stop571" />
			<stop
   offset="0.9447"
   style="stop-color:#A5B765;stop-opacity:0.9862"
   id="stop573" />
			<stop
   offset="1"
   style="stop-color:#A5B765"
   id="stop575" />
		</radialGradient>
		<polygon
   points="385.45,360.895 385.45,362.201 387,363.831 389.364,364.319 390.996,363.831 390.26,362.201 387.981,359.837 "
   id="polygon577"
   style="fill:url(#SVGID_56_)" />
	</g>
	<g
   id="hi_4">
		<radialGradient
   id="SVGID_57_"
   cx="396.9043"
   cy="365.625"
   r="1.9583"
   gradientUnits="userSpaceOnUse">
			<stop
   offset="0"
   style="stop-color:#A5B765;stop-opacity:0.75"
   id="stop581" />
			<stop
   offset="0.9447"
   style="stop-color:#A5B765;stop-opacity:0.9862"
   id="stop583" />
			<stop
   offset="1"
   style="stop-color:#A5B765"
   id="stop585" />
		</radialGradient>
		<polygon
   points="398.739,366.439 399.551,365.216 394.828,364.811 394.257,365.951 "
   id="polygon587"
   style="fill:url(#SVGID_57_)" />
	</g>
	<g
   id="hi_3">
		<radialGradient
   id="SVGID_58_"
   cx="397.84131"
   cy="368.8447"
   r="1.0563"
   gradientUnits="userSpaceOnUse">
			<stop
   offset="0"
   style="stop-color:#A5B765;stop-opacity:0.75"
   id="stop591" />
			<stop
   offset="0.9447"
   style="stop-color:#A5B765;stop-opacity:0.9862"
   id="stop593" />
			<stop
   offset="1"
   style="stop-color:#A5B765"
   id="stop595" />
		</radialGradient>
		<polygon
   points="398.089,369.7 399.066,368.804 398.328,367.989 396.617,367.989 "
   id="polygon597"
   style="fill:url(#SVGID_58_)" />
	</g>
	<g
   id="hi_2">
		<radialGradient
   id="SVGID_59_"
   cx="403.46631"
   cy="369.04791"
   r="2.8306999"
   gradientUnits="userSpaceOnUse">
			<stop
   offset="0"
   style="stop-color:#A5B765;stop-opacity:0.75"
   id="stop601" />
			<stop
   offset="0.9447"
   style="stop-color:#A5B765;stop-opacity:0.9862"
   id="stop603" />
			<stop
   offset="1"
   style="stop-color:#A5B765"
   id="stop605" />
		</radialGradient>
		<polygon
   points="401.512,366.848 400.122,367.906 402.327,369.537 402.409,369.537 403.224,371.249 405.996,370.515 406.811,369.7 404.61,367.662 402.897,367.825 "
   id="polygon607"
   style="fill:url(#SVGID_59_)" />
	</g>
	<g
   id="hi_1">
		<radialGradient
   id="SVGID_60_"
   cx="412.84329"
   cy="381.1528"
   r="6.3120999"
   gradientUnits="userSpaceOnUse">
			<stop
   offset="0"
   style="stop-color:#A5B765;stop-opacity:0.75"
   id="stop611" />
			<stop
   offset="0.9447"
   style="stop-color:#A5B765;stop-opacity:0.9862"
   id="stop613" />
			<stop
   offset="1"
   style="stop-color:#A5B765"
   id="stop615" />
		</radialGradient>
		<polygon
   points="411.05,375.732 408.931,374.428 408.44,375.242 409.257,376.955 406.974,380.055 408.523,383.639 408.277,386.168 410.969,387.878 414.229,384.618 418.713,382.58 415.208,377.443 "
   id="polygon617"
   style="fill:url(#SVGID_60_)" />
	</g>
</g>
<g
   id="ak">
	<g
   id="ak_14">
		<radialGradient
   id="SVGID_61_"
   cx="4.8726"
   cy="436.0366"
   r="3.4528"
   gradientUnits="userSpaceOnUse">
			<stop
   offset="0"
   style="stop-color:#A5B765;stop-opacity:0.75"
   id="stop622" />
			<stop
   offset="0.9447"
   style="stop-color:#A5B765;stop-opacity:0.9862"
   id="stop624" />
			<stop
   offset="1"
   style="stop-color:#A5B765"
   id="stop626" />
		</radialGradient>
		<polygon
   fill="url(#SVGID_61_)"
   points="8.745,433.795 6.952,433.062 2.55,436.567 1,439.012 4.344,437.543 8.337,434.689   "
   id="polygon628" />
	</g>
	<g
   id="ak_13">
		<radialGradient
   id="SVGID_62_"
   cx="13.1074"
   cy="432.8579"
   r="4.102"
   gradientUnits="userSpaceOnUse">
			<stop
   offset="0"
   style="stop-color:#A5B765;stop-opacity:0.75"
   id="stop632" />
			<stop
   offset="0.9447"
   style="stop-color:#A5B765;stop-opacity:0.9862"
   id="stop634" />
			<stop
   offset="1"
   style="stop-color:#A5B765"
   id="stop636" />
		</radialGradient>
		<polygon
   fill="url(#SVGID_62_)"
   points="12.74,430.942 13.31,432.327 8.337,435.671 9.237,436.159 17.63,432.98 17.877,430.698     15.187,429.557   "
   id="polygon638" />
	</g>
	<g
   id="ak_12">
		<radialGradient
   id="SVGID_63_"
   cx="22.48"
   cy="370.9014"
   r="3.5097"
   gradientUnits="userSpaceOnUse">
			<stop
   offset="0"
   style="stop-color:#A5B765;stop-opacity:0.75"
   id="stop642" />
			<stop
   offset="0.9447"
   style="stop-color:#A5B765;stop-opacity:0.9862"
   id="stop644" />
			<stop
   offset="1"
   style="stop-color:#A5B765"
   id="stop646" />
		</radialGradient>
		<polygon
   fill="url(#SVGID_63_)"
   points="26.437,369.312 23.094,368.251 20.81,369.637 19.097,369.312 18.283,369.882     19.262,371.595 21.544,373.142 24.235,373.551 26.677,373.062   "
   id="polygon648" />
	</g>
	<g
   id="ak_11">
		<radialGradient
   id="SVGID_64_"
   cx="30.3091"
   cy="423.7266"
   r="3.5735"
   gradientUnits="userSpaceOnUse">
			<stop
   offset="0"
   style="stop-color:#A5B765;stop-opacity:0.75"
   id="stop652" />
			<stop
   offset="0.9447"
   style="stop-color:#A5B765;stop-opacity:0.9862"
   id="stop654" />
			<stop
   offset="1"
   style="stop-color:#A5B765"
   id="stop656" />
		</radialGradient>
		<polygon
   fill="url(#SVGID_64_)"
   points="29.045,421.81 26.11,424.745 26.191,426.377 28.8,426.539 30.104,425.072 34.345,424.745     34.508,422.134 33.202,420.914   "
   id="polygon658" />
	</g>
	<g
   id="ak_10">
		<radialGradient
   id="SVGID_65_"
   cx="87.2505"
   cy="396.9878"
   r="6.1156"
   gradientUnits="userSpaceOnUse">
			<stop
   offset="0"
   style="stop-color:#A5B765;stop-opacity:0.75"
   id="stop662" />
			<stop
   offset="0.9447"
   style="stop-color:#A5B765;stop-opacity:0.9862"
   id="stop664" />
			<stop
   offset="1"
   style="stop-color:#A5B765"
   id="stop666" />
		</radialGradient>
		<polygon
   fill="url(#SVGID_65_)"
   points="86.601,393.444 86.028,392.543 85.214,392.625 81.219,396.622 80.647,398.253     83.502,402.573 87.333,400.21 89.699,398.496 92.795,396.052 93.854,394.419 91.246,391.403   "
   id="polygon668" />
	</g>
	<g
   id="ak_9">
		<radialGradient
   id="SVGID_66_"
   cx="117.1294"
   cy="343.1016"
   r="88.1363"
   gradientUnits="userSpaceOnUse">
			<stop
   offset="0"
   style="stop-color:#A5B765;stop-opacity:0.75"
   id="stop672" />
			<stop
   offset="0.9447"
   style="stop-color:#A5B765;stop-opacity:0.9862"
   id="stop674" />
			<stop
   offset="1"
   style="stop-color:#A5B765"
   id="stop676" />
		</radialGradient>
		<polygon
   fill="url(#SVGID_66_)"
   points="209.048,375.422 198.692,375.101 170.16,353.905 166.736,356.351 166.736,360.834     163.635,364.993 150.756,354.64 143.26,357.572 117.251,270.671 109.667,268.55 77.794,269.527 78.04,266.839 68.583,265.535     67.602,265.045 63.937,263.496 61.814,266.839 55.62,268.959 48.447,274.095 43.801,278.17 38.257,286.322 32.55,286.322     30.185,290.97 39.969,304.094 46.736,304.909 47.062,305.724 45.512,314.284 38.501,313.468 38.664,308.987 36.952,308.741     21.218,316.565 27.251,327 32.224,329.201 42.167,330.668 48.691,325.372 50.24,328.224 47.468,330.266 50.324,336.379     40.213,343.308 35.731,341.188 25.865,354.557 25.217,356.595 29.614,362.71 36.057,363.604 36.136,367.191 30.024,365.154     28.066,367.354 33.692,374.448 42.904,371.595 44.127,386.594 45.023,387.247 51.382,382.683 58.391,388.551 68.747,382.927     66.138,387.977 64.668,397.356 51.461,409.828 50.65,412.355 51.136,413.169 48.691,414.229 46.571,412.355 40.051,416.676     35.24,420.751 35.078,422.463 35.892,422.708 40.945,421.567 44.372,416.594 45.756,416.594 45.756,418.305 55.947,415.617     72.498,400.695 87.008,382.762 82.195,381.292 82.523,378.198 87.252,374.121 91.815,362.71 96.872,357.819 100.946,360.261     99.48,360.996 97.768,360.261 93.854,363.687 94.507,368.416 92.795,373.142 92.795,377.709 94.995,378.847 102.906,371.84     104.371,369.312 108.041,369.474 110.402,364.013 107.385,358.306 108.201,357.735 129.156,364.013 147.333,362.383     149.698,360.015 151.33,360.751 152.06,363.441 161.846,367.109 169.509,370.128 171.872,367.6 168.449,365.154 169.588,362.383     171.303,362.463 173.665,366.376 176.029,367.436 176.764,366.295 171.139,358.143 171.792,357.98 175.785,362.14     178.068,365.154 181.982,365.969 187.361,371.024 188.096,373.632 191.437,373.716 192.581,373.716 192.581,374.527     199.837,378.523 199.913,383.659 201.547,384.961 202.362,384.554 202.851,379.831 204.809,379.503 210.27,388.714     211.738,388.632 213.041,382.518   "
   id="polygon678" />
	</g>
	<g
   id="ak_8">
		<radialGradient
   id="SVGID_67_"
   cx="91.1235"
   cy="388.7534"
   r="2.5537"
   gradientUnits="userSpaceOnUse">
			<stop
   offset="0"
   style="stop-color:#A5B765;stop-opacity:0.75"
   id="stop682" />
			<stop
   offset="0.9447"
   style="stop-color:#A5B765;stop-opacity:0.9862"
   id="stop684" />
			<stop
   offset="1"
   style="stop-color:#A5B765"
   id="stop686" />
		</radialGradient>
		<polygon
   fill="url(#SVGID_67_)"
   points="88.229,389.938 90.025,390.913 91.083,389.528 93.366,388.958 94.018,387.167     90.025,386.594   "
   id="polygon688" />
	</g>
	<g
   id="ak_7">
		<radialGradient
   id="SVGID_68_"
   cx="175.9087"
   cy="371.8799"
   r="4.2181"
   gradientUnits="userSpaceOnUse">
			<stop
   offset="0"
   style="stop-color:#A5B765;stop-opacity:0.75"
   id="stop692" />
			<stop
   offset="0.9447"
   style="stop-color:#A5B765;stop-opacity:0.9862"
   id="stop694" />
			<stop
   offset="1"
   style="stop-color:#A5B765"
   id="stop696" />
		</radialGradient>
		<polygon
   fill="url(#SVGID_68_)"
   points="177.253,368.416 175.542,368.742 173.583,368.089 171.303,369.391 171.953,372.57     174.074,374.527 176.438,375.671 180.515,372.897   "
   id="polygon698" />
	</g>
	<g
   id="ak_6">
		<radialGradient
   id="SVGID_69_"
   cx="181.6147"
   cy="370.9814"
   r="4.802"
   gradientUnits="userSpaceOnUse">
			<stop
   offset="0"
   style="stop-color:#A5B765;stop-opacity:0.75"
   id="stop702" />
			<stop
   offset="0.9447"
   style="stop-color:#A5B765;stop-opacity:0.9862"
   id="stop704" />
			<stop
   offset="1"
   style="stop-color:#A5B765"
   id="stop706" />
		</radialGradient>
		<polygon
   fill="url(#SVGID_69_)"
   points="183.204,375.994 184.347,376.32 185.812,372.492 184.996,371.186 181.085,366.949     177.498,365.642 177.418,366.457 182.309,372.735   "
   id="polygon708" />
	</g>
	<g
   id="ak_5">
		<radialGradient
   id="SVGID_70_"
   cx="181.7378"
   cy="379.1362"
   r="4.6801"
   gradientUnits="userSpaceOnUse">
			<stop
   offset="0"
   style="stop-color:#A5B765;stop-opacity:0.75"
   id="stop712" />
			<stop
   offset="0.9447"
   style="stop-color:#A5B765;stop-opacity:0.9862"
   id="stop714" />
			<stop
   offset="1"
   style="stop-color:#A5B765"
   id="stop716" />
		</radialGradient>
		<polygon
   fill="url(#SVGID_70_)"
   points="180.677,374.692 179.046,374.121 177.418,375.587 177.498,376.402 180.921,380.562     185.24,384.151 186.057,383.58 184.263,379.339   "
   id="polygon718" />
	</g>
	<g
   id="ak_4">
		<radialGradient
   id="SVGID_71_"
   cx="187.7686"
   cy="381.2141"
   r="3.2481"
   gradientUnits="userSpaceOnUse">
			<stop
   offset="0"
   style="stop-color:#A5B765;stop-opacity:0.75"
   id="stop722" />
			<stop
   offset="0.9447"
   style="stop-color:#A5B765;stop-opacity:0.9862"
   id="stop724" />
			<stop
   offset="1"
   style="stop-color:#A5B765"
   id="stop726" />
		</radialGradient>
		<polygon
   fill="url(#SVGID_71_)"
   points="187.932,377.543 185.731,377.139 185.649,379.258 189.561,385.29 189.888,383.01     189.236,378.766   "
   id="polygon728" />
	</g>
	<g
   id="ak_3">
		<radialGradient
   id="SVGID_72_"
   cx="189.564"
   cy="377.5874"
   r="3.0076"
   gradientUnits="userSpaceOnUse">
			<stop
   offset="0"
   style="stop-color:#A5B765;stop-opacity:0.75"
   id="stop732" />
			<stop
   offset="0.9447"
   style="stop-color:#A5B765;stop-opacity:0.9862"
   id="stop734" />
			<stop
   offset="1"
   style="stop-color:#A5B765"
   id="stop736" />
		</radialGradient>
		<polygon
   fill="url(#SVGID_72_)"
   points="192.169,375.019 189.644,374.857 186.302,375.587 188.014,376.568 190.784,380.318     192.825,378.439   "
   id="polygon738" />
	</g>
	<g
   id="ak_2">
		<radialGradient
   id="SVGID_73_"
   cx="198.0815"
   cy="386.6348"
   r="6.5865"
   gradientUnits="userSpaceOnUse">
			<stop
   offset="0"
   style="stop-color:#A5B765;stop-opacity:0.75"
   id="stop742" />
			<stop
   offset="0.9447"
   style="stop-color:#A5B765;stop-opacity:0.9862"
   id="stop744" />
			<stop
   offset="1"
   style="stop-color:#A5B765"
   id="stop746" />
		</radialGradient>
		<polygon
   fill="url(#SVGID_73_)"
   points="200.324,385.29 196.575,382.434 193.475,380.645 190.949,381.132 194.863,387.167     196.654,387.247 197.714,389.612 201.221,391.243 203.745,392.625 205.215,391.814 203.583,388.468   "
   id="polygon748" />
	</g>
	<g
   id="ak_1">
		<radialGradient
   id="SVGID_74_"
   cx="196.6235"
   cy="380.2451"
   r="2.1122"
   gradientUnits="userSpaceOnUse">
			<stop
   offset="0"
   style="stop-color:#A5B765;stop-opacity:0.75"
   id="stop752" />
			<stop
   offset="0.9447"
   style="stop-color:#A5B765;stop-opacity:0.9862"
   id="stop754" />
			<stop
   offset="1"
   style="stop-color:#A5B765"
   id="stop756" />
		</radialGradient>
		<polygon
   fill="url(#SVGID_74_)"
   points="199.042,381.432 198.223,379.718 196.185,378.492 194.367,378.659 194.205,380.295     194.228,380.332 198.223,381.998   "
   id="polygon758" />
	</g>
	<g
   id="ak_0">
		<radialGradient
   id="SVGID_75_"
   cx="205.7568"
   cy="384.0928"
   r="2.6899"
   gradientUnits="userSpaceOnUse">
			<stop
   offset="0"
   style="stop-color:#A5B765;stop-opacity:0.75"
   id="stop762" />
			<stop
   offset="0.9447"
   style="stop-color:#A5B765;stop-opacity:0.9862"
   id="stop764" />
			<stop
   offset="1"
   style="stop-color:#A5B765"
   id="stop766" />
		</radialGradient>
		<polygon
   fill="url(#SVGID_75_)"
   points="203.607,381.508 203.831,386.66 207.906,387.231 204.729,380.954   "
   id="polygon768" />
	</g>
</g>
</svg>
