<?xml version="1.0" encoding="utf-8"?>
<!-- Generator: Adobe Illustrator 15.0.1, SVG Export Plug-In . SVG Version: 6.00 Build 0)  -->
<!DOCTYPE svg PUBLIC "-//W3C//DTD SVG 1.1//EN" "http://www.w3.org/Graphics/SVG/1.1/DTD/svg11.dtd">
<svg version="1.1" id="Layer_1" xmlns="http://www.w3.org/2000/svg" xmlns:xlink="http://www.w3.org/1999/xlink" x="0px" y="0px"
	 width="570px" height="441px" viewBox="-67 -50 570 441" enable-background="new -67 -50 570 441" xml:space="preserve">
<g id="California_1_">
	
		<radialGradient id="SVGID_1_" cx="-3.8916" cy="235.7549" r="57.1547" gradientTransform="matrix(1 0 0 -1 0 342)" gradientUnits="userSpaceOnUse">
		<stop  offset="0" style="stop-color:#A5B765;stop-opacity:0.75"/>
		<stop  offset="0.9447" style="stop-color:#A5B765;stop-opacity:0.9862"/>
		<stop  offset="1" style="stop-color:#A5B765"/>
	</radialGradient>
	<polygon fill="url(#SVGID_1_)" points="-37.764,36.671 0.913,46.34 -6.132,76.219 -8.271,84.776 21.68,128.435 34.359,147.136 
		35.193,151.82 37.253,157.342 37.158,159.026 28.02,175.818 2.188,173.124 1.635,165.438 -4.705,155.533 -28.001,138.339 
		-27.128,134.141 -28.317,129.307 -27.843,127.881 -34.896,110.527 -32.517,109.101 -32.994,105.693 -35.449,104.822 
		-37.113,96.977 -35.449,96.58 -34.184,98.007 -33.149,98.091 -33.469,95.076 -34.579,92.303 -33.943,89.45 -34.816,89.766 
		-36.005,92.598 -36.795,92.619 -39.253,88.26 -44.006,76.059 -42.025,68.295 -41.946,64.809 -45.036,58.23 -44.084,54.349 
		-40.441,49.831 	"/>
</g>
<g id="Oregon_1_">
	
		<radialGradient id="SVGID_2_" cx="2.3711" cy="325.2881" r="37.4682" gradientTransform="matrix(1 0 0 -1 0 342)" gradientUnits="userSpaceOnUse">
		<stop  offset="0" style="stop-color:#D5D6C3;stop-opacity:0.6"/>
		<stop  offset="0.9447" style="stop-color:#D5D6C3;stop-opacity:0.9779"/>
		<stop  offset="1" style="stop-color:#D5D6C3"/>
	</radialGradient>
	<polygon fill="url(#SVGID_2_)" points="-37.324,35.133 -38.277,29.309 -36.774,25.744 -37.168,22.417 -34,17.03 -32.334,17.109 
		-32.89,16.395 -27.104,4.431 -19.895,-17.28 -11.943,-13.76 -11.573,-7.536 -7.849,-5.314 22.102,-3.573 40.563,0.469 
		43.019,4.431 42.856,6.887 33.826,18.773 33.275,21.307 35.648,23.368 33.51,27.885 28.757,50.704 	"/>
</g>
<g id="Washington_1_">
	
		<radialGradient id="SVGID_3_" cx="13.6987" cy="367.3975" r="29.5463" gradientTransform="matrix(1 0 0 -1 0 342)" gradientUnits="userSpaceOnUse">
		<stop  offset="0" style="stop-color:#D5D6C3;stop-opacity:0.6"/>
		<stop  offset="0.9447" style="stop-color:#D5D6C3;stop-opacity:0.9779"/>
		<stop  offset="1" style="stop-color:#D5D6C3"/>
	</radialGradient>
	<polygon fill="url(#SVGID_3_)" points="-20.075,-19.915 -18.435,-26.837 -15.678,-27.496 -18.347,-30.018 -18.138,-37.561 
		-19.402,-41.838 -18.452,-47.305 -5.853,-40.888 -3.702,-36.285 -7.767,-31.122 -8.868,-27.496 -5.46,-26.067 -1.733,-29.636 
		0.802,-36.294 -0.735,-46.944 -0.148,-50 11.341,-46.91 24.334,-43.661 39.391,-40.176 47.473,-38.513 47.392,-38.034 
		41.214,-9.192 40.896,-0.795 22.434,-4.835 -7.517,-6.577 -10.734,-8.378 -11.161,-14.663 	"/>
</g>
<g id="Nevada_1_">
	
		<radialGradient id="SVGID_4_" cx="25.5483" cy="245.7227" r="41.3807" gradientTransform="matrix(1 0 0 -1 0 342)" gradientUnits="userSpaceOnUse">
		<stop  offset="0" style="stop-color:#75AFA5;stop-opacity:0.75"/>
		<stop  offset="0.9447" style="stop-color:#75AFA5;stop-opacity:0.9862"/>
		<stop  offset="1" style="stop-color:#75AFA5"/>
	</radialGradient>
	<polygon fill="url(#SVGID_4_)" points="2.561,46.999 57.114,58.207 45.75,122.28 43.93,132.343 41.786,134.02 40.138,132.372 
		36.812,134.675 35.193,145.557 -6.017,84.404 	"/>
</g>
<g id="Arizona_1_">
	
		<radialGradient id="SVGID_5_" cx="62.8135" cy="177.5156" r="37.3577" gradientTransform="matrix(1 0 0 -1 0 342)" gradientUnits="userSpaceOnUse">
		<stop  offset="0" style="stop-color:#75AFA5;stop-opacity:0.75"/>
		<stop  offset="0.9447" style="stop-color:#75AFA5;stop-opacity:0.9862"/>
		<stop  offset="1" style="stop-color:#75AFA5"/>
	</radialGradient>
	<polygon fill="url(#SVGID_5_)" points="39.202,159.256 39.36,157.669 36.19,150.539 38.49,135.833 40.547,134.614 42.449,136.355 
		45.067,134.374 46.889,124.31 97.124,131.995 87.932,204.658 66.305,201.724 28.503,180.094 	"/>
</g>
<g id="Idaho_1_">
	
		<radialGradient id="SVGID_6_" cx="60.7109" cy="330.5283" r="41.0595" gradientTransform="matrix(1 0 0 -1 0 342)" gradientUnits="userSpaceOnUse">
		<stop  offset="0" style="stop-color:#D5D6C3;stop-opacity:0.6"/>
		<stop  offset="0.9447" style="stop-color:#D5D6C3;stop-opacity:0.9779"/>
		<stop  offset="1" style="stop-color:#D5D6C3"/>
	</radialGradient>
	<polygon fill="url(#SVGID_6_)" points="30.414,50.955 35.255,27.732 37.613,23.105 35.241,21.042 35.852,18.981 44.752,7.225 
		44.972,4.148 42.445,-0.247 42.627,-8.083 49.052,-38.064 57.372,-36.319 54.67,-23.061 56.73,-18.543 56.096,-15.853 
		61.801,-6.579 66.318,-3.49 61.801,9.905 63.544,11.33 67.055,10.411 68.616,10.851 73.289,26.064 73.765,26.939 88.48,26.565 
		91.008,28.76 86.121,61.008 	"/>
</g>
<g id="Utah_1_">
	
		<radialGradient id="SVGID_7_" cx="75.6406" cy="247.8496" r="32.2621" gradientTransform="matrix(1 0 0 -1 0 342)" gradientUnits="userSpaceOnUse">
		<stop  offset="0" style="stop-color:#75AFA5;stop-opacity:0.75"/>
		<stop  offset="0.9447" style="stop-color:#75AFA5;stop-opacity:0.9862"/>
		<stop  offset="1" style="stop-color:#75AFA5"/>
	</radialGradient>
	<polygon fill="url(#SVGID_7_)" points="47.274,122.199 58.684,58.415 85.635,63.011 83.734,76.395 104.007,79.015 97.509,129.886 
		83.642,128.065 70.252,126.083 56.544,123.867 	"/>
</g>
<g id="Montana_1_">
	
		<radialGradient id="SVGID_8_" cx="108.3145" cy="345.668" r="43.4708" gradientTransform="matrix(1 0 0 -1 0 342)" gradientUnits="userSpaceOnUse">
		<stop  offset="0" style="stop-color:#D5D6C3;stop-opacity:0.6"/>
		<stop  offset="0.9447" style="stop-color:#D5D6C3;stop-opacity:0.9779"/>
		<stop  offset="1" style="stop-color:#D5D6C3"/>
	</radialGradient>
	<polygon fill="url(#SVGID_8_)" points="58.159,-18.999 56.097,-23.517 58.635,-36.116 71.072,-33.661 92.941,-29.934 
		112.118,-27.161 124.556,-25.658 137.79,-24.151 154.35,-22.644 160.531,-22.172 157.264,28.78 92.106,21.839 91.229,27.223 
		88.701,24.916 74.717,25.607 69.692,9.642 68.374,8.983 64.181,9.761 63.466,8.573 64.972,3.501 67.746,-3.948 63.229,-7.038 
		57.523,-16.31 	"/>
</g>
<g id="Wyoming_2_">
	
		<radialGradient id="SVGID_9_" cx="121.4243" cy="288.8291" r="32.4393" gradientTransform="matrix(1 0 0 -1 0 342)" gradientUnits="userSpaceOnUse">
		<stop  offset="0" style="stop-color:#D5D6C3;stop-opacity:0.6"/>
		<stop  offset="0.9447" style="stop-color:#D5D6C3;stop-opacity:0.9779"/>
		<stop  offset="1" style="stop-color:#D5D6C3"/>
	</radialGradient>
	<polygon fill="url(#SVGID_9_)" points="93.372,24.366 157.129,30.474 153.563,81.977 138.508,80.786 130.188,79.995 
		114.578,78.332 105.388,77.224 85.719,75.264 	"/>
</g>
<g>
	
		<radialGradient id="SVGID_10_" cx="124.8496" cy="173.0234" r="35.9594" gradientTransform="matrix(1 0 0 -1 0 342)" gradientUnits="userSpaceOnUse">
		<stop  offset="0" style="stop-color:#D5D6C3;stop-opacity:0.6"/>
		<stop  offset="0.9447" style="stop-color:#D5D6C3;stop-opacity:0.9779"/>
		<stop  offset="1" style="stop-color:#D5D6C3"/>
	</radialGradient>
	<polygon fill="url(#SVGID_10_)" points="89.798,204.791 98.989,132.132 115.788,134.111 130.765,135.619 148.83,137.124 
		159.901,137.976 155.487,201.544 115.952,198.079 116.72,202.034 99.941,200.193 98.198,205.822 	"/>
</g>
<g id="Colorado_1_">
	
		<radialGradient id="SVGID_11_" cx="136.2612" cy="233.9814" r="33.0388" gradientTransform="matrix(1 0 0 -1 0 342)" gradientUnits="userSpaceOnUse">
		<stop  offset="0" style="stop-color:#D5D6C3;stop-opacity:0.6"/>
		<stop  offset="0.9447" style="stop-color:#D5D6C3;stop-opacity:0.9779"/>
		<stop  offset="1" style="stop-color:#D5D6C3"/>
	</radialGradient>
	<polygon fill="url(#SVGID_11_)" points="99.326,130.294 105.824,79.403 115.014,80.511 130.623,82.177 138.945,82.968 154,84.156 
		162.794,84.789 173.197,85.436 172.458,97.727 170.557,136.635 160.576,136 149.166,135.287 131.101,133.781 116.124,132.275 	"/>
</g>
<g id="Texas_1_">
	
		<radialGradient id="SVGID_12_" cx="189.8789" cy="126.7104" r="70.3873" gradientTransform="matrix(1 0 0 -1 0 342)" gradientUnits="userSpaceOnUse">
		<stop  offset="0" style="stop-color:#A5B765;stop-opacity:0.75"/>
		<stop  offset="0.9447" style="stop-color:#A5B765;stop-opacity:0.9862"/>
		<stop  offset="1" style="stop-color:#A5B765"/>
	</radialGradient>
	<polygon fill="url(#SVGID_12_)" points="118.528,200.554 157.155,204.012 161.314,145.879 192.425,147.097 191.661,172.027 
		213.215,180.827 230.488,183.835 234.37,181.296 242.474,181.319 254.575,185.341 255.21,205.385 261.229,217.271 259.806,229.156 
		257.238,235.375 249.105,238.585 249.12,235.545 247.842,234.227 244.989,235.339 246.97,239.141 246.572,240.17 243.721,243.734 
		240.156,246.43 234.054,248.966 230.093,248.568 228.744,250.392 229.934,251.419 227.318,253.085 224.623,255.145 
		222.878,256.492 220.821,259.578 219.951,261.722 218.284,265.841 214.323,264.257 215.035,266.476 218.046,267.349 
		217.575,269.883 218.125,276.696 221.375,282.244 218.284,284.7 215.669,282.483 204.022,279.55 198.794,277.173 194.99,268.06 
		195.148,266.396 194.277,265.763 194.752,264.021 194.513,262.434 193.485,261.405 192.14,261.008 186.43,253.562 182.077,242.627 
		172.565,232.8 159.808,233.514 154.418,242.23 151.408,241.674 139.604,233.039 134.292,218.856 	"/>
</g>
<g id="Nebraska_1_">
	
		<radialGradient id="SVGID_13_" cx="197.6787" cy="264.418" r="33.1757" gradientTransform="matrix(1 0 0 -1 0 342)" gradientUnits="userSpaceOnUse">
		<stop  offset="0" style="stop-color:#D5D6C3;stop-opacity:0.6"/>
		<stop  offset="0.9447" style="stop-color:#D5D6C3;stop-opacity:0.9779"/>
		<stop  offset="1" style="stop-color:#D5D6C3"/>
	</radialGradient>
	<polygon fill="url(#SVGID_13_)" points="155.518,82.17 157.262,56.996 167.26,57.6 183.424,58.47 199.033,59.025 208.796,59.305 
		215.434,61.006 220.742,60.847 228.903,66.227 232.849,78.448 234.616,81.39 234.728,88.971 239.839,98.009 223.437,98.167 
		210.837,98.09 186.752,97.456 174.308,96.823 175.064,83.369 	"/>
</g>
<g id="South_Dakota_1_">
	
		<radialGradient id="SVGID_14_" cx="192.7925" cy="300.6445" r="30.0793" gradientTransform="matrix(1 0 0 -1 0 342)" gradientUnits="userSpaceOnUse">
		<stop  offset="0" style="stop-color:#75AFA5;stop-opacity:0.75"/>
		<stop  offset="0.9447" style="stop-color:#75AFA5;stop-opacity:0.9862"/>
		<stop  offset="1" style="stop-color:#75AFA5"/>
	</radialGradient>
	<polygon fill="url(#SVGID_14_)" points="157.113,55.911 159.763,18.192 176.301,19.114 194.049,19.908 210.531,20.301 
		227.252,20.38 225.605,23.486 225.826,26.233 228.422,28.623 228.472,51.208 226.822,51.208 227.255,61.173 228.123,64.517 
		225.27,62.378 220.594,59.763 215.285,59.919 209.263,58.097 198.884,57.936 183.275,57.384 167.11,56.513 	"/>
</g>
<g id="North_Dakota_1_">
	
		<radialGradient id="SVGID_15_" cx="193.5352" cy="343.4492" r="27.9354" gradientTransform="matrix(1 0 0 -1 0 342)" gradientUnits="userSpaceOnUse">
		<stop  offset="0" style="stop-color:#D5D6C3;stop-opacity:0.6"/>
		<stop  offset="0.9447" style="stop-color:#D5D6C3;stop-opacity:0.9779"/>
		<stop  offset="1" style="stop-color:#D5D6C3"/>
	</radialGradient>
	<polygon fill="url(#SVGID_15_)" points="159.792,16.91 162.484,-21.679 162.484,-21.996 176.489,-21.234 196.614,-20.363 
		213.81,-19.964 221.417,-19.964 225.532,11.967 226.962,14.896 227.278,19.099 210.561,19.017 194.078,18.623 176.33,17.829 	"/>
</g>
<g id="Oklahoma_1_">
	
		<radialGradient id="SVGID_16_" cx="206.0859" cy="181.8711" r="34.9445" gradientTransform="matrix(1 0 0 -1 0 342)" gradientUnits="userSpaceOnUse">
		<stop  offset="0" style="stop-color:#D5D6C3;stop-opacity:0.6"/>
		<stop  offset="0.9447" style="stop-color:#D5D6C3;stop-opacity:0.9779"/>
		<stop  offset="1" style="stop-color:#D5D6C3"/>
	</radialGradient>
	<polygon fill="url(#SVGID_16_)" points="161.843,144.066 162.24,138.111 172.661,138.744 188.907,139.456 211.964,140.011 
		235.181,140.011 247.859,139.774 248.018,145.651 249.84,156.509 250.236,160.073 250.329,182.035 242.089,179.617 
		233.848,179.839 230.222,182.146 213.85,179.398 193.802,171.029 194.595,145.228 	"/>
</g>
<g id="Kansas_1_">
	
		<radialGradient id="SVGID_17_" cx="210.2168" cy="223.875" r="30.2452" gradientTransform="matrix(1 0 0 -1 0 342)" gradientUnits="userSpaceOnUse">
		<stop  offset="0" style="stop-color:#D5D6C3;stop-opacity:0.6"/>
		<stop  offset="0.9447" style="stop-color:#D5D6C3;stop-opacity:0.9779"/>
		<stop  offset="1" style="stop-color:#D5D6C3"/>
	</radialGradient>
	<polygon fill="url(#SVGID_17_)" points="172.453,136.946 174.354,98.04 187.128,98.674 211.214,99.31 223.812,99.386 
		240.215,99.229 244.494,101.525 242.437,104.697 247.347,110.477 247.98,137.974 235.303,138.212 212.086,138.212 189.028,137.658 
			"/>
</g>
<g id="Minnesota_1_">
	
		<radialGradient id="SVGID_18_" cx="256.4551" cy="328.2031" r="35.3674" gradientTransform="matrix(1 0 0 -1 0 342)" gradientUnits="userSpaceOnUse">
		<stop  offset="0" style="stop-color:#75AFA5;stop-opacity:0.75"/>
		<stop  offset="0.9447" style="stop-color:#75AFA5;stop-opacity:0.9862"/>
		<stop  offset="1" style="stop-color:#75AFA5"/>
	</radialGradient>
	<polygon fill="url(#SVGID_18_)" points="223.299,-19.805 234.491,-19.754 240.989,-19.915 241.099,-23.65 243.732,-23.246 
		245.555,-16.354 253.405,-14.091 259.66,-15.483 272.523,-8.597 277.027,-11.234 278.6,-11.441 279.233,-9.855 285.097,-10.412 
		289.612,-9.382 284.542,-6.134 276.457,-0.666 273.449,3.135 266.949,9.237 266.63,17.481 263.383,19.46 261.895,22.277 
		264.194,25.765 262.757,34.511 276.781,44.575 278.566,49.636 269.169,50.216 255.858,50.772 239.851,51.168 230.267,51.245 
		230.107,27.781 227.711,25.333 227.584,23.158 229.156,19.541 228.678,14.547 227.096,10.744 	"/>
</g>
<g id="Iowa_1_">
	
		<radialGradient id="SVGID_19_" cx="259.2988" cy="271.3926" r="25.744" gradientTransform="matrix(1 0 0 -1 0 342)" gradientUnits="userSpaceOnUse">
		<stop  offset="0" style="stop-color:#D5D6C3;stop-opacity:0.6"/>
		<stop  offset="0.9447" style="stop-color:#D5D6C3;stop-opacity:0.9779"/>
		<stop  offset="1" style="stop-color:#D5D6C3"/>
	</radialGradient>
	<polygon fill="url(#SVGID_19_)" points="228.574,61.502 228.574,52.712 239.946,52.58 255.953,52.184 269.265,51.629 
		278.932,51.075 282.412,61.008 290.023,68.505 288.756,75.162 284.39,79.467 281.942,87.443 278.951,88.861 276.588,88.394 
		269.738,89.105 254.842,89.98 248.028,90.138 237.251,90.059 236.224,88.711 235.905,80.787 234.004,77.853 	"/>
</g>
<g id="Missouri_1_">
	
		<radialGradient id="SVGID_20_" cx="271.6904" cy="222.5654" r="31.9126" gradientTransform="matrix(1 0 0 -1 0 342)" gradientUnits="userSpaceOnUse">
		<stop  offset="0" style="stop-color:#D5D6C3;stop-opacity:0.6"/>
		<stop  offset="0.9447" style="stop-color:#D5D6C3;stop-opacity:0.9779"/>
		<stop  offset="1" style="stop-color:#D5D6C3"/>
	</radialGradient>
	<polygon fill="url(#SVGID_20_)" points="237.618,91.501 248.396,91.58 255.209,91.423 270.103,90.552 276.525,89.839 
		279.613,92.928 288.172,110.915 293.796,112.34 291.735,119.157 305.763,135.955 305.442,139.442 303.306,140.71 300.453,148.393 
		294.509,149.03 296.413,143.561 294.984,142.291 276.441,143.48 260.2,144.197 249.979,144.431 249.449,109.81 244.67,104.848 
		246.978,101.058 241.38,98.278 	"/>
</g>
<g id="Arkansas_1_">
	
		<radialGradient id="SVGID_21_" cx="275.332" cy="174.6973" r="24.4185" gradientTransform="matrix(1 0 0 -1 0 342)" gradientUnits="userSpaceOnUse">
		<stop  offset="0" style="stop-color:#D5D6C3;stop-opacity:0.6"/>
		<stop  offset="0.9447" style="stop-color:#D5D6C3;stop-opacity:0.9779"/>
		<stop  offset="1" style="stop-color:#D5D6C3"/>
	</radialGradient>
	<polygon fill="url(#SVGID_21_)" points="250.095,145.87 260.315,145.631 276.558,144.917 295.099,143.73 292.631,150.666 
		300.568,149.831 299.063,153.318 298.667,155.218 297.559,161.479 287.02,180.655 286.862,182.079 286.94,183.744 287.968,187.626 
		288.048,189.446 270.616,190.399 256.701,190.876 256.512,184.124 252.473,182.792 252.312,160.29 251.918,156.725 	"/>
</g>
<g id="Louisiana_1_">
	
		<radialGradient id="SVGID_22_" cx="285.5391" cy="126.3135" r="26.7882" gradientTransform="matrix(1 0 0 -1 0 342)" gradientUnits="userSpaceOnUse">
		<stop  offset="0" style="stop-color:#A5B765;stop-opacity:0.75"/>
		<stop  offset="0.9447" style="stop-color:#A5B765;stop-opacity:0.9862"/>
		<stop  offset="1" style="stop-color:#A5B765"/>
	</radialGradient>
	<polygon fill="url(#SVGID_22_)" points="256.866,192.352 270.948,191.875 288.378,190.925 288.775,194.091 291.707,199.48 
		286.003,209.307 283.896,217.086 305.812,215.724 304.861,219.844 308.508,225.788 307.95,226.421 305.097,225.471 
		300.741,224.281 298.918,226.816 300.03,228.086 303.67,227.848 309.612,230.939 307.793,234.659 314.211,237.275 312.466,240.448 
		304.826,236.534 304.146,237.835 302.722,240.287 291.707,239.493 289.49,236.246 285.687,233.235 280.456,233.552 
		280.932,235.532 278.159,236.246 266.273,233.791 259.739,234.768 261.719,229.852 263.459,217.251 257.263,205.423 	"/>
</g>
<g id="Wisconsin_1_">
	
		<radialGradient id="SVGID_23_" cx="288.6367" cy="308.2148" r="27.0808" gradientTransform="matrix(1 0 0 -1 0 342)" gradientUnits="userSpaceOnUse">
		<stop  offset="0" style="stop-color:#A5B765;stop-opacity:0.75"/>
		<stop  offset="0.9447" style="stop-color:#A5B765;stop-opacity:0.9862"/>
		<stop  offset="1" style="stop-color:#A5B765"/>
	</radialGradient>
	<polygon fill="url(#SVGID_23_)" points="269.424,8.648 270.546,9.642 280.278,5.26 281.15,5.894 279.882,9.699 281.547,9.223 
		287.648,12.868 305,16.273 311.419,26.73 309.518,28.95 308.091,33.308 309.438,33.39 310.944,31.09 313.081,29.348 314.191,31.01 
		313.161,34.179 313.398,38.303 312.134,40.204 311.021,49.551 311.181,53.751 311.892,55.417 312.768,60.41 286.065,62.31 
		283.896,60.35 280.104,50.077 278.241,44.022 264.393,34.144 265.821,25.903 263.083,22.454 264.351,20.186 267.799,18.431 
		267.916,10.073 	"/>
</g>
<g id="Illinois_1_">
	
		<radialGradient id="SVGID_24_" cx="299.3887" cy="244.2012" r="29.1263" gradientTransform="matrix(1 0 0 -1 0 342)" gradientUnits="userSpaceOnUse">
		<stop  offset="0" style="stop-color:#D5D6C3;stop-opacity:0.6"/>
		<stop  offset="0.9447" style="stop-color:#D5D6C3;stop-opacity:0.9779"/>
		<stop  offset="1" style="stop-color:#D5D6C3"/>
	</radialGradient>
	<polygon fill="url(#SVGID_24_)" points="279.116,90.015 283.163,88.258 285.873,79.797 289.993,76.117 291.532,68.206 
		287.356,63.701 312.737,61.942 313.275,65.599 314.143,67.183 316.034,72.015 319.66,110.911 316.198,117.174 316.361,126.688 
		308.947,132.868 305.98,133.655 293.619,118.822 295.762,111.076 289.169,109.592 280.764,91.994 	"/>
</g>
<g id="Mississippi_1_">
	
		<radialGradient id="SVGID_25_" cx="303.2998" cy="148.5835" r="25.4854" gradientTransform="matrix(1 0 0 -1 0 342)" gradientUnits="userSpaceOnUse">
		<stop  offset="0" style="stop-color:#75AFA5;stop-opacity:0.75"/>
		<stop  offset="0.9447" style="stop-color:#75AFA5;stop-opacity:0.9862"/>
		<stop  offset="1" style="stop-color:#75AFA5"/>
	</radialGradient>
	<polygon fill="url(#SVGID_25_)" points="289.169,187.42 288.022,182.873 288.892,180.102 297.575,164.346 319.165,162.038 
		318.417,202.207 321.031,221.698 316.138,222.175 309.606,224.795 306.518,219.162 307.466,214.382 285.568,215.812 
		287.467,209.021 293.509,200.057 290.158,193.848 	"/>
</g>
<g id="Tennessee_1_">
	
		<radialGradient id="SVGID_26_" cx="340.9199" cy="194.7119" r="31.9907" gradientTransform="matrix(1 0 0 -1 0 342)" gradientUnits="userSpaceOnUse">
		<stop  offset="0" style="stop-color:#D5D6C3;stop-opacity:0.6"/>
		<stop  offset="0.9447" style="stop-color:#D5D6C3;stop-opacity:0.9779"/>
		<stop  offset="1" style="stop-color:#D5D6C3"/>
	</radialGradient>
	<polygon fill="url(#SVGID_26_)" points="298.344,162.588 300.539,153.188 304.167,143.214 320.979,141.896 320.648,139.423 
		367.678,134.167 383.496,131.988 377.344,139.752 374.829,139.953 359.544,152.277 359.648,156.514 	"/>
</g>
<g id="Kentucky_1_">
	
		<radialGradient id="SVGID_27_" cx="341.8047" cy="219.4268" r="29.5812" gradientTransform="matrix(1 0 0 -1 0 342)" gradientUnits="userSpaceOnUse">
		<stop  offset="0" style="stop-color:#D5D6C3;stop-opacity:0.6"/>
		<stop  offset="0.9447" style="stop-color:#D5D6C3;stop-opacity:0.9779"/>
		<stop  offset="1" style="stop-color:#D5D6C3"/>
	</radialGradient>
	<polygon fill="url(#SVGID_27_)" points="304.662,141.823 306.969,139.953 307.458,135.075 310.484,133.965 317.956,127.537 
		318.177,123.638 323.56,122.098 326.636,123.638 339.052,119.187 339.725,115.191 349.161,107.199 348.708,103.324 
		353.035,103.954 354.781,106.568 365.078,107.518 367.379,105.456 371.023,109.263 371.102,112.668 378.947,119.563 
		369.433,130.688 366.112,132.792 318.729,138.184 319.202,140.638 	"/>
</g>
<g id="Indiana_1_">
	
		<radialGradient id="SVGID_28_" cx="332.5918" cy="246.6074" r="21.6751" gradientTransform="matrix(1 0 0 -1 0 342)" gradientUnits="userSpaceOnUse">
		<stop  offset="0" style="stop-color:#D5D6C3;stop-opacity:0.6"/>
		<stop  offset="0.9447" style="stop-color:#D5D6C3;stop-opacity:0.9779"/>
		<stop  offset="1" style="stop-color:#D5D6C3"/>
	</radialGradient>
	<polygon fill="url(#SVGID_28_)" points="317.847,121.989 317.682,117.539 321.368,111.081 317.729,72.015 322.48,71.938 
		324.145,70.748 329.215,70.272 342.113,68.609 343.064,69.322 347.501,106.721 338.225,114.653 337.588,118.06 326.841,122.175 
		323.507,120.587 	"/>
</g>
<g id="Ohio_3_">
	
		<radialGradient id="SVGID_29_" cx="339.4805" cy="150.958" r="26.3104" gradientTransform="matrix(1 0 0 -1 0 342)" gradientUnits="userSpaceOnUse">
		<stop  offset="0" style="stop-color:#D5D6C3;stop-opacity:0.6"/>
		<stop  offset="0.9447" style="stop-color:#D5D6C3;stop-opacity:0.9779"/>
		<stop  offset="1" style="stop-color:#D5D6C3"/>
	</radialGradient>
	<polygon fill="url(#SVGID_29_)" points="346.136,159.347 356.907,193.683 356.199,199.441 358.973,209.821 331.556,212.909 
		330.527,214.575 333.379,217.428 333.062,220.915 329.416,222.736 327.198,217.583 326.089,217.982 325.771,221.787 
		322.604,221.626 319.989,202.135 320.979,162.038 	"/>
</g>
<g>
	
		<radialGradient id="SVGID_30_" cx="304.0762" cy="343.0967" r="3.6226" gradientTransform="matrix(1 0 0 -1 0 342)" gradientUnits="userSpaceOnUse">
		<stop  offset="0" style="stop-color:#D5D6C3;stop-opacity:0.6"/>
		<stop  offset="0.9447" style="stop-color:#D5D6C3;stop-opacity:0.9779"/>
		<stop  offset="1" style="stop-color:#D5D6C3"/>
	</radialGradient>
	<polygon fill="url(#SVGID_30_)" points="305.016,-1.748 307.955,-3.956 305.428,-4.443 301.913,-2.81 300.197,-0.279 302.322,2.25 
			"/>
</g>
<g>
	
		<radialGradient id="SVGID_31_" cx="314.4512" cy="329.4922" r="23.0418" gradientTransform="matrix(1 0 0 -1 0 342)" gradientUnits="userSpaceOnUse">
		<stop  offset="0" style="stop-color:#D5D6C3;stop-opacity:0.6"/>
		<stop  offset="0.9447" style="stop-color:#D5D6C3;stop-opacity:0.9779"/>
		<stop  offset="1" style="stop-color:#D5D6C3"/>
	</radialGradient>
	<polygon fill="url(#SVGID_31_)" points="329.687,11.401 334.752,11.893 337.364,13.69 339.243,11.567 344.062,11.32 344.39,10.26 
		341.529,8.055 339.977,4.621 337.364,5.192 333.605,4.87 333.525,1.846 322.09,5.357 319.067,8.135 315.798,6.994 312.123,7.401 
		307.058,2.909 304.28,2.58 302.076,5.031 301.995,2.499 299.461,-0.358 284.512,9.198 288.346,11.694 305.815,14.825 
		312.573,25.373 315.145,19.163 320.865,15.651 319.557,18.264 320.372,18.346 322.661,15.978 328.135,13.201 	"/>
</g>
<g>
	
		<radialGradient id="SVGID_32_" cx="344.1035" cy="299.8418" r="23.6174" gradientTransform="matrix(1 0 0 -1 0 342)" gradientUnits="userSpaceOnUse">
		<stop  offset="0" style="stop-color:#D5D6C3;stop-opacity:0.6"/>
		<stop  offset="0.9447" style="stop-color:#D5D6C3;stop-opacity:0.9779"/>
		<stop  offset="1" style="stop-color:#D5D6C3"/>
	</radialGradient>
	<polygon fill="url(#SVGID_32_)" points="361.656,42.038 359.359,36.333 356.903,35.067 353.177,37.442 352.941,39.662 
		351.118,41.961 348.425,40.615 348.503,37.68 350.245,36.886 352.941,31.896 352.703,27.616 351.909,25.16 350.563,23.814 
		350.879,22.783 351.672,22.625 351.672,21.834 349.453,19.378 343.114,17.077 337.569,15.179 336.062,16.204 334.795,18.029 
		332.735,22.783 333.131,25.323 332.735,27.934 331.704,28.013 330.909,26.351 330.596,24.134 328.141,27.062 325.682,30.786 
		326.158,32.375 326.081,35.46 325.128,37.919 324.415,38.79 324.729,45.288 327.348,50.12 328.455,52.656 328.932,58.443 
		327.269,63.986 324.494,69.137 342.956,67 343.908,67.71 356.425,65.494 358.406,61.371 358.487,58.916 359.043,57.568 
		360.625,56.062 360.546,54.32 361.261,52.814 362.13,52.339 362.608,53.924 363.638,52.893 363.793,47.745 	"/>
</g>
<g id="Florida_1_">
	
		<radialGradient id="SVGID_33_" cx="378.2988" cy="98.4995" r="41.0036" gradientTransform="matrix(1 0 0 -1 0 342)" gradientUnits="userSpaceOnUse">
		<stop  offset="0" style="stop-color:#75AFA5;stop-opacity:0.75"/>
		<stop  offset="0.9447" style="stop-color:#75AFA5;stop-opacity:0.9862"/>
		<stop  offset="1" style="stop-color:#75AFA5"/>
	</radialGradient>
	<polygon fill="url(#SVGID_33_)" points="335.043,217.305 331.956,214.166 359.373,211.073 361.632,215.108 390.163,212.998 
		391.683,214.906 394.16,213.834 394.238,212.092 393.766,208.843 394.814,208.645 398.275,209.632 402.057,217.503 
		410.692,234.541 422.422,253.713 422.976,254.982 424.084,261.877 424.642,267.897 422.896,277.167 419.252,278.356 
		417.585,278.201 412.91,274.791 410.46,271.066 405.859,270.037 400.951,263.302 400.551,259.419 399.995,258.628 399.205,258.708 
		399.44,260.21 397.54,259.894 391.996,252.843 394.688,248.009 393.818,246.504 392.629,247.376 391.678,249.832 389.459,248.009 
		390.569,239.137 385.497,231.61 372.662,221.547 369.729,221.863 364.339,226.935 357.922,228.28 357.447,225.584 349.763,221.782 
		343.66,220.91 339.223,221.469 334.151,223.29 	"/>
</g>
<g id="Ohio_2_">
	
		<radialGradient id="SVGID_34_" cx="365.7314" cy="258.5928" r="22.6913" gradientTransform="matrix(1 0 0 -1 0 342)" gradientUnits="userSpaceOnUse">
		<stop  offset="0" style="stop-color:#D5D6C3;stop-opacity:0.6"/>
		<stop  offset="0.9447" style="stop-color:#D5D6C3;stop-opacity:0.9779"/>
		<stop  offset="1" style="stop-color:#D5D6C3"/>
	</radialGradient>
	<polygon fill="url(#SVGID_34_)" points="344.56,68.958 357.077,66.74 367.143,69.83 373.798,67.452 384.257,59.292 386.903,75.312 
		385.348,89.455 378.005,100.061 375.455,99.348 374.974,104.59 371.816,107.522 368.094,103.637 364.209,106.096 355.496,104.747 
		353.749,102.133 348.521,101.817 	"/>
</g>
<g id="Georgia_1_">
	
		<radialGradient id="SVGID_35_" cx="375.3506" cy="157.3447" r="28.1985" gradientTransform="matrix(1 0 0 -1 0 342)" gradientUnits="userSpaceOnUse">
		<stop  offset="0" style="stop-color:#D5D6C3;stop-opacity:0.6"/>
		<stop  offset="0.9447" style="stop-color:#D5D6C3;stop-opacity:0.9779"/>
		<stop  offset="1" style="stop-color:#D5D6C3"/>
	</radialGradient>
	<polygon fill="url(#SVGID_35_)" points="347.545,159.141 372.234,156.069 370.752,160.188 394.204,179.504 395.787,183.309 
		397.768,184.338 400.066,189.328 403.156,190.044 401.255,193.291 397.848,207.952 394.044,207.079 392.283,208.584 
		392.916,212.706 391.825,213.18 390.32,210.96 362.401,213.241 360.381,209.613 357.609,199.232 358.665,193.683 	"/>
</g>
<g id="North_Carolina_1_">
	
		<radialGradient id="SVGID_36_" cx="404.8105" cy="200.6797" r="33.5013" gradientTransform="matrix(1 0 0 -1 0 342)" gradientUnits="userSpaceOnUse">
		<stop  offset="0" style="stop-color:#75AFA5;stop-opacity:0.75"/>
		<stop  offset="0.9447" style="stop-color:#75AFA5;stop-opacity:0.9862"/>
		<stop  offset="1" style="stop-color:#75AFA5"/>
	</radialGradient>
	<polygon fill="url(#SVGID_36_)" points="361.852,156.069 361.572,153.005 375.681,141.198 378.136,141.122 385.749,131.513 
		443.269,121.952 444.852,126.066 438.115,129.156 437.404,129.791 437.562,130.662 447.067,129.234 448.049,132.702 
		446.514,133.751 445.405,136.287 442.874,137 440.45,135.392 438.706,137.448 441.286,139.613 440.968,141.042 438.274,142.941 
		438.735,143.992 443.741,141.755 444.423,142.837 442.316,145.638 437.244,147.3 436.377,146.982 430.271,155.938 430.271,158.393 
		423.616,160.689 410.064,151.023 398.576,152.849 398.338,152.608 395.013,149.202 380.671,151.182 374.254,154.352 	"/>
</g>
<g id="Virginia_1_">
	
		<radialGradient id="SVGID_37_" cx="405.8613" cy="231.2627" r="30.5396" gradientTransform="matrix(1 0 0 -1 0 342)" gradientUnits="userSpaceOnUse">
		<stop  offset="0" style="stop-color:#75AFA5;stop-opacity:0.75"/>
		<stop  offset="0.9447" style="stop-color:#75AFA5;stop-opacity:0.9862"/>
		<stop  offset="1" style="stop-color:#75AFA5"/>
	</radialGradient>
	<polygon fill="url(#SVGID_37_)" points="368.609,132.593 370.769,131.036 379.985,120.791 383.232,124.065 398.44,117.869 
		401.956,103.365 405.362,104.244 411.845,93.917 412.559,90.127 413.254,89.679 417.338,91.939 418.233,88.881 424.493,92.366 
		425.917,92.92 426.394,94.27 425.84,95.933 424.967,96.407 424.808,100.53 427.98,99.656 436.774,104.014 436.535,106.393 
		435.108,107.028 428.058,102.429 427.98,102.587 434,107.421 436.929,109.164 437.725,109.084 438.118,110.59 437.962,111.382 
		437.171,110.751 436.379,110.59 436.061,110.828 436.774,111.621 436.379,112.492 433.128,110.354 432.258,110.195 
		434.713,112.336 436.379,112.969 437.247,112.729 438.359,113.841 438.674,114.631 437.882,115.662 436.693,115.266 
		435.821,114.95 435.029,114.235 432.812,113.523 432.02,112.81 430.674,112.969 428.216,113.125 427.98,113.523 432.097,114.157 
		435.348,115.662 436.22,116.139 437.646,116.93 438.991,115.978 442.08,116.058 442.794,118.75 443.112,120.415 	"/>
</g>
<g id="West_Virginia_1_">
	
		<radialGradient id="SVGID_38_" cx="394.9785" cy="242.4111" r="22.5304" gradientTransform="matrix(1 0 0 -1 0 342)" gradientUnits="userSpaceOnUse">
		<stop  offset="0" style="stop-color:#D5D6C3;stop-opacity:0.6"/>
		<stop  offset="0.9447" style="stop-color:#D5D6C3;stop-opacity:0.9779"/>
		<stop  offset="1" style="stop-color:#D5D6C3"/>
	</radialGradient>
	<polygon fill="url(#SVGID_38_)" points="372.62,108.58 372.698,108.659 376.186,105.727 376.502,100.813 378.722,101.527 
		386.725,90.593 388.073,76.888 390.133,88.611 400.195,86.792 401.406,94.631 407.999,88.497 410.307,88.276 412.834,86.189 
		416.358,85.365 417.338,88.387 416.46,90.585 412.724,88.276 411.516,89.046 410.636,93.222 404.868,102.871 401.065,101.846 
		397.181,116.584 383.714,122.29 372.698,111.988 	"/>
</g>
<g id="South_Carolina_1_">
	
		<radialGradient id="SVGID_39_" cx="397.6445" cy="172.207" r="22.2694" gradientTransform="matrix(1 0 0 -1 0 342)" gradientUnits="userSpaceOnUse">
		<stop  offset="0" style="stop-color:#D5D6C3;stop-opacity:0.6"/>
		<stop  offset="0.9447" style="stop-color:#D5D6C3;stop-opacity:0.9779"/>
		<stop  offset="1" style="stop-color:#D5D6C3"/>
	</radialGradient>
	<polygon fill="url(#SVGID_39_)" points="380.46,152.869 394.8,150.886 398.365,154.532 409.854,152.711 422.832,161.838 
		422.613,162.504 418.018,170.983 416.036,174.547 408.669,182.234 407.08,182.709 406.762,183.5 406.924,185.245 406.054,185.877 
		404.624,185.562 404.229,186.354 405.022,186.987 403.693,188.698 401.238,188.063 398.938,183.402 396.958,182.374 
		395.144,178.319 372.456,159.81 374.377,156.233 	"/>
</g>
<g id="Pennsylvania_1_">
	
		<radialGradient id="SVGID_40_" cx="415.1699" cy="273.9912" r="24.8024" gradientTransform="matrix(1 0 0 -1 0 342)" gradientUnits="userSpaceOnUse">
		<stop  offset="0" style="stop-color:#75AFA5;stop-opacity:0.75"/>
		<stop  offset="0.9447" style="stop-color:#75AFA5;stop-opacity:0.9862"/>
		<stop  offset="1" style="stop-color:#75AFA5"/>
	</radialGradient>
	<polygon fill="url(#SVGID_40_)" points="385.742,58.829 392.159,53.995 392.793,57.322 433.917,48.923 434.944,49.93 
		436.347,50.59 437.995,53.969 441.759,55.659 438.829,61.207 439.859,62.79 438.986,64.375 439.889,66.989 444.599,70.963 
		441.92,74.12 441.92,74.914 439.541,76.737 437.171,76.3 436.018,78.196 417.394,82.233 400.828,85.448 391.27,87.095 
		388.633,75.229 	"/>
</g>
<g id="Washington_DC_1_">
	
		<radialGradient id="SVGID_41_" cx="426.8633" cy="249.3145" r="1.1876" gradientTransform="matrix(1 0 0 -1 0 342)" gradientUnits="userSpaceOnUse">
		<stop  offset="0" style="stop-color:#D5D6C3;stop-opacity:0.6"/>
		<stop  offset="0.9447" style="stop-color:#D5D6C3;stop-opacity:0.9779"/>
		<stop  offset="1" style="stop-color:#D5D6C3"/>
	</radialGradient>
	<polygon fill="url(#SVGID_41_)" points="425.842,91.923 426.901,91.351 427.884,92.006 427.117,94.019 427.008,93.111 
		426.574,92.33 	"/>
</g>
<g id="Delaware_1_">
	
		<radialGradient id="SVGID_42_" cx="442.3623" cy="256.2266" r="6.9829" gradientTransform="matrix(1 0 0 -1 0 342)" gradientUnits="userSpaceOnUse">
		<stop  offset="0" style="stop-color:#D5D6C3;stop-opacity:0.6"/>
		<stop  offset="0.9447" style="stop-color:#D5D6C3;stop-opacity:0.9779"/>
		<stop  offset="1" style="stop-color:#D5D6C3"/>
	</radialGradient>
	<polygon fill="url(#SVGID_42_)" points="437.252,79.021 437.676,77.323 439.313,77.865 438.738,79.612 439.638,81.325 
		442.248,84.432 443.721,87.369 445.682,89.492 446.575,89.903 447.473,92.751 441.27,94.224 	"/>
</g>
<g id="New_Jersey_1_">
	
		<radialGradient id="SVGID_43_" cx="446.498" cy="270.7617" r="11.9436" gradientTransform="matrix(1 0 0 -1 0 342)" gradientUnits="userSpaceOnUse">
		<stop  offset="0" style="stop-color:#A5B765;stop-opacity:0.75"/>
		<stop  offset="0.9447" style="stop-color:#A5B765;stop-opacity:0.9862"/>
		<stop  offset="1" style="stop-color:#A5B765"/>
	</radialGradient>
	<polygon fill="url(#SVGID_43_)" points="440.636,76.903 443.095,75.161 443.095,74.37 445.863,70.721 440.873,66.682 
		439.921,64.461 440.793,62.878 439.764,61.296 442.693,55.748 451.252,58.522 451.017,62.007 449.513,63.67 449.513,65.969 
		452.602,66.128 452.836,67.158 453.076,70.483 453.232,72.942 453.155,73.815 452.836,75.24 452.52,76.033 451.809,77.852 
		451.174,80.468 450.066,81.896 449.668,82.687 448.798,85.223 448.162,86.649 447.371,86.729 447.608,84.511 447.293,83.639 
		444.836,84.036 441.744,82.293 439.764,79.676 	"/>
</g>
<g id="Maryland_4_">
	
		<radialGradient id="SVGID_44_" cx="424.1172" cy="250.9492" r="18.2561" gradientTransform="matrix(1 0 0 -1 0 342)" gradientUnits="userSpaceOnUse">
		<stop  offset="0" style="stop-color:#A5B765;stop-opacity:0.75"/>
		<stop  offset="0.9447" style="stop-color:#A5B765;stop-opacity:0.9862"/>
		<stop  offset="1" style="stop-color:#A5B765"/>
	</radialGradient>
	<polygon fill="url(#SVGID_44_)" points="446.938,93.805 440.548,95.254 436.264,79.432 417.701,83.347 401.061,86.518 
		402.011,92.433 407.505,87.159 409.867,87.213 412.394,85.42 417.009,84.321 418.438,87.837 424.7,91.354 426.788,90.365 
		428.766,91.709 427.611,94.595 427.117,95.996 425.939,96.976 425.88,99.374 428.106,98.798 436.347,102.67 435.844,100.619 
		434.496,97.45 432.913,95.865 431.961,93.25 431.882,91.663 431.961,90.162 431.882,89.131 432.042,88.26 431.961,86.991 
		431.961,86.436 433.229,84.376 434.655,83.347 435.211,83.743 434.734,84.376 434.022,85.17 433.625,87.625 434.182,88.497 
		433.388,89.765 433.388,91.429 434.496,92.696 436.083,93.648 435.923,94.597 435.528,96.184 436.083,97.132 436.876,97.53 
		438.459,96.817 440.123,98.164 439.411,99.037 439.568,99.827 440.599,101.806 442.895,101.253 445.354,99.037 446.777,96.817 
		447.173,95.151 	"/>
</g>
<g id="Maryland_3_">
	
		<radialGradient id="SVGID_45_" cx="443.9238" cy="235.5137" r="4.615" gradientTransform="matrix(1 0 0 -1 0 342)" gradientUnits="userSpaceOnUse">
		<stop  offset="0" style="stop-color:#A5B765;stop-opacity:0.75"/>
		<stop  offset="0.9447" style="stop-color:#A5B765;stop-opacity:0.9862"/>
		<stop  offset="1" style="stop-color:#A5B765"/>
	</radialGradient>
	<polygon fill="url(#SVGID_45_)" points="442.775,102.524 442.616,103.949 441.824,108.704 441.824,111.475 442.696,112.666 
		445.074,106.721 445.866,102.287 446.023,100.306 444.281,100.939 	"/>
</g>
<g id="Vermont_1_">
	
		<radialGradient id="SVGID_46_" cx="452.584" cy="324.8779" r="12.9466" gradientTransform="matrix(1 0 0 -1 0 342)" gradientUnits="userSpaceOnUse">
		<stop  offset="0" style="stop-color:#75AFA5;stop-opacity:0.75"/>
		<stop  offset="0.9447" style="stop-color:#75AFA5;stop-opacity:0.9862"/>
		<stop  offset="1" style="stop-color:#75AFA5"/>
	</radialGradient>
	<polygon fill="url(#SVGID_46_)" points="443.987,5.314 460.228,0.957 461.182,6.661 457.521,11.098 458.078,13.635 457.443,24.172 
		458.788,31.78 451.992,33.287 	"/>
</g>
<g id="Massachusettes_1_">
	
		<radialGradient id="SVGID_47_" cx="468.9668" cy="306.8105" r="13.4384" gradientTransform="matrix(1 0 0 -1 0 342)" gradientUnits="userSpaceOnUse">
		<stop  offset="0" style="stop-color:#D5D6C3;stop-opacity:0.6"/>
		<stop  offset="0.9447" style="stop-color:#D5D6C3;stop-opacity:0.9779"/>
		<stop  offset="1" style="stop-color:#D5D6C3"/>
	</radialGradient>
	<polygon fill="url(#SVGID_47_)" points="452.25,34.108 459.701,32.324 470.24,29.868 471.986,27.891 473.412,26.463 
		477.056,28.525 475.31,30.506 473.886,33.279 475.233,34.545 476.975,34.224 478.561,35.734 478.479,36.999 480.067,37.557 
		482.206,39.377 484.661,38.347 484.977,36.207 485.85,36.92 485.85,39.377 480.226,42.627 479.828,40.17 476.396,43.916 
		471.781,37.982 467.577,39.218 452.085,42.432 	"/>
</g>
<g id="Connecticut_1_">
	
		<radialGradient id="SVGID_48_" cx="460.8359" cy="293.3926" r="8.4732" gradientTransform="matrix(1 0 0 -1 0 342)" gradientUnits="userSpaceOnUse">
		<stop  offset="0" style="stop-color:#D5D6C3;stop-opacity:0.6"/>
		<stop  offset="0.9447" style="stop-color:#D5D6C3;stop-opacity:0.9779"/>
		<stop  offset="1" style="stop-color:#D5D6C3"/>
	</radialGradient>
	<polygon fill="url(#SVGID_48_)" points="452.326,43.498 467.523,40.171 469.346,46.669 468.949,48.729 467.698,49.203 
		466.031,50.233 465.085,50.707 462.548,51.34 460.482,52.213 458.346,54.037 454.07,57.045 453.196,55.86 454.543,54.511 
		453.988,52.766 	"/>
</g>
<g id="New_Hampshire_1_">
	
		<radialGradient id="SVGID_49_" cx="466.4629" cy="327.9492" r="13.5448" gradientTransform="matrix(1 0 0 -1 0 342)" gradientUnits="userSpaceOnUse">
		<stop  offset="0" style="stop-color:#D5D6C3;stop-opacity:0.6"/>
		<stop  offset="0.9447" style="stop-color:#D5D6C3;stop-opacity:0.9779"/>
		<stop  offset="1" style="stop-color:#D5D6C3"/>
	</radialGradient>
	<polygon fill="url(#SVGID_49_)" points="459.688,31.438 458.423,24.079 459.057,13.54 458.678,11.198 462.223,6.75 460.739,-2.315 
		463.483,-3.335 470.778,19.323 472.835,21.227 472.917,22.019 474.502,23.288 474.023,25.494 472.9,25.574 469.731,28.979 	"/>
</g>
<g id="Maine_1_">
	
		<radialGradient id="SVGID_50_" cx="482.4814" cy="349.0996" r="24.6922" gradientTransform="matrix(1 0 0 -1 0 342)" gradientUnits="userSpaceOnUse">
		<stop  offset="0" style="stop-color:#D5D6C3;stop-opacity:0.6"/>
		<stop  offset="0.9447" style="stop-color:#D5D6C3;stop-opacity:0.9779"/>
		<stop  offset="1" style="stop-color:#D5D6C3"/>
	</radialGradient>
	<polygon fill="url(#SVGID_50_)" points="463.82,-4.367 465.25,-4.762 465.886,-5.873 466.993,-9.913 468.814,-20.848 
		468.262,-24.255 472.062,-35.505 473.648,-35.583 474.126,-33.922 476.024,-32.969 478.324,-34.951 479.75,-36.219 
		480.699,-36.615 481.572,-36.376 483.237,-35.665 485.614,-34.318 489.179,-23.461 490.842,-17.599 491.635,-17.676 
		494.172,-17.44 494.727,-17.043 495.357,-14.588 495.835,-12.843 496.707,-12.133 497.338,-12.843 500.193,-10.941 499.164,-9.595 
		501.143,-8.486 496.23,-3.256 495.835,-3.335 494.646,-3.256 494.091,-2.383 493.615,-1.988 490.92,-1.83 489.654,-0.325 
		489.418,0.546 489.576,1.338 488.863,1.737 487.2,1.737 486.88,0.467 485.456,0.941 485.85,2.608 485.692,4.27 484.105,7.358 
		481.177,10.372 479.353,11.401 477.134,12.431 476.42,15.998 476.183,18.295 475.63,20.751 474.599,22.416 473.595,21.501 
		473.495,20.594 471.273,18.69 471.035,17.027 	"/>
</g>
<g id="Rhode_Island_1_">
	
		<radialGradient id="SVGID_51_" cx="471.1719" cy="298.168" r="3.8552" gradientTransform="matrix(1 0 0 -1 0 342)" gradientUnits="userSpaceOnUse">
		<stop  offset="0" style="stop-color:#D5D6C3;stop-opacity:0.6"/>
		<stop  offset="0.9447" style="stop-color:#D5D6C3;stop-opacity:0.9779"/>
		<stop  offset="1" style="stop-color:#D5D6C3"/>
	</radialGradient>
	<polygon fill="url(#SVGID_51_)" points="468.65,39.96 471.4,38.999 473.693,41.852 472.59,43.04 473.462,45.812 473.302,46.686 
		470.131,48.666 470.379,46.552 	"/>
</g>
<g id="New_York_4_">
	
		<radialGradient id="SVGID_52_" cx="422.8906" cy="310.2236" r="28.3345" gradientTransform="matrix(1 0 0 -1 0 342)" gradientUnits="userSpaceOnUse">
		<stop  offset="0" style="stop-color:#D5D6C3;stop-opacity:0.6"/>
		<stop  offset="0.9447" style="stop-color:#D5D6C3;stop-opacity:0.9779"/>
		<stop  offset="1" style="stop-color:#D5D6C3"/>
	</radialGradient>
	<polygon fill="url(#SVGID_52_)" points="392.386,52.941 399.359,44.936 399.359,44.066 398.331,42.242 396.506,38.916 
		396.506,38.835 398.17,37.885 399.833,37.173 401.576,36.459 404.745,35.825 408.071,35.667 410.213,36.537 415.841,35.349 
		421.148,30.674 421.702,29.884 421.625,29.012 421.307,28.218 421.227,27.662 421.227,25.682 421.387,24.891 420.672,23.464 
		419.168,22.831 423.051,17.206 425.665,12.848 428.597,9.68 443.097,5.793 451.18,34.272 451.025,43.138 453.007,52.883 
		453.396,54.048 452.049,55.712 453.239,57.265 451.92,57.76 441.986,54.604 438.738,53.178 436.996,49.768 435.412,49.216 
		434.223,48.028 434.144,47.87 393.02,56.267 	"/>
</g>
<g id="New_York_3_">
	
		<radialGradient id="SVGID_53_" cx="459.9229" cy="283.4844" r="6.6702" gradientTransform="matrix(1 0 0 -1 0 342)" gradientUnits="userSpaceOnUse">
		<stop  offset="0" style="stop-color:#D5D6C3;stop-opacity:0.6"/>
		<stop  offset="0.9447" style="stop-color:#D5D6C3;stop-opacity:0.9779"/>
		<stop  offset="1" style="stop-color:#D5D6C3"/>
	</radialGradient>
	<polygon fill="url(#SVGID_53_)" points="454.372,62.713 452.71,63.507 451.919,63.19 451.998,61.208 453.742,59.387 
		458.811,56.693 463.725,55.108 466.339,53.998 467.131,53.523 467.927,54.474 466.339,55.899 465.307,56.693 463.646,57.879 
		459.368,59.94 	"/>
</g>
<g id="Hawaii_14_">
	
		<radialGradient id="SVGID_54_" cx="300.6836" cy="34.4805" r="1.0165" gradientTransform="matrix(1 0 0 -1 0 342)" gradientUnits="userSpaceOnUse">
		<stop  offset="0" style="stop-color:#D5D6C3;stop-opacity:0.6"/>
		<stop  offset="0.9447" style="stop-color:#D5D6C3;stop-opacity:0.9779"/>
		<stop  offset="1" style="stop-color:#D5D6C3"/>
	</radialGradient>
	<polygon fill="url(#SVGID_54_)" points="300.275,308.704 301.422,307.152 301.498,306.335 299.869,307.804 	"/>
</g>
<g id="Hawaii_13_">
	
		<radialGradient id="SVGID_55_" cx="306.5664" cy="36.1147" r="2.1561" gradientTransform="matrix(1 0 0 -1 0 342)" gradientUnits="userSpaceOnUse">
		<stop  offset="0" style="stop-color:#D5D6C3;stop-opacity:0.6"/>
		<stop  offset="0.9447" style="stop-color:#D5D6C3;stop-opacity:0.9779"/>
		<stop  offset="1" style="stop-color:#D5D6C3"/>
	</radialGradient>
	<polygon fill="url(#SVGID_55_)" points="304.197,305.927 307.465,307.804 308.937,305.191 306.483,303.967 	"/>
</g>
<g id="Hawaii_12_">
	
		<radialGradient id="SVGID_56_" cx="322.0039" cy="30.1519" r="2.5266" gradientTransform="matrix(1 0 0 -1 0 342)" gradientUnits="userSpaceOnUse">
		<stop  offset="0" style="stop-color:#D5D6C3;stop-opacity:0.6"/>
		<stop  offset="0.9447" style="stop-color:#D5D6C3;stop-opacity:0.9779"/>
		<stop  offset="1" style="stop-color:#D5D6C3"/>
	</radialGradient>
	<polygon fill="url(#SVGID_56_)" points="321.763,309.603 319.226,310.663 319.226,311.972 320.778,313.604 323.147,314.094 
		324.783,313.604 324.047,311.972 	"/>
</g>
<g id="Hawaii_11_">
	
		<radialGradient id="SVGID_57_" cx="330.7041" cy="26.5977" r="1.9617" gradientTransform="matrix(1 0 0 -1 0 342)" gradientUnits="userSpaceOnUse">
		<stop  offset="0" style="stop-color:#D5D6C3;stop-opacity:0.6"/>
		<stop  offset="0.9447" style="stop-color:#D5D6C3;stop-opacity:0.9779"/>
		<stop  offset="1" style="stop-color:#D5D6C3"/>
	</radialGradient>
	<polygon fill="url(#SVGID_57_)" points="328.053,315.729 332.542,316.219 333.355,314.992 328.623,314.586 	"/>
</g>
<g id="Hawaii_10_">
	
		<radialGradient id="SVGID_58_" cx="331.6426" cy="23.3711" r="1.0582" gradientTransform="matrix(1 0 0 -1 0 342)" gradientUnits="userSpaceOnUse">
		<stop  offset="0" style="stop-color:#D5D6C3;stop-opacity:0.6"/>
		<stop  offset="0.9447" style="stop-color:#D5D6C3;stop-opacity:0.9779"/>
		<stop  offset="1" style="stop-color:#D5D6C3"/>
	</radialGradient>
	<polygon fill="url(#SVGID_58_)" points="330.416,317.771 331.891,319.486 332.869,318.588 332.132,317.771 	"/>
</g>
<g id="Hawaii_9_">
	
		<radialGradient id="SVGID_59_" cx="337.2793" cy="23.167" r="2.8368" gradientTransform="matrix(1 0 0 -1 0 342)" gradientUnits="userSpaceOnUse">
		<stop  offset="0" style="stop-color:#D5D6C3;stop-opacity:0.6"/>
		<stop  offset="0.9447" style="stop-color:#D5D6C3;stop-opacity:0.9779"/>
		<stop  offset="1" style="stop-color:#D5D6C3"/>
	</radialGradient>
	<polygon fill="url(#SVGID_59_)" points="336.709,317.606 335.32,316.628 333.928,317.688 336.137,319.321 336.22,319.321 
		337.036,321.038 339.814,320.303 340.631,319.486 338.427,317.444 	"/>
</g>
<g id="Hawaii_8_">
	
		<radialGradient id="SVGID_60_" cx="346.6758" cy="11.0381" r="6.3246" gradientTransform="matrix(1 0 0 -1 0 342)" gradientUnits="userSpaceOnUse">
		<stop  offset="0" style="stop-color:#D5D6C3;stop-opacity:0.6"/>
		<stop  offset="0.9447" style="stop-color:#D5D6C3;stop-opacity:0.9779"/>
		<stop  offset="1" style="stop-color:#D5D6C3"/>
	</radialGradient>
	<polygon fill="url(#SVGID_60_)" points="349.045,327.245 344.877,325.53 342.754,324.224 342.262,325.038 343.081,326.756 
		340.794,329.861 342.346,333.453 342.099,335.988 344.798,337.7 348.064,334.433 352.558,332.393 	"/>
</g>
<g id="Alaska_30_">
	
		<radialGradient id="SVGID_61_" cx="-62.1191" cy="-43.9561" r="3.4602" gradientTransform="matrix(1 0 0 -1 0 342)" gradientUnits="userSpaceOnUse">
		<stop  offset="0" style="stop-color:#D5D6C3;stop-opacity:0.6"/>
		<stop  offset="0.9447" style="stop-color:#D5D6C3;stop-opacity:0.9779"/>
		<stop  offset="1" style="stop-color:#D5D6C3"/>
	</radialGradient>
	<polygon fill="url(#SVGID_61_)" points="-58.239,383.709 -60.037,382.975 -64.446,386.487 -66,388.938 -62.65,387.466 
		-58.648,384.606 	"/>
</g>
<g id="Alaska_29_">
	
		<radialGradient id="SVGID_62_" cx="-53.8682" cy="-40.771" r="4.1101" gradientTransform="matrix(1 0 0 -1 0 342)" gradientUnits="userSpaceOnUse">
		<stop  offset="0" style="stop-color:#D5D6C3;stop-opacity:0.6"/>
		<stop  offset="0.9447" style="stop-color:#D5D6C3;stop-opacity:0.9779"/>
		<stop  offset="1" style="stop-color:#D5D6C3"/>
	</radialGradient>
	<polygon fill="url(#SVGID_62_)" points="-54.236,380.851 -53.666,382.24 -58.648,385.59 -57.747,386.079 -49.335,382.894 
		-49.089,380.607 -51.786,379.463 	"/>
</g>
<g id="Alaska_28_">
	
		<radialGradient id="SVGID_63_" cx="-44.4761" cy="21.3105" r="3.5169" gradientTransform="matrix(1 0 0 -1 0 342)" gradientUnits="userSpaceOnUse">
		<stop  offset="0" style="stop-color:#D5D6C3;stop-opacity:0.6"/>
		<stop  offset="0.9447" style="stop-color:#D5D6C3;stop-opacity:0.9779"/>
		<stop  offset="1" style="stop-color:#D5D6C3"/>
	</radialGradient>
	<polygon fill="url(#SVGID_63_)" points="-40.512,319.098 -43.861,318.034 -46.15,319.422 -47.867,319.098 -48.682,319.669 
		-47.701,321.384 -45.415,322.935 -42.718,323.345 -40.271,322.855 	"/>
</g>
<g id="Alaska_27_">
	
		<radialGradient id="SVGID_64_" cx="-36.6318" cy="-31.6206" r="3.5809" gradientTransform="matrix(1 0 0 -1 0 342)" gradientUnits="userSpaceOnUse">
		<stop  offset="0" style="stop-color:#D5D6C3;stop-opacity:0.6"/>
		<stop  offset="0.9447" style="stop-color:#D5D6C3;stop-opacity:0.9779"/>
		<stop  offset="1" style="stop-color:#D5D6C3"/>
	</radialGradient>
	<polygon fill="url(#SVGID_64_)" points="-37.899,371.701 -40.839,374.642 -40.757,376.277 -38.144,376.439 -36.837,374.969 
		-32.588,374.642 -32.425,372.026 -33.732,370.802 	"/>
</g>
<g id="Alaska_26_">
	
		<radialGradient id="SVGID_65_" cx="20.4238" cy="-4.8296" r="6.128" gradientTransform="matrix(1 0 0 -1 0 342)" gradientUnits="userSpaceOnUse">
		<stop  offset="0" style="stop-color:#D5D6C3;stop-opacity:0.6"/>
		<stop  offset="0.9447" style="stop-color:#D5D6C3;stop-opacity:0.9779"/>
		<stop  offset="1" style="stop-color:#D5D6C3"/>
	</radialGradient>
	<polygon fill="url(#SVGID_65_)" points="19.774,343.275 19.2,342.374 18.384,342.457 14.381,346.461 13.807,348.097 
		16.669,352.426 20.506,350.058 22.877,348.34 25.981,345.891 27.041,344.254 24.428,341.233 	"/>
</g>
<g id="Alaska_25_">
	
		<radialGradient id="SVGID_66_" cx="50.3643" cy="49.166" r="88.3143" gradientTransform="matrix(1 0 0 -1 0 342)" gradientUnits="userSpaceOnUse">
		<stop  offset="0" style="stop-color:#D5D6C3;stop-opacity:0.6"/>
		<stop  offset="0.9447" style="stop-color:#D5D6C3;stop-opacity:0.9779"/>
		<stop  offset="1" style="stop-color:#D5D6C3"/>
	</radialGradient>
	<polygon fill="url(#SVGID_66_)" points="142.468,325.22 132.092,324.896 103.502,303.659 100.07,306.109 100.07,310.602 
		96.964,314.77 84.059,304.396 76.546,307.334 50.487,220.256 42.887,218.132 10.949,219.11 11.195,216.417 1.719,215.111 
		0.736,214.619 -2.936,213.068 -5.063,216.417 -11.27,218.541 -18.456,223.688 -23.113,227.771 -28.668,235.94 -34.386,235.94 
		-36.755,240.595 -26.952,253.748 -20.172,254.564 -19.845,255.379 -21.397,263.957 -28.423,263.141 -28.259,258.649 
		-29.976,258.404 -45.741,266.244 -39.696,276.699 -34.713,278.905 -24.75,280.374 -18.212,275.068 -16.661,277.927 
		-19.438,279.973 -16.578,286.098 -26.708,293.04 -31.198,290.917 -41.085,304.313 -41.734,306.353 -37.328,312.481 
		-30.873,313.378 -30.793,316.973 -36.917,314.931 -38.88,317.135 -33.242,324.242 -24.011,321.384 -22.786,336.413 
		-21.888,337.067 -15.516,332.496 -8.493,338.375 1.883,332.739 -0.73,337.8 -2.203,347.198 -15.437,359.695 -16.25,362.227 
		-15.763,363.043 -18.212,364.105 -20.337,362.227 -26.869,366.556 -31.691,370.64 -31.854,372.356 -31.037,372.6 -25.975,371.456 
		-22.541,366.475 -21.152,366.475 -21.152,368.189 -10.942,365.496 5.642,350.544 20.181,332.574 15.359,331.102 15.688,328 
		20.426,323.915 24.999,312.481 30.064,307.581 34.148,310.027 32.679,310.764 30.964,310.027 27.041,313.46 27.695,318.198 
		25.981,322.935 25.981,327.511 28.186,328.651 36.111,321.629 37.58,319.098 41.257,319.26 43.623,313.787 40.6,308.069 
		41.418,307.499 62.415,313.787 80.629,312.153 82.998,309.781 84.633,310.52 85.365,313.216 95.17,316.891 102.85,319.916 
		105.216,317.381 101.787,314.931 102.929,312.153 104.646,312.234 107.014,316.155 109.383,317.218 110.119,316.074 
		104.483,307.905 105.137,307.743 109.138,311.91 111.425,314.931 115.348,315.747 120.738,320.813 121.475,323.426 124.821,323.51 
		125.968,323.51 125.968,324.322 133.238,328.327 133.315,333.472 134.953,334.777 135.769,334.371 136.258,329.638 
		138.221,329.311 143.693,338.54 145.163,338.456 146.47,332.329 	"/>
</g>
<g id="Alaska_24_">
	
		<radialGradient id="SVGID_67_" cx="24.3057" cy="3.4224" r="2.5591" gradientTransform="matrix(1 0 0 -1 0 342)" gradientUnits="userSpaceOnUse">
		<stop  offset="0" style="stop-color:#D5D6C3;stop-opacity:0.6"/>
		<stop  offset="0.9447" style="stop-color:#D5D6C3;stop-opacity:0.9779"/>
		<stop  offset="1" style="stop-color:#D5D6C3"/>
	</radialGradient>
	<polygon fill="url(#SVGID_67_)" points="21.405,339.764 23.204,340.742 24.266,339.354 26.552,338.783 27.206,336.988 
		23.204,336.413 	"/>
</g>
<g id="Alaska_23_">
	
		<radialGradient id="SVGID_68_" cx="109.2617" cy="20.3301" r="4.2271" gradientTransform="matrix(1 0 0 -1 0 342)" gradientUnits="userSpaceOnUse">
		<stop  offset="0" style="stop-color:#D5D6C3;stop-opacity:0.6"/>
		<stop  offset="0.9447" style="stop-color:#D5D6C3;stop-opacity:0.9779"/>
		<stop  offset="1" style="stop-color:#D5D6C3"/>
	</radialGradient>
	<polygon fill="url(#SVGID_68_)" points="110.609,318.198 108.894,318.525 106.932,317.871 104.646,319.177 105.298,322.362 
		107.424,324.322 109.792,325.469 113.877,322.689 	"/>
</g>
<g id="Alaska_22_">
	
		<radialGradient id="SVGID_69_" cx="114.979" cy="21.23" r="4.812" gradientTransform="matrix(1 0 0 -1 0 342)" gradientUnits="userSpaceOnUse">
		<stop  offset="0" style="stop-color:#D5D6C3;stop-opacity:0.6"/>
		<stop  offset="0.9447" style="stop-color:#D5D6C3;stop-opacity:0.9779"/>
		<stop  offset="1" style="stop-color:#D5D6C3"/>
	</radialGradient>
	<polygon fill="url(#SVGID_69_)" points="116.573,325.793 117.717,326.12 119.185,322.283 118.368,320.975 114.448,316.73 
		110.854,315.42 110.773,316.236 115.675,322.527 	"/>
</g>
<g id="Alaska_21_">
	
		<radialGradient id="SVGID_70_" cx="115.1025" cy="13.0601" r="4.6897" gradientTransform="matrix(1 0 0 -1 0 342)" gradientUnits="userSpaceOnUse">
		<stop  offset="0" style="stop-color:#D5D6C3;stop-opacity:0.6"/>
		<stop  offset="0.9447" style="stop-color:#D5D6C3;stop-opacity:0.9779"/>
		<stop  offset="1" style="stop-color:#D5D6C3"/>
	</radialGradient>
	<polygon fill="url(#SVGID_70_)" points="114.04,324.487 112.406,323.915 110.773,325.385 110.854,326.202 114.284,330.369 
		118.612,333.965 119.431,333.393 117.632,329.146 	"/>
</g>
<g id="Alaska_20_">
	
		<radialGradient id="SVGID_71_" cx="121.1455" cy="10.9771" r="3.2552" gradientTransform="matrix(1 0 0 -1 0 342)" gradientUnits="userSpaceOnUse">
		<stop  offset="0" style="stop-color:#D5D6C3;stop-opacity:0.6"/>
		<stop  offset="0.9447" style="stop-color:#D5D6C3;stop-opacity:0.9779"/>
		<stop  offset="1" style="stop-color:#D5D6C3"/>
	</radialGradient>
	<polygon fill="url(#SVGID_71_)" points="121.309,327.346 119.104,326.938 119.022,329.063 122.942,335.107 123.269,332.823 
		122.617,328.57 	"/>
</g>
<g id="Alaska_19_">
	
		<radialGradient id="SVGID_72_" cx="122.9443" cy="14.6118" r="3.0137" gradientTransform="matrix(1 0 0 -1 0 342)" gradientUnits="userSpaceOnUse">
		<stop  offset="0" style="stop-color:#D5D6C3;stop-opacity:0.6"/>
		<stop  offset="0.9447" style="stop-color:#D5D6C3;stop-opacity:0.9779"/>
		<stop  offset="1" style="stop-color:#D5D6C3"/>
	</radialGradient>
	<polygon fill="url(#SVGID_72_)" points="125.556,324.814 123.024,324.652 119.677,325.385 121.392,326.368 124.167,330.124 
		126.212,328.243 	"/>
</g>
<g id="Alaska_18_">
	
		<radialGradient id="SVGID_73_" cx="131.4795" cy="5.5449" r="6.5996" gradientTransform="matrix(1 0 0 -1 0 342)" gradientUnits="userSpaceOnUse">
		<stop  offset="0" style="stop-color:#D5D6C3;stop-opacity:0.6"/>
		<stop  offset="0.9447" style="stop-color:#D5D6C3;stop-opacity:0.9779"/>
		<stop  offset="1" style="stop-color:#D5D6C3"/>
	</radialGradient>
	<polygon fill="url(#SVGID_73_)" points="133.726,335.107 129.97,332.246 126.863,330.453 124.332,330.94 128.254,336.988 
		130.049,337.067 131.112,339.438 134.625,341.071 137.154,342.457 138.627,341.645 136.992,338.293 	"/>
</g>
<g id="Alaska_17_">
	
		<radialGradient id="SVGID_74_" cx="130.0186" cy="11.9473" r="2.1165" gradientTransform="matrix(1 0 0 -1 0 342)" gradientUnits="userSpaceOnUse">
		<stop  offset="0" style="stop-color:#D5D6C3;stop-opacity:0.6"/>
		<stop  offset="0.9447" style="stop-color:#D5D6C3;stop-opacity:0.9779"/>
		<stop  offset="1" style="stop-color:#D5D6C3"/>
	</radialGradient>
	<polygon fill="url(#SVGID_74_)" points="132.442,331.242 131.622,329.524 129.58,328.296 127.757,328.463 127.595,330.103 
		127.619,330.14 131.622,331.81 	"/>
</g>
<g id="Alaska_16_">
	
		<radialGradient id="SVGID_75_" cx="139.1709" cy="8.0918" r="2.6958" gradientTransform="matrix(1 0 0 -1 0 342)" gradientUnits="userSpaceOnUse">
		<stop  offset="0" style="stop-color:#D5D6C3;stop-opacity:0.6"/>
		<stop  offset="0.9447" style="stop-color:#D5D6C3;stop-opacity:0.9779"/>
		<stop  offset="1" style="stop-color:#D5D6C3"/>
	</radialGradient>
	<polygon fill="url(#SVGID_75_)" points="137.017,331.318 137.24,336.481 141.325,337.054 138.141,330.763 	"/>
</g>
</svg>
